<svg width="512" height="512" viewBox="0 0 512 512" fill="none" xmlns="http://www.w3.org/2000/svg">
<path opacity="0.15" d="M416 512H96C42.976 512 0 469.024 0 416V96C0 42.976 42.976 0 96 0H416C469.024 0 512 42.976 512 96V416C512 469.024 469.024 512 416 512Z" fill="#FF6060"/>
<mask id="mask0" mask-type="alpha" maskUnits="userSpaceOnUse" x="128" y="128" width="256" height="256">
<path d="M128 128H384V384H128V128Z" fill="#C4C4C4"/>
</mask>
<g mask="url(#mask0)">
<path d="M351.445 325.932C350.705 325.457 345.138 321.603 339.564 309.942C329.327 288.528 327.178 258.362 327.178 236.827C327.178 236.733 327.176 236.64 327.173 236.547C327.061 208.085 309.819 183.551 285.145 172.543V155.707C285.145 140.429 272.591 128 257.16 128H254.84C239.409 128 226.855 140.429 226.855 155.707V172.542C202.098 183.585 184.822 208.245 184.822 236.827C184.822 258.362 182.673 288.527 172.436 309.942C166.862 321.602 161.295 325.457 160.555 325.932C157.438 327.358 155.901 330.651 156.618 333.989C157.342 337.36 160.53 339.684 164.011 339.684H218.047C218.349 360.155 235.253 376.719 256 376.719C276.748 376.719 293.651 360.155 293.953 339.684H347.989C351.47 339.684 354.658 337.36 355.382 333.989C356.098 330.651 354.562 327.357 351.445 325.932ZM241.6 155.707C241.6 148.478 247.539 142.597 254.841 142.597H257.16C264.461 142.597 270.401 148.478 270.401 155.707V167.811C265.748 166.86 260.931 166.36 255.998 166.36C251.067 166.36 246.251 166.86 241.6 167.81V155.707H241.6ZM256 362.122C243.383 362.122 233.091 352.106 232.791 339.684H279.209C278.91 352.106 268.618 362.122 256 362.122ZM285.685 325.086C285.684 325.086 180.812 325.086 180.812 325.086C182.088 323.122 183.385 320.897 184.676 318.384C194.556 299.126 199.566 271.686 199.566 236.827C199.566 206.02 224.882 180.957 255.998 180.957C287.114 180.957 312.429 206.02 312.429 236.851C312.429 236.941 312.431 237.03 312.434 237.12C312.462 271.839 317.472 299.18 327.325 318.384C328.615 320.898 329.913 323.122 331.188 325.086H285.685Z" fill="#FF6060"/>
<path fill-rule="evenodd" clip-rule="evenodd" d="M355.382 333.989C354.658 337.36 351.47 339.683 347.989 339.683H293.954C293.652 360.155 276.748 376.718 256 376.718C235.252 376.718 218.349 360.155 218.047 339.683H164.011C160.53 339.683 157.342 337.36 156.618 333.989C155.901 330.651 157.438 327.357 160.555 325.932C161.295 325.456 166.862 321.602 172.436 309.941C182.673 288.527 184.821 258.361 184.821 236.826C184.821 208.245 202.098 183.585 226.855 172.541V155.706C226.855 140.429 239.409 128 254.84 128H257.159C272.591 128 285.145 140.429 285.145 155.706V172.542C309.819 183.55 327.061 208.085 327.173 236.546C327.176 236.64 327.178 236.732 327.178 236.826C327.178 258.361 329.327 288.527 339.564 309.941C345.138 321.602 350.705 325.457 351.445 325.932C354.562 327.357 356.098 330.651 355.382 333.989ZM352.492 324.066C356.463 325.971 358.369 330.234 357.468 334.436C356.509 338.899 352.359 341.817 347.989 341.817H296C294.599 362.489 277.183 378.852 256 378.852C234.817 378.852 217.401 362.489 216 341.817H164.011C159.64 341.817 155.491 338.9 154.532 334.437C154.532 334.437 154.532 334.437 154.532 334.437C153.629 330.233 155.537 325.971 159.507 324.067C160.368 323.479 165.393 319.728 170.511 309.021C180.525 288.072 182.688 258.329 182.688 236.826C182.688 207.851 199.912 182.807 224.721 171.171V155.706C224.721 139.23 238.251 125.866 254.84 125.866H257.159C273.749 125.866 287.278 139.23 287.278 155.706V171.172C311.994 182.766 329.18 207.666 329.306 236.505C329.306 236.492 329.305 236.48 329.305 236.468M352.492 324.066C351.632 323.48 346.607 319.728 341.489 309.021C331.474 288.073 329.311 258.329 329.311 236.826C329.311 236.781 329.311 236.736 329.31 236.691C329.31 236.628 329.308 236.566 329.306 236.505M243.733 155.604V165.243C247.723 164.575 251.821 164.226 255.998 164.226C260.177 164.226 264.276 164.575 268.268 165.244V155.706C268.268 149.676 263.303 144.73 257.16 144.73H254.841C248.732 144.73 243.789 149.62 243.733 155.604ZM270.401 155.706C270.401 148.478 264.461 142.597 257.16 142.597H254.841C248.273 142.597 242.807 147.355 241.775 153.573C241.665 154.231 241.606 154.906 241.6 155.593C241.6 155.631 241.599 155.669 241.599 155.706L241.6 167.809C242.307 167.665 243.018 167.531 243.733 167.407C247.719 166.719 251.817 166.36 255.998 166.36C260.181 166.36 264.281 166.719 268.268 167.408C268.983 167.532 269.694 167.666 270.401 167.811V155.706ZM180.812 325.086C181.253 324.406 181.697 323.696 182.142 322.953C182.984 321.548 183.832 320.027 184.675 318.383C194.556 299.125 199.566 271.686 199.566 236.826C199.566 206.02 224.881 180.957 255.998 180.957C287.114 180.957 312.429 206.02 312.429 236.85C312.429 236.94 312.431 237.03 312.434 237.119C312.462 271.839 317.472 299.18 327.325 318.383C328.168 320.028 329.016 321.548 329.858 322.953C330.303 323.696 330.747 324.406 331.188 325.086H180.812ZM184.617 322.953H327.383C326.73 321.822 326.077 320.625 325.427 319.357C315.356 299.731 310.332 272.015 310.301 237.158C310.297 237.053 310.296 236.95 310.296 236.85C310.296 207.217 285.955 183.09 255.998 183.09C226.039 183.09 201.699 207.218 201.699 236.826C201.699 271.84 196.675 299.668 186.574 319.357C185.923 320.624 185.27 321.822 184.617 322.953ZM235.092 341.817C236.429 352.037 245.278 359.988 256 359.988C266.722 359.988 275.571 352.037 276.907 341.817H235.092ZM232.942 341.817C232.859 341.115 232.809 340.404 232.791 339.684H279.208C279.191 340.404 279.14 341.115 279.057 341.817C277.709 353.232 267.887 362.121 256 362.121C244.113 362.121 234.291 353.233 232.942 341.817Z" fill="#FF6060"/>
</g>
</svg>
