<svg width="512" height="512" viewBox="0 0 512 512" fill="none" xmlns="http://www.w3.org/2000/svg">
<path opacity="0.15" d="M416 512H96C42.976 512 0 469.024 0 416V96C0 42.976 42.976 0 96 0H416C469.024 0 512 42.976 512 96V416C512 469.024 469.024 512 416 512Z" fill="#FF6060"/>
<mask id="mask0" mask-type="alpha" maskUnits="userSpaceOnUse" x="128" y="128" width="256" height="256">
<path d="M128 128H384V384H128V128Z" fill="#C4C4C4"/>
</mask>
<g mask="url(#mask0)">
<path d="M252.444 135.111C204.694 135.111 165.847 173.93 165.847 221.645C165.847 242.849 173.523 262.291 186.237 277.355V370.983C186.237 378.66 194.853 383.231 201.217 378.919L252.444 344.214L303.672 378.919C310.033 383.229 318.652 378.665 318.652 370.983V277.356C331.366 262.291 339.042 242.849 339.042 221.645C339.042 173.93 300.194 135.111 252.444 135.111ZM299.461 352.898L257.829 324.693C254.578 322.491 250.311 322.491 247.06 324.693L205.428 352.898V294.281C218.977 303.068 235.124 308.18 252.444 308.18C269.765 308.18 285.912 303.068 299.461 294.281V352.898ZM252.444 289.003C215.276 289.003 185.038 258.787 185.038 221.645C185.038 184.504 215.276 154.288 252.444 154.288C289.613 154.288 319.851 184.504 319.851 221.645C319.851 258.787 289.613 289.003 252.444 289.003Z" fill="#FF6060"/>
</g>
</svg>
