<svg width="512" height="512" viewBox="0 0 512 512" fill="none" xmlns="http://www.w3.org/2000/svg">
<path opacity="0.1" d="M416 512H96C42.976 512 0 469.024 0 416V96C0 42.976 42.976 0 96 0H416C469.024 0 512 42.976 512 96V416C512 469.024 469.024 512 416 512Z" fill="#FFA14A"/>
<path d="M175.852 331.293H169.641V343.744H175.852C179.34 343.744 182.063 341 182.063 337.528C182.082 334.019 179.34 331.293 175.852 331.293Z" fill="#FFA14A"/>
<path d="M241.133 331.293H231.807V368.596H241.133C242.867 368.596 244.248 367.235 244.248 365.482V334.39C244.248 332.655 242.886 331.293 241.133 331.293Z" fill="#FFA14A"/>
<path d="M328.18 306.413C268.252 306.413 219.385 257.546 219.385 197.619C219.385 163.915 234.81 133.7 259.057 113.687H147.893C128.981 113.687 113.686 128.981 113.686 147.875V377.904C113.686 396.817 128.981 412.111 147.875 412.111H328.18C347.074 412.111 362.369 396.817 362.369 377.923V300.948C351.681 304.436 340.117 306.413 328.18 306.413ZM175.852 362.367H169.641V377.904C169.641 382.996 165.407 387.23 160.315 387.23C155.223 387.23 150.989 382.996 150.989 377.904V321.95C150.989 316.858 155.223 312.624 160.315 312.624H175.852C189.524 312.624 200.715 323.815 200.715 337.486C200.733 351.177 189.542 362.367 175.852 362.367ZM262.899 365.482C262.899 377.419 253.07 387.249 241.133 387.249H222.481C217.389 387.249 213.155 383.015 213.155 377.923V321.968C213.155 316.876 217.389 312.642 222.481 312.642H241.133C253.07 312.642 262.899 322.472 262.899 334.409V365.482ZM315.739 343.716C320.887 343.716 325.065 347.894 325.065 353.042C325.065 358.19 320.887 362.367 315.739 362.367H293.973V377.904C293.973 383.052 289.795 387.23 284.647 387.23C279.499 387.23 275.321 383.052 275.321 377.904V334.39C275.321 322.397 285.076 312.624 297.088 312.624H315.739C320.887 312.624 325.065 316.802 325.065 321.95C325.065 327.097 320.887 331.275 315.739 331.275H297.088C295.372 331.275 293.973 332.674 293.973 334.39V343.716H315.739Z" fill="#FFA14A"/>
<path d="M326.848 113.687C279.839 113.687 241.583 151.942 241.583 198.951C241.583 245.96 279.839 284.215 326.848 284.215C373.857 284.215 412.112 245.96 412.112 198.951C412.112 151.942 373.857 113.687 326.848 113.687ZM367.926 182.012L323.721 232.545C321.429 235.179 318.132 236.733 314.645 236.846C314.513 236.846 314.361 236.846 314.229 236.846C310.894 236.846 307.673 235.52 305.304 233.151L280.047 207.894C275.121 202.968 275.121 194.972 280.047 190.027C284.973 185.1 292.969 185.1 297.915 190.027L313.622 205.734L348.941 165.357C353.545 160.127 361.503 159.578 366.771 164.182C372 168.786 372.531 176.744 367.926 182.012Z" fill="#FFA14A"/>
</svg>
