<svg width="512" height="512" viewBox="0 0 512 512" fill="none" xmlns="http://www.w3.org/2000/svg">
<path opacity="0.15" d="M416 512H96C42.976 512 0 469.024 0 416V96C0 42.976 42.976 0 96 0H416C469.024 0 512 42.976 512 96V416C512 469.024 469.024 512 416 512Z" fill="#FF6060"/>
<mask id="mask0" mask-type="alpha" maskUnits="userSpaceOnUse" x="128" y="128" width="256" height="256">
<path d="M128 128H384V384H128V128Z" fill="#C4C4C4"/>
</mask>
<g mask="url(#mask0)">
<path d="M374.122 176.545C341.681 145.096 290.528 143.332 256 170.687C221.482 143.34 170.33 145.083 137.878 176.545C136.105 178.262 135.111 180.59 135.111 183.019V327.07C135.111 335.197 145.288 339.305 151.233 333.543C178.277 307.326 222.279 307.328 249.322 333.543C253.01 337.118 258.99 337.118 262.677 333.543C289.721 307.326 333.723 307.328 360.767 333.543C366.694 339.29 376.889 335.219 376.889 327.07V183.019C376.889 180.59 375.895 178.262 374.122 176.545ZM358 308.232C326.477 289.413 285.298 291.586 256 314.745C226.595 291.5 185.405 289.483 154 308.234V186.951C180.917 163.522 222.836 163.817 249.322 189.492C253.008 193.067 258.99 193.069 262.677 189.494C289.133 163.847 331.048 163.489 358 186.951V308.232ZM338.192 207.126C343.073 208.911 345.538 214.193 343.697 218.923C341.856 223.654 336.407 226.044 331.526 224.259C315.478 218.392 297.836 218.472 281.85 224.49C276.99 226.317 271.517 223.987 269.628 219.268C267.739 214.554 270.152 209.25 275.014 207.419C295.346 199.767 317.784 199.664 338.192 207.126ZM243.316 219.268C241.422 224.001 235.936 226.314 231.094 224.49C215.108 218.472 197.467 218.392 181.418 224.259C176.538 226.044 171.089 223.654 169.248 218.925C167.407 214.193 169.871 208.911 174.752 207.126C195.161 199.664 217.599 199.769 237.93 207.421C242.793 209.25 245.205 214.554 243.316 219.268ZM343.697 263.189C341.856 267.919 336.407 270.308 331.526 268.523C315.478 262.656 297.836 262.736 281.85 268.755C276.99 270.583 271.517 268.253 269.628 263.534C267.739 258.82 270.152 253.514 275.014 251.685C295.346 244.033 317.782 243.928 338.192 251.39C343.073 253.175 345.538 258.457 343.697 263.189ZM243.316 263.534C241.422 268.267 235.936 270.578 231.094 268.755C215.108 262.738 197.467 262.658 181.418 268.523C176.538 270.309 171.089 267.919 169.248 263.189C167.407 258.457 169.871 253.175 174.752 251.39C195.161 243.928 217.599 244.033 237.93 251.685C242.793 253.514 245.205 258.82 243.316 263.534Z" fill="#FF6060"/>
</g>
</svg>
