<svg width="512" height="512" viewBox="0 0 512 512" fill="none" xmlns="http://www.w3.org/2000/svg">
<path opacity="0.15" d="M416 512H96C42.976 512 0 469.024 0 416V96C0 42.976 42.976 0 96 0H416C469.024 0 512 42.976 512 96V416C512 469.024 469.024 512 416 512Z" fill="#FF6060"/>
<mask id="mask0" mask-type="alpha" maskUnits="userSpaceOnUse" x="128" y="128" width="256" height="256">
<path d="M128 128H384V384H128V128Z" fill="#C4C4C4"/>
</mask>
<g mask="url(#mask0)">
<path d="M333.65 195.611C283.316 195.611 233.313 195.611 183.31 195.611C183.027 195.941 182.744 196.271 182.461 196.601C183.215 196.931 184.159 197.12 184.725 197.685C191.235 204.097 197.697 210.602 204.207 217.06C207.085 219.889 208.264 223.283 207.179 227.195C205.245 234.125 196.801 236.482 191.329 231.627C189.348 229.882 187.555 227.902 185.668 226.017C174.866 215.222 164.016 204.379 153.213 193.584C148.072 188.399 148.024 183.119 153.166 177.981C165.714 165.441 178.215 152.902 190.763 140.41C196.235 134.989 204.773 136.827 207.085 143.898C208.358 147.858 207.273 151.299 204.302 154.269C197.745 160.774 191.235 167.327 184.678 173.832C184.112 174.398 183.546 175.011 182.508 176.095C183.876 176.095 184.725 176.095 185.574 176.095C234.492 176.095 283.411 176.095 332.329 176.095C341.999 176.095 349.453 181.186 352 189.813C352.613 191.887 352.849 194.103 352.849 196.271C352.943 206.124 352.896 215.929 352.896 225.781C352.896 231.344 348.651 235.681 343.226 235.681C337.801 235.681 333.602 231.344 333.602 225.734C333.602 216.589 333.602 207.444 333.602 198.251C333.65 197.497 333.65 196.648 333.65 195.611Z" fill="#FF6060"/>
<path d="M328.838 311.624C320.677 311.624 312.516 311.624 304.355 311.624C262.796 311.624 221.189 311.624 179.63 311.624C170.054 311.624 162.648 306.533 160.053 298.094C159.44 296.02 159.204 293.805 159.157 291.636C159.063 282.396 159.11 273.157 159.11 263.964C159.11 258.024 163.12 253.829 168.686 253.829C174.3 253.829 178.356 257.93 178.404 263.87C178.451 272.497 178.404 281.124 178.404 289.75C178.404 290.552 178.404 291.353 178.404 292.296C228.784 292.296 278.834 292.296 328.885 292.296C329.121 292.013 329.404 291.683 329.64 291.4C328.838 290.976 327.894 290.693 327.281 290.08C320.677 283.528 314.073 276.975 307.516 270.328C303.836 266.604 303.364 261.418 306.242 257.506C309.827 252.556 316.526 252.037 321.101 256.563C329.357 264.671 337.517 272.921 345.678 281.124C350.16 285.602 354.688 290.128 359.17 294.606C363.793 299.273 363.84 304.836 359.264 309.408C346.527 322.137 333.791 334.912 321.007 347.593C317.705 350.846 313.601 351.647 309.78 349.856C306.148 348.159 303.93 344.482 304.166 340.522C304.308 337.929 305.44 335.76 307.28 333.922C313.978 327.275 320.677 320.534 327.375 313.887C327.941 313.321 328.79 313.038 329.545 312.614C329.357 312.284 329.074 311.954 328.838 311.624Z" fill="#FF6060"/>
</g>
</svg>
