<svg width="512" height="512" viewBox="0 0 512 512" fill="none" xmlns="http://www.w3.org/2000/svg">
<path opacity="0.15" d="M416 512H96C42.976 512 0 469.024 0 416V96C0 42.976 42.976 0 96 0H416C469.024 0 512 42.976 512 96V416C512 469.024 469.024 512 416 512Z" fill="#FF6060"/>
<mask id="mask0" mask-type="alpha" maskUnits="userSpaceOnUse" x="128" y="128" width="256" height="256">
<path d="M128 128H384V384H128V128Z" fill="#C4C4C4"/>
</mask>
<g mask="url(#mask0)">
<path d="M248.677 313.521C246.674 313.521 244.672 312.755 243.139 311.238L186.852 255.006C183.911 252.067 183.786 247.33 186.57 244.251L232.673 193.115C265.415 155.33 317.338 129.285 361.798 128.457C364.629 128.488 365.99 129.254 367.476 130.739C368.978 132.255 369.823 134.303 369.776 136.414C368.931 180.843 342.884 232.745 304.948 265.559L253.902 311.52C252.415 312.864 250.538 313.521 248.677 313.521ZM203.184 249.206L248.958 294.949L294.607 253.849C327.084 225.757 350.033 182.86 353.647 144.574C315.351 148.201 272.44 171.119 244.421 203.464L203.184 249.206Z" fill="#FF6060"/>
<path fill-rule="evenodd" clip-rule="evenodd" d="M242.133 312.244L185.847 256.012C182.371 252.539 182.221 246.94 185.515 243.296L231.607 192.172C264.577 154.131 316.858 127.871 361.771 127.034L361.813 127.033C363.354 127.05 364.603 127.269 365.706 127.747C366.813 128.226 367.671 128.922 368.481 129.732L368.487 129.737C370.248 131.516 371.253 133.931 371.198 136.442C370.344 181.324 344.08 233.584 305.888 266.624L254.856 312.574C253.094 314.168 250.871 314.942 248.676 314.942C246.311 314.942 243.941 314.032 242.133 312.244ZM304.947 265.558C342.884 232.744 368.931 180.842 369.776 136.413C369.823 134.302 368.978 132.255 367.476 130.738C365.99 129.253 364.629 128.487 361.797 128.456C317.337 129.284 265.415 155.329 232.673 193.114L186.57 244.25C183.785 247.33 183.911 252.066 186.852 255.005L243.138 311.238C244.672 312.754 246.674 313.52 248.676 313.52C250.538 313.52 252.415 312.863 253.901 311.519L304.947 265.558ZM293.676 252.773C325.416 225.318 347.963 183.611 352.055 146.166C314.597 150.269 272.878 172.785 245.496 204.394L245.478 204.416L205.145 249.154L249.009 292.988L293.676 252.773ZM248.958 294.948L203.184 249.206L244.421 203.463C272.088 171.524 314.277 148.776 352.204 144.719C352.686 144.667 353.167 144.619 353.647 144.573C353.602 145.054 353.553 145.534 353.502 146.016C349.456 183.932 326.676 226.108 294.607 253.849L248.958 294.948Z" fill="#FF6060"/>
<path d="M269.717 350.606C269.013 350.606 268.294 350.512 267.59 350.309C264.852 349.543 262.756 347.37 262.099 344.603L251.054 298.484C250.053 294.279 252.65 290.073 256.842 289.057C261.082 288.025 265.259 290.652 266.276 294.842L273.613 325.452C287.191 304.222 289.914 277.035 290.195 261.12C290.273 256.821 293.465 253.663 298.158 253.444C302.46 253.523 305.902 257.103 305.823 261.402C305.166 298.39 294.309 329.251 275.24 348.308C273.753 349.808 271.751 350.606 269.717 350.606Z" fill="#FF6060"/>
<path fill-rule="evenodd" clip-rule="evenodd" d="M266.275 294.841L273.612 325.451C273.972 324.889 274.324 324.323 274.668 323.753C287.334 302.79 289.921 276.614 290.195 261.12C290.273 256.821 293.465 253.663 298.158 253.444C302.46 253.522 305.901 257.102 305.823 261.401C305.166 298.39 294.309 329.25 275.239 348.307C273.753 349.808 271.751 350.605 269.717 350.605C269.013 350.605 268.294 350.512 267.59 350.308C264.852 349.542 262.756 347.369 262.099 344.602L251.054 298.484C250.053 294.278 252.65 290.073 256.842 289.057C261.082 288.025 265.259 290.651 266.275 294.841ZM256.507 287.675C261.527 286.454 266.46 289.57 267.658 294.506L274.192 321.766C286.02 301.349 288.506 276.211 288.773 261.095C288.866 255.972 292.725 252.274 298.091 252.023L298.184 252.019M256.507 287.675C251.558 288.874 248.487 293.841 249.67 298.813L260.715 344.931C260.715 344.93 260.715 344.931 260.715 344.931C261.492 348.201 263.97 350.77 267.2 351.676C268.038 351.918 268.889 352.028 269.717 352.028C272.118 352.028 274.485 351.088 276.245 349.313" fill="#FF6060"/>
<path d="M201.446 247.311C200.852 247.311 200.242 247.248 199.632 247.092L153.482 236.039C150.713 235.382 148.539 233.303 147.772 230.567C147.006 227.847 147.772 224.924 149.775 222.923C168.845 203.866 199.71 193.016 236.739 192.359C241.636 192.578 244.624 195.721 244.702 200.035C244.78 204.35 241.338 207.915 237.021 207.993C221.095 208.274 193.906 210.979 172.662 224.564L203.292 231.896C207.501 232.897 210.098 237.118 209.081 241.323C208.205 244.903 204.998 247.311 201.446 247.311Z" fill="#FF6060"/>
<path fill-rule="evenodd" clip-rule="evenodd" d="M236.803 190.937C239.546 191.06 241.869 192.011 243.527 193.648C245.187 195.288 246.079 197.519 246.124 200.008C246.216 205.11 242.148 209.321 237.046 209.413C221.919 209.68 196.778 212.151 176.349 223.983L203.621 230.511C203.622 230.511 203.621 230.511 203.621 230.511C208.592 231.694 211.665 236.683 210.463 241.656C209.428 245.887 205.637 248.731 201.446 248.731C200.756 248.731 200.029 248.659 199.29 248.471L153.154 237.421C153.153 237.421 153.155 237.421 153.154 237.421C149.886 236.646 147.31 234.186 146.403 230.95C145.497 227.733 146.404 224.279 148.769 221.915C168.184 202.513 199.456 191.596 236.714 190.936L236.803 190.937ZM199.632 247.09C200.242 247.247 200.852 247.309 201.446 247.309C204.998 247.309 208.205 244.902 209.081 241.322C210.098 237.116 207.501 232.895 203.292 231.895L172.662 224.563C173.224 224.203 173.79 223.851 174.36 223.507C195.337 210.836 221.517 208.265 237.021 207.991C241.338 207.913 244.78 204.349 244.702 200.034C244.624 195.719 241.636 192.577 236.739 192.358C199.71 193.014 168.845 203.864 149.775 222.921C147.772 224.922 147.006 227.846 147.772 230.566C148.539 233.302 150.713 235.381 153.482 236.037L199.632 247.09Z" fill="#FF6060"/>
<path d="M142.938 362.955C140.889 362.955 138.886 362.158 137.4 360.672C135.367 358.64 134.616 355.654 135.445 352.903C138.026 344.273 151.433 300.718 161.946 290.213C174.633 277.55 195.22 277.55 207.908 290.213C220.579 302.876 220.563 323.481 207.908 336.144C197.395 346.634 153.811 360.063 145.175 362.642C144.456 362.845 143.689 362.955 142.938 362.955ZM184.942 296.341C180.64 296.341 176.307 297.967 173.022 301.25C168.594 305.69 160.944 325.263 154.968 343.1C172.834 337.129 192.436 329.499 196.863 325.06C203.418 318.493 203.418 307.8 196.863 301.25C193.562 297.982 189.26 296.341 184.942 296.341ZM202.385 330.609H202.542H202.385Z" fill="#FF6060"/>
<path fill-rule="evenodd" clip-rule="evenodd" d="M160.94 289.205L160.941 289.205C174.183 275.987 195.67 275.987 208.912 289.205L208.913 289.205C222.141 302.425 222.124 323.93 208.913 337.148L208.912 337.149C206.103 339.952 201.22 342.843 195.507 345.624C189.752 348.426 183.003 351.186 176.337 353.689C163.003 358.697 149.913 362.71 145.582 364.004L145.562 364.01L145.562 364.01C144.72 364.247 143.824 364.376 142.938 364.376C140.522 364.376 138.155 363.436 136.395 361.677C133.991 359.275 133.103 355.745 134.083 352.492C135.377 348.164 139.385 335.083 144.389 321.76C146.892 315.098 149.651 308.354 152.454 302.602C155.236 296.893 158.131 292.013 160.94 289.205ZM135.445 352.901C134.616 355.653 135.366 358.639 137.4 360.671C138.886 362.156 140.889 362.954 142.938 362.954C143.689 362.954 144.456 362.844 145.175 362.641C153.811 360.061 197.395 346.632 207.907 336.142C220.563 323.479 220.579 302.874 207.907 290.211C195.22 277.548 174.633 277.548 161.946 290.211C151.433 300.717 138.026 344.272 135.445 352.901ZM195.856 324.054L195.856 324.053C201.857 318.043 201.856 308.251 195.86 302.257C192.835 299.264 188.897 297.762 184.942 297.762C180.996 297.762 177.031 299.253 174.027 302.254C173.085 303.199 171.861 305.084 170.433 307.812C169.026 310.5 167.486 313.88 165.888 317.699C163.017 324.56 159.985 332.78 157.236 340.833C165.303 338.087 173.537 335.059 180.407 332.192C184.231 330.596 187.613 329.057 190.302 327.65C193.033 326.222 194.916 324.997 195.856 324.054ZM156.66 342.53C156.095 342.722 155.531 342.911 154.968 343.099C155.157 342.537 155.347 341.973 155.538 341.408C161.423 324.043 168.734 305.548 173.021 301.248C176.307 297.965 180.64 296.34 184.942 296.34C189.26 296.34 193.562 297.981 196.863 301.248C203.418 307.799 203.418 318.492 196.863 325.058C192.575 329.358 174.053 336.65 156.66 342.53Z" fill="#FF6060"/>
</g>
</svg>
