<svg width="512" height="512" viewBox="0 0 512 512" fill="none" xmlns="http://www.w3.org/2000/svg">
<path opacity="0.15" d="M416 512H96C42.976 512 0 469.024 0 416V96C0 42.976 42.976 0 96 0H416C469.024 0 512 42.976 512 96V416C512 469.024 469.024 512 416 512Z" fill="#FF6060"/>
<mask id="mask0" mask-type="alpha" maskUnits="userSpaceOnUse" x="128" y="128" width="256" height="256">
<path d="M128 128H384V384H128V128Z" fill="#C4C4C4"/>
</mask>
<g mask="url(#mask0)">
<path d="M349.872 165.275L259.535 129.132C257.272 128.227 254.728 128.227 252.465 129.132L162.128 165.275C158.687 166.652 156.444 169.889 156.444 173.479V217.415C156.444 277.913 194.39 332.332 252.516 355.194C254.749 356.072 257.25 356.072 259.484 355.194C317.609 332.332 355.556 277.913 355.556 217.415V173.479C355.556 169.889 353.313 166.652 349.872 165.275ZM337.119 217.415C337.119 268.844 305.778 316.188 256 337.321C207.552 316.753 174.881 270.238 174.881 217.415V179.409L256 146.954L337.119 179.409V217.415ZM245.811 247.356L285.432 209.177C289.032 205.708 294.869 205.708 298.469 209.177C302.069 212.646 302.068 218.27 298.468 221.739L252.329 266.199C248.729 269.669 242.892 269.668 239.293 266.199L213.531 241.375C209.931 237.905 209.931 232.281 213.531 228.813C217.131 225.344 222.968 225.343 226.568 228.813L245.811 247.356Z" fill="#FF6060"/>
</g>
</svg>
