<svg width="512" height="512" viewBox="0 0 512 512" fill="none" xmlns="http://www.w3.org/2000/svg">
<path opacity="0.15" d="M416 512H96C42.976 512 0 469.024 0 416V96C0 42.976 42.976 0 96 0H416C469.024 0 512 42.976 512 96V416C512 469.024 469.024 512 416 512Z" fill="#FF6060"/>
<mask id="mask0" mask-type="alpha" maskUnits="userSpaceOnUse" x="128" y="128" width="256" height="256">
<path d="M128 128H384V384H128V128Z" fill="#C4C4C4"/>
</mask>
<g mask="url(#mask0)">
<path d="M253.697 323.388C250.987 323.388 248.787 325.588 248.787 328.298C248.787 331.008 250.987 333.208 253.697 333.208C256.408 333.208 258.607 331.008 258.607 328.298C258.607 325.588 256.408 323.388 253.697 323.388Z" fill="#FF6060"/>
<path fill-rule="evenodd" clip-rule="evenodd" d="M247.365 328.298C247.365 324.803 250.201 321.966 253.697 321.966C257.193 321.966 260.03 324.803 260.03 328.298C260.03 331.794 257.193 334.631 253.697 334.631C250.201 334.631 247.365 331.794 247.365 328.298ZM248.787 328.298C248.787 325.588 250.987 323.388 253.697 323.388C256.408 323.388 258.607 325.588 258.607 328.298C258.607 331.009 256.408 333.208 253.697 333.208C250.987 333.208 248.787 331.009 248.787 328.298Z" fill="#FF6060"/>
<path d="M358.324 163.991C346.242 159.125 330.532 156.444 314.091 156.444C297.65 156.444 281.94 159.125 269.858 163.991C262.718 166.867 257.266 170.382 253.697 174.325C250.129 170.382 244.677 166.868 237.537 163.992C225.454 159.125 209.745 156.444 193.304 156.444C176.862 156.444 161.153 159.125 149.071 163.991C135.483 169.464 128 177.246 128 185.905V303.746C128 312.404 135.483 320.187 149.071 325.66C160.308 330.186 174.684 332.817 189.867 333.164V333.206C189.867 350.002 217.308 362.667 253.697 362.667C290.087 362.667 317.528 350.002 317.528 333.206V333.164C332.711 332.817 347.087 330.186 358.324 325.66C371.912 320.187 379.395 312.404 379.395 303.746V185.905C379.395 177.246 371.912 169.464 358.324 163.991ZM369.575 274.286C369.575 278.477 363.858 283.384 354.655 287.09C344.695 291.102 331.323 293.529 317.528 293.877V274.286C317.528 274.271 317.527 274.257 317.527 274.243C332.71 273.897 347.086 271.266 358.325 266.739C362.735 264.963 366.498 262.942 369.575 260.727L369.575 274.286ZM248.787 215.365C248.787 219.557 243.071 224.463 233.868 228.17C223.082 232.514 208.297 235.005 193.304 235.005C178.31 235.005 163.525 232.514 152.739 228.17C143.537 224.463 137.82 219.557 137.82 215.365V201.806C140.897 204.021 144.66 206.042 149.071 207.818C161.153 212.685 176.862 215.365 193.304 215.365C209.745 215.365 225.454 212.685 237.537 207.818C241.948 206.042 245.71 204.021 248.787 201.806V215.365ZM149.071 237.279C161.153 242.145 176.862 244.825 193.304 244.825C209.745 244.825 225.454 242.145 237.537 237.279C241.948 235.502 245.71 233.481 248.787 231.267V244.912C236.085 245.342 223.903 247.427 214.05 250.897C204.168 254.378 197.056 259.019 193.189 264.464C178.235 264.451 163.498 261.963 152.739 257.63C143.537 253.923 137.82 249.017 137.82 244.825V231.267C140.897 233.481 144.66 235.502 149.071 237.279ZM137.82 260.727C140.897 262.942 144.66 264.963 149.071 266.739C160.309 271.265 174.685 273.897 189.868 274.243C189.868 274.258 189.867 274.272 189.867 274.286V293.877C176.071 293.529 162.7 291.102 152.74 287.09C143.537 283.384 137.82 278.477 137.82 274.286V260.727ZM200.206 271.873C203.845 263.405 224.848 254.646 253.697 254.646C282.547 254.646 303.55 263.405 307.185 271.864C307.537 272.689 307.708 273.481 307.708 274.286C307.708 278.603 302.386 283.398 293.471 287.112C282.926 291.506 268.801 293.926 253.697 293.926C238.594 293.926 224.468 291.506 213.923 287.112C205.009 283.398 199.687 278.603 199.687 274.286C199.687 273.481 199.858 272.689 200.206 271.873ZM369.575 244.825C369.575 249.017 363.858 253.923 354.655 257.63C343.897 261.963 329.16 264.451 314.207 264.464C310.343 259.022 303.23 254.379 293.345 250.897C283.492 247.427 271.31 245.342 258.607 244.912V231.267C261.685 233.481 265.447 235.502 269.858 237.279C281.94 242.145 297.65 244.825 314.091 244.825C330.532 244.825 346.242 242.145 358.324 237.279C362.735 235.502 366.497 233.481 369.575 231.267V244.825ZM369.575 215.365C369.575 219.557 363.858 224.463 354.655 228.17C343.869 232.514 329.084 235.005 314.091 235.005C299.098 235.005 284.313 232.514 273.527 228.17C264.324 224.463 258.607 219.557 258.607 215.365V201.806C261.685 204.021 265.447 206.042 269.858 207.818C281.94 212.685 297.65 215.365 314.091 215.365C330.532 215.365 346.242 212.685 358.324 207.818C362.735 206.042 366.497 204.021 369.575 201.806V215.365ZM273.527 173.1C284.313 168.756 299.098 166.265 314.091 166.265C329.084 166.265 343.869 168.756 354.655 173.1C363.858 176.807 369.575 181.713 369.575 185.905C369.575 190.096 363.858 195.003 354.655 198.709C343.869 203.054 329.084 205.545 314.091 205.545C299.098 205.545 284.313 203.054 273.527 198.709C264.324 195.003 258.607 190.096 258.607 185.905C258.607 181.713 264.324 176.807 273.527 173.1ZM152.739 173.1C163.525 168.756 178.31 166.265 193.304 166.265C208.297 166.265 223.082 168.756 233.868 173.1C243.071 176.807 248.787 181.713 248.787 185.905C248.787 190.096 243.071 195.003 233.868 198.709C223.082 203.054 208.297 205.545 193.304 205.545C178.31 205.545 163.525 203.054 152.739 198.709C143.537 195.003 137.82 190.096 137.82 185.905C137.82 181.713 143.537 176.807 152.739 173.1ZM152.739 316.55C143.537 312.844 137.82 307.938 137.82 303.746V290.187C140.897 292.402 144.66 294.423 149.071 296.199C160.308 300.725 174.684 303.357 189.867 303.704V323.338C176.071 322.989 162.699 320.562 152.739 316.55ZM293.471 346.033C282.926 350.427 268.801 352.847 253.697 352.847C238.594 352.847 224.468 350.427 213.923 346.033C205.009 342.318 199.687 337.523 199.687 333.206V319.934C200.799 320.739 202.028 321.539 203.391 322.327C211.016 326.739 221.39 330.003 233.393 331.765C233.635 331.8 233.875 331.817 234.113 331.817C236.509 331.817 238.606 330.061 238.964 327.62C239.358 324.937 237.502 322.443 234.82 322.049C212 318.699 199.687 310.119 199.687 303.746V290.43C210.8 298.562 230.417 303.746 253.697 303.746C276.977 303.746 296.595 298.562 307.708 290.43V303.746C307.708 310.119 295.394 318.699 272.575 322.049C269.892 322.443 268.036 324.937 268.43 327.62C268.789 330.061 270.886 331.817 273.282 331.817C273.519 331.817 273.76 331.8 274.001 331.765C286.004 330.003 296.378 326.74 304.004 322.327C305.366 321.539 306.596 320.739 307.708 319.934V333.206C307.708 337.523 302.386 342.318 293.471 346.033ZM354.655 316.55C344.695 320.562 331.323 322.989 317.528 323.338V303.703C332.711 303.357 347.087 300.725 358.324 296.199C362.735 294.422 366.497 292.401 369.575 290.187V303.746C369.575 307.938 363.858 312.844 354.655 316.55Z" fill="#FF6060"/>
<path fill-rule="evenodd" clip-rule="evenodd" d="M269.326 162.672C281.616 157.723 297.513 155.023 314.091 155.023C330.668 155.023 346.566 157.723 358.855 162.672L358.324 163.992C346.241 159.125 330.532 156.445 314.091 156.445C297.65 156.445 281.94 159.125 269.858 163.992C263.346 166.614 258.238 169.769 254.683 173.295C254.34 173.635 254.011 173.979 253.697 174.326C253.383 173.979 253.055 173.635 252.712 173.295C249.157 169.769 244.049 166.615 237.537 163.992C225.454 159.125 209.745 156.445 193.304 156.445C176.862 156.445 161.153 159.125 149.07 163.992C135.483 169.464 128 177.247 128 185.905V303.746C128 312.405 135.483 320.187 149.07 325.66L148.539 326.979C134.822 321.454 126.578 313.326 126.578 303.746V185.905C126.578 176.325 134.822 168.197 148.539 162.672C160.829 157.723 176.726 155.023 193.304 155.023C209.881 155.023 225.779 157.723 238.068 162.673C244.681 165.336 249.966 168.574 253.697 172.269C257.428 168.574 262.713 165.336 269.326 162.672ZM189.867 333.164C174.684 332.818 160.308 330.186 149.07 325.66L148.539 326.979C159.638 331.449 173.678 334.08 188.498 334.55C189.189 343.213 196.545 350.452 207.54 355.526C219.185 360.901 235.359 364.089 253.697 364.089C272.036 364.089 288.21 360.901 299.855 355.526C310.849 350.452 318.206 343.213 318.897 334.55C333.717 334.08 347.757 331.449 358.855 326.979C372.572 321.454 380.817 313.326 380.817 303.746V185.905C380.817 176.325 372.572 168.197 358.855 162.672L358.324 163.992C371.912 169.464 379.395 177.247 379.395 185.905V303.746C379.395 312.405 371.912 320.187 358.324 325.66C347.086 330.186 332.711 332.818 317.528 333.164V333.207C317.528 350.002 290.087 362.667 253.697 362.667C217.308 362.667 189.867 350.002 189.867 333.207V333.164ZM148.539 209.138C145.055 207.735 141.948 206.174 139.242 204.475V215.365C139.242 216.83 140.276 218.743 142.755 220.87C145.181 222.953 148.762 225.035 153.271 226.851C163.846 231.11 178.442 233.583 193.304 233.583C208.165 233.583 222.761 231.11 233.337 226.851C237.845 225.035 241.426 222.953 243.852 220.87C246.331 218.743 247.365 216.83 247.365 215.365V204.475C244.659 206.174 241.552 207.735 238.068 209.138C225.779 214.088 209.881 216.788 193.304 216.788C176.726 216.788 160.829 214.088 148.539 209.138ZM139.242 202.784C142.034 204.619 145.317 206.307 149.07 207.819C161.153 212.685 176.862 215.365 193.304 215.365C209.745 215.365 225.454 212.685 237.537 207.819C241.29 206.307 244.573 204.619 247.365 202.784C247.854 202.463 248.328 202.137 248.787 201.807V215.365C248.787 219.557 243.07 224.463 233.868 228.17C223.082 232.514 208.297 235.006 193.304 235.006C178.31 235.006 163.525 232.514 152.739 228.17C143.537 224.463 137.82 219.557 137.82 215.365V201.807C138.279 202.137 138.753 202.463 139.242 202.784ZM213.578 249.556C223.236 246.155 235.045 244.078 247.365 243.544V233.935C244.659 235.634 241.552 237.195 238.068 238.598C225.779 243.548 209.881 246.248 193.304 246.248C176.726 246.248 160.829 243.548 148.539 238.598C145.055 237.195 141.948 235.634 139.242 233.935V244.826C139.242 246.29 140.276 248.203 142.755 250.331C145.181 252.413 148.762 254.495 153.271 256.311C163.649 260.491 177.898 262.949 192.471 263.04C196.658 257.526 203.911 252.961 213.578 249.556ZM193.189 264.465C178.235 264.452 163.498 261.963 152.739 257.63C143.537 253.924 137.82 249.017 137.82 244.826V231.267C138.279 231.597 138.753 231.923 139.242 232.245C142.034 234.079 145.317 235.767 149.07 237.279C161.153 242.145 176.862 244.826 193.304 244.826C209.745 244.826 225.454 242.145 237.537 237.279C241.29 235.767 244.573 234.079 247.365 232.245C247.854 231.923 248.328 231.597 248.787 231.267V244.913C236.085 245.343 223.903 247.428 214.05 250.898C204.168 254.378 197.056 259.02 193.189 264.465ZM274.001 331.765C273.76 331.8 273.519 331.818 273.282 331.818C270.886 331.818 268.789 330.062 268.43 327.62C268.036 324.937 269.892 322.443 272.575 322.049C295.394 318.699 307.708 310.119 307.708 303.746V290.43C307.248 290.767 306.774 291.098 306.286 291.424C294.965 298.982 276.014 303.746 253.697 303.746C231.38 303.746 212.429 298.982 201.109 291.424C200.621 291.098 200.146 290.767 199.687 290.43V303.746C199.687 310.119 212 318.699 234.82 322.049C237.502 322.443 239.358 324.937 238.964 327.62C238.606 330.061 236.509 331.818 234.113 331.818C233.875 331.818 233.635 331.8 233.393 331.765C221.39 330.003 211.016 326.74 203.391 322.328C202.584 321.861 201.825 321.391 201.109 320.917C200.615 320.591 200.141 320.263 199.687 319.934V333.207C199.687 337.524 205.009 342.319 213.923 346.033C224.468 350.427 238.593 352.847 253.697 352.847C268.801 352.847 282.926 350.427 293.471 346.033C302.386 342.319 307.708 337.524 307.708 333.207V319.934C307.254 320.263 306.78 320.591 306.286 320.917C305.569 321.39 304.81 321.861 304.004 322.328C296.378 326.74 286.004 330.003 274.001 331.765ZM306.286 322.61C305.782 322.928 305.259 323.244 304.716 323.558C296.888 328.088 286.326 331.394 274.208 333.172C273.898 333.218 273.588 333.24 273.282 333.24C270.191 333.24 267.486 330.977 267.023 327.827M306.286 322.61V333.207C306.286 334.776 305.3 336.7 302.981 338.789C300.693 340.85 297.288 342.902 292.924 344.72C282.599 349.023 268.671 351.425 253.697 351.425C238.724 351.425 224.796 349.023 214.47 344.72C210.106 342.902 206.702 340.85 204.414 338.789C202.095 336.7 201.109 334.776 201.109 333.207V322.61C201.613 322.928 202.136 323.244 202.679 323.559M201.109 293.122V303.746C201.109 304.878 201.662 306.291 203.044 307.895C204.418 309.488 206.526 311.167 209.397 312.794C215.135 316.045 223.739 318.985 235.026 320.642C238.486 321.15 240.879 324.367 240.371 327.827L238.964 327.62M201.109 293.122C212.83 300.596 231.743 305.169 253.697 305.169C275.652 305.169 294.565 300.596 306.286 293.122M153.271 315.232C162.686 319.024 175.293 321.397 188.444 321.872V305.088C173.644 304.614 159.625 301.984 148.539 297.519C145.055 296.116 141.948 294.555 139.242 292.856V303.746C139.242 305.211 140.276 307.124 142.755 309.251C145.181 311.334 148.762 313.416 153.271 315.232ZM137.82 303.746C137.82 307.938 143.537 312.844 152.739 316.551C162.357 320.425 175.155 322.821 188.444 323.295C188.918 323.312 189.392 323.326 189.867 323.339V303.704C174.684 303.358 160.308 300.726 149.07 296.2C145.317 294.688 142.034 293 139.242 291.165C138.753 290.844 138.279 290.518 137.82 290.188V303.746ZM364.64 279.791C367.118 277.664 368.152 275.75 368.152 274.286L368.153 263.395C365.447 265.095 362.34 266.655 358.856 268.059C347.77 272.524 333.75 275.154 318.95 275.628V292.411C332.101 291.937 344.709 289.563 354.124 285.771C358.632 283.955 362.213 281.873 364.64 279.791ZM318.95 293.834C332.239 293.36 345.038 290.964 354.655 287.091C363.858 283.384 369.575 278.478 369.575 274.286L369.575 260.727C369.116 261.058 368.642 261.384 368.153 261.705C365.361 263.539 362.078 265.228 358.325 266.739C347.086 271.266 332.71 273.898 317.527 274.244L317.528 274.286V293.878C318.003 293.866 318.477 293.851 318.95 293.834ZM318.949 274.217C318.949 274.223 318.949 274.233 318.949 274.244L318.949 274.217ZM137.82 260.727V274.286C137.82 278.478 143.537 283.384 152.74 287.091C162.357 290.964 175.155 293.36 188.445 293.834C188.918 293.851 189.392 293.866 189.867 293.878V274.287L189.868 274.244C174.685 273.897 160.309 271.265 149.07 266.739C145.317 265.228 142.034 263.539 139.242 261.705C138.753 261.384 138.279 261.058 137.82 260.727ZM139.242 263.395C141.948 265.095 145.055 266.655 148.539 268.059C159.625 272.523 173.645 275.153 188.445 275.628V292.411C175.294 291.937 162.686 289.563 153.271 285.771C148.762 283.955 145.181 281.873 142.755 279.791C140.276 277.664 139.242 275.75 139.242 274.286V263.395ZM188.446 274.216L188.446 274.244C188.446 274.222 188.447 274.205 188.446 274.216ZM206.847 266.782C204.025 268.719 202.274 270.665 201.514 272.433C201.233 273.091 201.109 273.694 201.109 274.286C201.109 275.856 202.095 277.779 204.414 279.869C206.702 281.93 210.106 283.981 214.47 285.8C224.796 290.102 238.724 292.504 253.697 292.504C268.671 292.504 282.599 290.102 292.924 285.8C297.288 283.981 300.693 281.93 302.981 279.869C305.3 277.779 306.286 275.856 306.286 274.286C306.286 273.694 306.162 273.092 305.877 272.423C305.118 270.658 303.368 268.714 300.546 266.778C297.745 264.857 293.999 263.02 289.428 261.426C280.289 258.239 267.987 256.068 253.697 256.068C239.407 256.068 227.106 258.239 217.966 261.427C213.395 263.022 209.648 264.859 206.847 266.782ZM200.206 271.874C203.845 263.405 224.848 254.646 253.697 254.646C282.547 254.646 303.55 263.405 307.184 271.864C307.537 272.689 307.708 273.481 307.708 274.286C307.708 278.603 302.386 283.398 293.471 287.113C282.926 291.507 268.801 293.926 253.697 293.926C238.593 293.926 224.468 291.507 213.923 287.113C205.009 283.398 199.687 278.603 199.687 274.286C199.687 273.481 199.858 272.689 200.206 271.874ZM364.64 250.331C367.118 248.203 368.152 246.29 368.152 244.826V233.935C365.446 235.634 362.339 237.195 358.855 238.598C346.566 243.548 330.668 246.248 314.091 246.248C297.513 246.248 281.616 243.548 269.326 238.598C265.843 237.195 262.735 235.634 260.03 233.935V243.544C272.35 244.078 284.159 246.154 293.817 249.556C303.487 252.962 310.74 257.529 314.925 263.04C329.497 262.949 343.746 260.491 354.124 256.311C358.632 254.495 362.213 252.413 364.64 250.331ZM314.207 264.465C310.343 259.023 303.23 254.379 293.344 250.898C283.491 247.427 271.31 245.343 258.607 244.913V231.267C259.066 231.597 259.54 231.923 260.03 232.245C262.821 234.079 266.105 235.767 269.858 237.279C281.94 242.145 297.65 244.826 314.091 244.826C330.532 244.826 346.241 242.145 358.324 237.279C362.077 235.767 365.361 234.079 368.152 232.245C368.642 231.923 369.116 231.597 369.575 231.267V244.826C369.575 249.017 363.858 253.924 354.655 257.63C343.897 261.963 329.16 264.452 314.207 264.465ZM364.64 220.87C367.118 218.743 368.152 216.83 368.152 215.365V204.475C365.446 206.174 362.339 207.735 358.855 209.138C346.566 214.088 330.668 216.788 314.091 216.788C297.513 216.788 281.616 214.088 269.326 209.138C265.843 207.735 262.735 206.174 260.03 204.475V215.365C260.03 216.83 261.064 218.743 263.542 220.87C265.969 222.953 269.549 225.035 274.058 226.851C284.634 231.11 299.229 233.583 314.091 233.583C328.953 233.583 343.548 231.11 354.124 226.851C358.632 225.035 362.213 222.953 364.64 220.87ZM258.607 215.365C258.607 219.557 264.324 224.463 273.527 228.17C284.312 232.514 299.098 235.006 314.091 235.006C329.084 235.006 343.869 232.514 354.655 228.17C363.858 224.463 369.575 219.557 369.575 215.365V201.807C369.116 202.137 368.642 202.463 368.152 202.784C365.361 204.619 362.077 206.307 358.324 207.819C346.241 212.685 330.532 215.365 314.091 215.365C297.65 215.365 281.94 212.685 269.858 207.819C266.105 206.307 262.821 204.619 260.03 202.784C259.54 202.463 259.066 202.137 258.607 201.807V215.365ZM314.091 167.687C299.229 167.687 284.634 170.16 274.058 174.42C269.549 176.236 265.969 178.318 263.542 180.4C261.064 182.527 260.03 184.441 260.03 185.905C260.03 187.369 261.064 189.283 263.542 191.41C265.969 193.492 269.549 195.574 274.058 197.39C284.634 201.65 299.229 204.123 314.091 204.123C328.953 204.123 343.548 201.65 354.124 197.39C358.632 195.574 362.213 193.492 364.64 191.41C367.118 189.283 368.152 187.369 368.152 185.905C368.152 184.441 367.118 182.527 364.64 180.4C362.213 178.318 358.632 176.236 354.124 174.42C343.548 170.16 328.953 167.687 314.091 167.687ZM193.304 167.687C178.442 167.687 163.846 170.16 153.271 174.42C148.762 176.236 145.181 178.318 142.755 180.4C140.276 182.527 139.242 184.441 139.242 185.905C139.242 187.369 140.276 189.283 142.755 191.41C145.181 193.492 148.762 195.574 153.271 197.39C163.846 201.65 178.442 204.123 193.304 204.123C208.165 204.123 222.761 201.65 233.337 197.39C237.845 195.574 241.426 193.492 243.852 191.41C246.331 189.283 247.365 187.369 247.365 185.905C247.365 184.441 246.331 182.527 243.852 180.4C241.426 178.318 237.845 176.236 233.337 174.42C222.761 170.16 208.165 167.687 193.304 167.687ZM318.95 321.872C332.101 321.397 344.709 319.024 354.124 315.232C358.632 313.416 362.213 311.334 364.64 309.251C367.118 307.124 368.152 305.211 368.152 303.746V292.855C365.446 294.554 362.339 296.115 358.855 297.518C347.77 301.983 333.75 304.613 318.95 305.087V321.872ZM318.95 323.295C332.239 322.821 345.038 320.424 354.655 316.551C363.858 312.844 369.575 307.938 369.575 303.746V290.187C369.116 290.518 368.642 290.843 368.152 291.165C365.361 292.999 362.077 294.688 358.324 296.199C347.086 300.725 332.711 303.357 317.528 303.704V323.338C318.003 323.326 318.477 323.312 318.95 323.295ZM314.091 166.265C299.098 166.265 284.312 168.756 273.527 173.101C264.324 176.807 258.607 181.713 258.607 185.905C258.607 190.097 264.324 195.003 273.527 198.71C284.312 203.054 299.098 205.545 314.091 205.545C329.084 205.545 343.869 203.054 354.655 198.71C363.858 195.003 369.575 190.097 369.575 185.905C369.575 181.713 363.858 176.807 354.655 173.101C343.869 168.756 329.084 166.265 314.091 166.265ZM193.304 166.265C178.31 166.265 163.525 168.756 152.739 173.101C143.537 176.807 137.82 181.713 137.82 185.905C137.82 190.097 143.537 195.003 152.739 198.71C163.525 203.054 178.31 205.545 193.304 205.545C208.297 205.545 223.082 203.054 233.868 198.71C243.07 195.003 248.787 190.097 248.787 185.905C248.787 181.713 243.07 176.807 233.868 173.101C223.082 168.756 208.297 166.265 193.304 166.265Z" fill="#FF6060"/>
</g>
</svg>
