<svg width="512" height="512" viewBox="0 0 512 512" fill="none" xmlns="http://www.w3.org/2000/svg">
<path opacity="0.15" d="M416 512H96C42.976 512 0 469.024 0 416V96C0 42.976 42.976 0 96 0H416C469.024 0 512 42.976 512 96V416C512 469.024 469.024 512 416 512Z" fill="#FF6060"/>
<mask id="mask0" mask-type="alpha" maskUnits="userSpaceOnUse" x="128" y="128" width="256" height="256">
<path d="M128 128H384V384H128V128Z" fill="#C4C4C4"/>
</mask>
<g mask="url(#mask0)">
<path d="M351.703 341.333H160.296C146.414 341.333 135.111 330.03 135.111 316.148V205.333C135.111 191.451 146.414 180.148 160.296 180.148H351.703C365.585 180.148 376.888 191.451 376.888 205.333V316.148C376.888 330.03 365.585 341.333 351.703 341.333ZM366.814 205.334C366.814 197.002 360.035 190.222 351.703 190.222H160.296C151.965 190.222 145.185 197.002 145.185 205.334V316.148C145.185 324.479 151.965 331.259 160.296 331.259H351.703C360.034 331.259 366.814 324.479 366.814 316.148V205.334H366.814Z" fill="#FF6060"/>
<path fill-rule="evenodd" clip-rule="evenodd" d="M364.681 205.221V316.148C364.681 323.301 358.856 329.126 351.703 329.126H160.296C153.143 329.126 147.318 323.301 147.318 316.148V205.334C147.318 198.181 153.143 192.356 160.296 192.356H351.703C358.819 192.356 364.62 198.119 364.681 205.221ZM366.664 203.201C365.625 195.876 359.311 190.223 351.703 190.223H160.296C151.965 190.223 145.185 197.003 145.185 205.334V316.148C145.185 324.48 151.965 331.259 160.296 331.259H351.703C360.034 331.259 366.814 324.48 366.814 316.148V205.334C366.814 205.293 366.814 205.252 366.814 205.212C366.809 204.53 366.758 203.858 366.664 203.201ZM160.296 343.467H351.703C366.764 343.467 379.022 331.209 379.021 316.148V205.334C379.021 190.273 366.763 178.015 351.703 178.015H160.296C145.236 178.015 132.978 190.273 132.978 205.334V316.148C132.978 331.209 145.236 343.467 160.296 343.467ZM160.296 341.334H351.703C365.585 341.334 376.888 330.031 376.888 316.148V205.334C376.888 191.452 365.585 180.149 351.703 180.149H160.296C146.414 180.149 135.111 191.452 135.111 205.334V316.148C135.111 330.031 146.414 341.334 160.296 341.334Z" fill="#FF6060"/>
<path d="M371.851 311.113H140.148C137.368 311.113 135.111 308.856 135.111 306.076V275.853C135.111 273.073 137.368 270.816 140.148 270.816H371.852C374.632 270.816 376.889 273.073 376.889 275.853V306.076C376.888 308.856 374.632 311.113 371.851 311.113ZM366.814 280.891H145.185V301.039H366.814V280.891H366.814Z" fill="#FF6060"/>
<path fill-rule="evenodd" clip-rule="evenodd" d="M366.814 280.891V301.039H145.185V280.891H366.814ZM147.318 283.024H364.681V298.906H147.318V283.024ZM140.148 313.247H371.851C375.81 313.247 379.022 310.035 379.022 306.076V275.854C379.022 271.895 375.81 268.683 371.852 268.683H140.148C136.19 268.683 132.978 271.895 132.978 275.854V306.076C132.978 310.035 136.19 313.247 140.148 313.247ZM140.148 311.113H371.851C374.632 311.113 376.888 308.856 376.889 306.076V275.854C376.889 273.073 374.632 270.817 371.852 270.817H140.148C137.368 270.817 135.111 273.073 135.111 275.854V306.076C135.111 308.856 137.368 311.113 140.148 311.113Z" fill="#FF6060"/>
<path d="M230.814 240.595H170.37C167.59 240.595 165.333 238.338 165.333 235.557C165.333 232.777 167.59 230.521 170.37 230.521H230.814C233.595 230.521 235.852 232.777 235.852 235.558C235.852 238.338 233.595 240.595 230.814 240.595Z" fill="#FF6060"/>
<path fill-rule="evenodd" clip-rule="evenodd" d="M170.37 242.728H230.814C234.773 242.728 237.985 239.517 237.985 235.558C237.985 231.6 234.773 228.388 230.814 228.388H170.37C166.412 228.388 163.2 231.599 163.2 235.558C163.2 239.516 166.412 242.728 170.37 242.728ZM170.37 240.595H230.814C233.595 240.595 235.852 238.339 235.852 235.558C235.852 232.778 233.595 230.521 230.814 230.521H170.37C167.59 230.521 165.333 232.777 165.333 235.558C165.333 238.338 167.59 240.595 170.37 240.595Z" fill="#FF6060"/>
<path d="M230.814 220.446H170.37C167.59 220.446 165.333 218.189 165.333 215.409C165.333 212.629 167.59 210.372 170.37 210.372H230.814C233.595 210.372 235.852 212.629 235.852 215.409C235.851 218.189 233.595 220.446 230.814 220.446Z" fill="#FF6060"/>
<path fill-rule="evenodd" clip-rule="evenodd" d="M237.985 215.41V215.409C237.985 211.451 234.773 208.239 230.814 208.239H170.37C166.412 208.239 163.2 211.451 163.2 215.409C163.2 219.368 166.412 222.58 170.37 222.58H230.814C234.773 222.58 237.984 219.368 237.985 215.41ZM170.37 220.447H230.814C233.595 220.447 235.851 218.19 235.852 215.409C235.852 212.629 233.595 210.372 230.814 210.372H170.37C167.59 210.372 165.333 212.629 165.333 215.409C165.333 218.19 167.59 220.447 170.37 220.447Z" fill="#FF6060"/>
<path d="M331.555 250.67H321.481C313.149 250.67 306.37 243.89 306.37 235.559V225.485C306.37 217.154 313.149 210.374 321.481 210.374H331.555C339.886 210.374 346.666 217.154 346.666 225.485V235.559C346.666 243.89 339.886 250.67 331.555 250.67ZM336.592 225.485C336.592 222.704 334.335 220.448 331.555 220.448H321.481C318.7 220.448 316.444 222.704 316.444 225.485V235.559C316.444 238.339 318.7 240.596 321.481 240.596H331.555C334.335 240.596 336.592 238.339 336.592 235.559V225.485Z" fill="#FF6060"/>
<path fill-rule="evenodd" clip-rule="evenodd" d="M321.481 252.804H331.555C341.065 252.804 348.799 245.069 348.799 235.559V225.486C348.799 215.976 341.064 208.241 331.555 208.241H321.481C311.971 208.241 304.237 215.976 304.237 225.486V235.559C304.237 245.069 311.971 252.804 321.481 252.804ZM331.555 222.581C333.157 222.581 334.459 223.883 334.459 225.485V235.559C334.459 237.161 333.157 238.463 331.555 238.463H321.481C319.879 238.463 318.577 237.161 318.577 235.559V225.485C318.577 223.883 319.879 222.581 321.481 222.581H331.555ZM321.481 250.67H331.555C339.886 250.67 346.666 243.89 346.666 235.559V225.486C346.666 217.154 339.886 210.374 331.555 210.374H321.481C313.15 210.374 306.37 217.154 306.37 225.486V235.559C306.37 243.891 313.15 250.67 321.481 250.67ZM331.555 220.448C334.335 220.448 336.592 222.705 336.592 225.485V235.559C336.592 238.339 334.335 240.596 331.555 240.596H321.481C318.701 240.596 316.444 238.339 316.444 235.559V225.485C316.444 222.705 318.701 220.448 321.481 220.448H331.555Z" fill="#FF6060"/>
</g>
</svg>
