<svg width="512" height="512" viewBox="0 0 512 512" fill="none" xmlns="http://www.w3.org/2000/svg">
<path opacity="0.15" d="M416 512H96C42.976 512 0 469.024 0 416V96C0 42.976 42.976 0 96 0H416C469.024 0 512 42.976 512 96V416C512 469.024 469.024 512 416 512Z" fill="#FF6060"/>
<mask id="mask0" mask-type="alpha" maskUnits="userSpaceOnUse" x="128" y="128" width="256" height="256">
<path d="M128 128H384V384H128V128Z" fill="#C4C4C4"/>
</mask>
<g mask="url(#mask0)">
<path d="M358.445 135.111C344.342 135.059 332.89 147.026 332.84 161.762C332.84 168.712 335.391 175.4 340.041 180.365L293.282 278.135C292.282 277.978 291.232 277.821 290.182 277.821C286.881 277.821 283.58 278.5 280.53 279.807L244.223 237.114C246.323 233.195 247.473 228.805 247.523 224.259C247.523 209.471 236.071 197.504 221.918 197.504C207.766 197.504 196.313 209.471 196.313 224.259C196.363 230.634 198.564 236.801 202.615 241.608L158.156 322.865C156.656 322.552 155.105 322.395 153.605 322.395C139.452 322.395 128 334.362 128 349.15C128 363.938 139.452 375.905 153.605 375.905C167.758 375.905 179.21 363.938 179.21 349.15C179.16 342.775 176.96 336.609 172.909 331.801L217.317 250.544C222.068 251.537 227.019 251.014 231.47 249.028L267.777 291.721C265.677 295.64 264.577 300.082 264.527 304.576C264.477 319.364 275.929 331.383 290.032 331.435C304.184 331.488 315.687 319.521 315.737 304.785C315.737 297.835 313.186 291.094 308.535 286.078L355.294 188.307C356.295 188.464 357.345 188.621 358.395 188.621C372.548 188.621 384 176.654 384 161.866C384 147.078 372.598 135.111 358.445 135.111Z" fill="#FF6060"/>
</g>
</svg>
