<svg width="1394" height="529" viewBox="0 0 1394 529" fill="none" xmlns="http://www.w3.org/2000/svg">
<g clip-path="url(#clip0_662_3122)">
<path fill-rule="evenodd" clip-rule="evenodd" d="M383.68 97.0089C383.68 97.2428 383.615 97.4715 383.495 97.6661C383.374 97.8606 383.203 98.0122 383.002 98.1018C382.801 98.1913 382.581 98.2148 382.368 98.1691C382.155 98.1235 381.959 98.0108 381.806 97.8454C381.652 97.68 381.548 97.4692 381.505 97.2397C381.463 97.0103 381.485 96.7724 381.568 96.5563C381.651 96.3402 381.792 96.1554 381.972 96.0255C382.153 95.8955 382.365 95.8261 382.582 95.8262C382.873 95.8262 383.152 95.9508 383.358 96.1726C383.564 96.3944 383.679 96.6952 383.68 97.0089V97.0089Z" fill="#68B7E7"/>
<path fill-rule="evenodd" clip-rule="evenodd" d="M362.379 224.245C362.379 224.479 362.315 224.708 362.194 224.902C362.073 225.097 361.902 225.249 361.701 225.338C361.501 225.428 361.28 225.451 361.067 225.406C360.854 225.36 360.659 225.247 360.505 225.082C360.352 224.916 360.247 224.706 360.205 224.476C360.162 224.247 360.184 224.009 360.267 223.793C360.35 223.576 360.491 223.392 360.671 223.262C360.852 223.132 361.064 223.062 361.281 223.063C361.426 223.063 361.568 223.093 361.701 223.153C361.835 223.212 361.956 223.299 362.057 223.409C362.159 223.519 362.24 223.649 362.295 223.793C362.351 223.936 362.379 224.09 362.379 224.245V224.245Z" fill="#68B7E7"/>
<path fill-rule="evenodd" clip-rule="evenodd" d="M519.695 287.443C519.695 287.677 519.631 287.905 519.51 288.1C519.39 288.294 519.218 288.446 519.018 288.535C518.817 288.625 518.596 288.648 518.383 288.602C518.17 288.557 517.975 288.444 517.821 288.279C517.668 288.113 517.563 287.903 517.521 287.673C517.479 287.444 517.5 287.206 517.584 286.99C517.667 286.774 517.807 286.589 517.988 286.459C518.168 286.329 518.381 286.26 518.598 286.26C518.742 286.26 518.885 286.29 519.018 286.35C519.151 286.409 519.272 286.496 519.374 286.606C519.476 286.716 519.557 286.846 519.612 286.99C519.667 287.134 519.695 287.287 519.695 287.443V287.443Z" fill="#68B7E7"/>
<path fill-rule="evenodd" clip-rule="evenodd" d="M550.754 432.401C550.754 432.635 550.69 432.864 550.569 433.059C550.448 433.253 550.277 433.405 550.076 433.494C549.876 433.584 549.655 433.607 549.442 433.562C549.229 433.516 549.034 433.403 548.88 433.238C548.727 433.073 548.622 432.862 548.58 432.632C548.537 432.403 548.559 432.165 548.642 431.949C548.725 431.733 548.866 431.548 549.047 431.418C549.227 431.288 549.439 431.219 549.656 431.219C549.947 431.219 550.227 431.343 550.432 431.565C550.638 431.787 550.754 432.088 550.754 432.401V432.401Z" fill="#68B7E7"/>
<path fill-rule="evenodd" clip-rule="evenodd" d="M450.59 239.013C450.59 239.247 450.525 239.475 450.405 239.67C450.284 239.864 450.113 240.016 449.912 240.105C449.712 240.195 449.491 240.218 449.278 240.173C449.065 240.127 448.87 240.014 448.716 239.849C448.563 239.684 448.458 239.473 448.416 239.244C448.373 239.014 448.395 238.776 448.478 238.56C448.561 238.344 448.702 238.159 448.882 238.029C449.063 237.899 449.275 237.83 449.492 237.83C449.636 237.83 449.779 237.861 449.912 237.92C450.045 237.979 450.166 238.067 450.268 238.176C450.37 238.286 450.451 238.417 450.506 238.56C450.561 238.704 450.59 238.857 450.59 239.013V239.013Z" fill="#406FBB"/>
<path fill-rule="evenodd" clip-rule="evenodd" d="M398.696 212.05C398.696 212.284 398.631 212.512 398.511 212.707C398.39 212.902 398.219 213.053 398.018 213.143C397.817 213.232 397.597 213.256 397.384 213.21C397.171 213.164 396.975 213.052 396.822 212.886C396.668 212.721 396.564 212.51 396.521 212.281C396.479 212.051 396.5 211.814 396.583 211.597C396.667 211.381 396.807 211.197 396.988 211.067C397.168 210.937 397.381 210.867 397.598 210.867C397.889 210.867 398.168 210.992 398.374 211.214C398.58 211.435 398.696 211.736 398.696 212.05V212.05Z" fill="#406FBB"/>
<path fill-rule="evenodd" clip-rule="evenodd" d="M334.234 158.009C334.234 158.243 334.17 158.471 334.049 158.666C333.929 158.861 333.757 159.012 333.557 159.102C333.356 159.191 333.136 159.215 332.923 159.169C332.71 159.123 332.514 159.011 332.361 158.845C332.207 158.68 332.103 158.469 332.06 158.24C332.018 158.01 332.039 157.773 332.123 157.556C332.206 157.34 332.346 157.156 332.527 157.026C332.707 156.896 332.919 156.826 333.137 156.826C333.281 156.826 333.423 156.857 333.557 156.916C333.69 156.976 333.811 157.063 333.913 157.172C334.015 157.282 334.096 157.413 334.151 157.556C334.206 157.7 334.234 157.854 334.234 158.009V158.009Z" fill="#365CBB"/>
<path d="M266.762 70.7306C267.368 70.7306 267.859 70.2011 267.859 69.5479C267.859 68.8947 267.368 68.3652 266.762 68.3652C266.155 68.3652 265.664 68.8947 265.664 69.5479C265.664 70.2011 266.155 70.7306 266.762 70.7306Z" fill="#365CBB"/>
<path fill-rule="evenodd" clip-rule="evenodd" d="M397.597 29.0929C397.597 29.4066 397.482 29.7074 397.276 29.9293C397.07 30.1511 396.791 30.2758 396.5 30.2758C396.356 30.2758 396.213 30.2452 396.08 30.1858C395.947 30.1263 395.826 30.0392 395.724 29.9293C395.622 29.8195 395.541 29.689 395.486 29.5455C395.431 29.402 395.402 29.2482 395.402 29.0929C395.402 28.9375 395.431 28.7837 395.486 28.6402C395.541 28.4967 395.622 28.3663 395.724 28.2565C395.826 28.1467 395.947 28.0596 396.08 28.0001C396.213 27.9407 396.356 27.9101 396.5 27.9102C396.644 27.9102 396.787 27.9407 396.92 28.0002C397.053 28.0596 397.174 28.1467 397.276 28.2566C397.378 28.3664 397.459 28.4968 397.514 28.6403C397.569 28.7837 397.597 28.9375 397.597 29.0929V29.0929Z" fill="#365CBB"/>
<path fill-rule="evenodd" clip-rule="evenodd" d="M467.359 237.833C467.359 238.067 467.295 238.296 467.174 238.49C467.053 238.685 466.882 238.836 466.681 238.926C466.481 239.015 466.26 239.039 466.047 238.993C465.834 238.947 465.639 238.835 465.485 238.669C465.332 238.504 465.227 238.293 465.185 238.064C465.143 237.834 465.165 237.597 465.248 237.38C465.331 237.164 465.471 236.98 465.652 236.85C465.832 236.72 466.045 236.65 466.262 236.65C466.406 236.65 466.548 236.681 466.682 236.74C466.815 236.8 466.936 236.887 467.038 236.997C467.14 237.107 467.221 237.237 467.276 237.381C467.331 237.524 467.359 237.678 467.359 237.833Z" fill="#365CBB"/>
<path d="M475.344 20.4165C475.95 20.4165 476.441 19.8869 476.441 19.2336C476.441 18.5804 475.95 18.0508 475.344 18.0508C474.738 18.0508 474.246 18.5804 474.246 19.2336C474.246 19.8869 474.738 20.4165 475.344 20.4165Z" fill="#365CBB"/>
<path fill-rule="evenodd" clip-rule="evenodd" d="M255.516 512.958C255.516 513.192 255.451 513.421 255.331 513.615C255.21 513.81 255.039 513.961 254.838 514.051C254.638 514.14 254.417 514.164 254.204 514.118C253.991 514.073 253.795 513.96 253.642 513.794C253.488 513.629 253.384 513.418 253.341 513.189C253.299 512.959 253.321 512.722 253.404 512.505C253.487 512.289 253.628 512.105 253.808 511.975C253.989 511.845 254.201 511.775 254.418 511.775C254.562 511.775 254.705 511.806 254.838 511.865C254.971 511.925 255.092 512.012 255.194 512.122C255.296 512.232 255.377 512.362 255.432 512.505C255.487 512.649 255.516 512.803 255.516 512.958Z" fill="#90FFFF"/>
<path fill-rule="evenodd" clip-rule="evenodd" d="M515.77 45.1144C515.77 45.4281 515.654 45.7289 515.448 45.9508C515.242 46.1726 514.963 46.2973 514.672 46.2973C514.381 46.2973 514.102 46.1726 513.896 45.9508C513.69 45.7289 513.574 45.4281 513.574 45.1144C513.574 44.8007 513.69 44.4998 513.896 44.278C514.102 44.0562 514.381 43.9316 514.672 43.9316C514.963 43.9316 515.242 44.0562 515.448 44.278C515.654 44.4998 515.77 44.8007 515.77 45.1144V45.1144Z" fill="#406FBB"/>
<path fill-rule="evenodd" clip-rule="evenodd" d="M506.309 201.952C506.309 202.186 506.244 202.415 506.124 202.61C506.003 202.804 505.831 202.956 505.631 203.045C505.43 203.135 505.21 203.158 504.997 203.112C504.784 203.067 504.588 202.954 504.435 202.789C504.281 202.623 504.177 202.413 504.134 202.183C504.092 201.954 504.114 201.716 504.197 201.5C504.28 201.284 504.421 201.099 504.601 200.969C504.782 200.839 504.994 200.77 505.211 200.77C505.355 200.77 505.498 200.8 505.631 200.86C505.764 200.919 505.885 201.006 505.987 201.116C506.089 201.226 506.17 201.356 506.225 201.5C506.28 201.643 506.309 201.797 506.309 201.952V201.952Z" fill="#406FBB"/>
<path fill-rule="evenodd" clip-rule="evenodd" d="M225.992 145.247C225.992 145.481 225.928 145.71 225.807 145.904C225.687 146.099 225.515 146.251 225.315 146.34C225.114 146.43 224.893 146.453 224.68 146.407C224.468 146.362 224.272 146.249 224.118 146.084C223.965 145.918 223.86 145.707 223.818 145.478C223.776 145.249 223.797 145.011 223.88 144.795C223.964 144.578 224.104 144.394 224.285 144.264C224.465 144.134 224.678 144.064 224.895 144.064C225.186 144.064 225.465 144.189 225.671 144.411C225.877 144.633 225.992 144.933 225.992 145.247V145.247Z" fill="#406FBB"/>
<path fill-rule="evenodd" clip-rule="evenodd" d="M672.419 34.515C672.419 34.8287 672.303 35.1295 672.097 35.3513C671.891 35.5731 671.612 35.6977 671.321 35.6977C671.177 35.6977 671.034 35.6672 670.901 35.6077C670.767 35.5483 670.646 35.4612 670.544 35.3514C670.442 35.2415 670.361 35.1112 670.306 34.9677C670.251 34.8241 670.223 34.6703 670.223 34.515C670.223 34.2013 670.338 33.9004 670.544 33.6785C670.75 33.4567 671.029 33.332 671.321 33.332C671.612 33.3321 671.891 33.4567 672.097 33.6786C672.303 33.9004 672.419 34.2013 672.419 34.515V34.515Z" fill="#406FBB"/>
<path fill-rule="evenodd" clip-rule="evenodd" d="M283.957 207.126C283.957 207.36 283.892 207.589 283.772 207.783C283.651 207.978 283.48 208.129 283.279 208.219C283.079 208.308 282.858 208.332 282.645 208.286C282.432 208.24 282.237 208.128 282.083 207.962C281.93 207.797 281.825 207.586 281.783 207.357C281.74 207.127 281.762 206.89 281.845 206.673C281.928 206.457 282.069 206.273 282.25 206.143C282.43 206.013 282.642 205.943 282.859 205.943C283.003 205.943 283.146 205.974 283.279 206.033C283.413 206.093 283.534 206.18 283.635 206.29C283.737 206.4 283.818 206.53 283.873 206.674C283.929 206.817 283.957 206.971 283.957 207.126V207.126Z" fill="#406FBB"/>
<path fill-rule="evenodd" clip-rule="evenodd" d="M384.937 527.626C384.937 527.86 384.873 528.089 384.753 528.283C384.632 528.478 384.46 528.629 384.26 528.719C384.059 528.808 383.839 528.832 383.626 528.786C383.413 528.74 383.217 528.628 383.064 528.462C382.91 528.297 382.806 528.086 382.763 527.857C382.721 527.627 382.743 527.39 382.826 527.173C382.909 526.957 383.049 526.773 383.23 526.643C383.41 526.513 383.623 526.443 383.84 526.443C384.131 526.443 384.41 526.568 384.616 526.79C384.822 527.012 384.937 527.312 384.937 527.626V527.626Z" fill="#406FBB"/>
<path fill-rule="evenodd" clip-rule="evenodd" d="M748.344 19.2728C748.344 19.5865 748.228 19.8873 748.022 20.1091C747.817 20.3309 747.537 20.4555 747.246 20.4555C747.102 20.4555 746.959 20.425 746.826 20.3655C746.693 20.3061 746.572 20.219 746.47 20.1092C746.368 19.9994 746.287 19.869 746.232 19.7255C746.177 19.5819 746.148 19.4281 746.148 19.2728C746.148 19.1174 746.177 18.9636 746.232 18.8201C746.287 18.6765 746.368 18.5461 746.47 18.4363C746.572 18.3264 746.693 18.2393 746.826 18.1798C746.959 18.1204 747.102 18.0898 747.246 18.0898C747.39 18.0899 747.533 18.1205 747.666 18.1799C747.8 18.2394 747.921 18.3265 748.022 18.4364C748.124 18.5462 748.205 18.6766 748.26 18.8201C748.316 18.9637 748.344 19.1175 748.344 19.2728V19.2728Z" fill="#406FBB"/>
<path fill-rule="evenodd" clip-rule="evenodd" d="M298.336 61.2276C298.336 61.4616 298.272 61.6903 298.151 61.8848C298.031 62.0793 297.859 62.231 297.659 62.3205C297.458 62.4101 297.237 62.4335 297.024 62.3879C296.811 62.3423 296.616 62.2296 296.462 62.0642C296.309 61.8988 296.204 61.6881 296.162 61.4586C296.119 61.2292 296.141 60.9914 296.224 60.7752C296.307 60.5591 296.448 60.3743 296.628 60.2443C296.809 60.1143 297.021 60.0449 297.238 60.0449C297.529 60.0449 297.809 60.1695 298.015 60.3913C298.22 60.6131 298.336 60.9139 298.336 61.2276V61.2276Z" fill="#406FBB"/>
<path fill-rule="evenodd" clip-rule="evenodd" d="M511.625 362.749C511.625 362.983 511.561 363.212 511.44 363.406C511.319 363.601 511.148 363.752 510.947 363.842C510.747 363.931 510.526 363.955 510.313 363.909C510.1 363.864 509.905 363.751 509.751 363.585C509.598 363.42 509.493 363.209 509.451 362.98C509.408 362.75 509.43 362.513 509.513 362.297C509.596 362.08 509.737 361.896 509.918 361.766C510.098 361.636 510.31 361.566 510.527 361.566C510.818 361.566 511.098 361.691 511.303 361.913C511.509 362.135 511.625 362.435 511.625 362.749V362.749Z" fill="#406FBB"/>
<path fill-rule="evenodd" clip-rule="evenodd" d="M162.309 199.657C162.309 199.891 162.244 200.12 162.124 200.314C162.003 200.509 161.832 200.66 161.631 200.75C161.43 200.84 161.21 200.863 160.997 200.817C160.784 200.772 160.588 200.659 160.435 200.494C160.281 200.328 160.177 200.118 160.134 199.888C160.092 199.659 160.114 199.421 160.197 199.205C160.28 198.989 160.421 198.804 160.601 198.674C160.782 198.544 160.994 198.475 161.211 198.475C161.502 198.475 161.781 198.599 161.987 198.821C162.193 199.043 162.309 199.344 162.309 199.657Z" fill="#406FBB"/>
<path fill-rule="evenodd" clip-rule="evenodd" d="M187.207 31.464C187.207 31.7776 187.091 32.0785 186.886 32.3003C186.68 32.5221 186.401 32.6467 186.11 32.6467C185.818 32.6467 185.539 32.5221 185.333 32.3003C185.127 32.0785 185.012 31.7777 185.012 31.464C185.012 31.3086 185.04 31.1548 185.095 31.0113C185.151 30.8678 185.231 30.7374 185.333 30.6276C185.435 30.5178 185.556 30.4306 185.689 30.3712C185.823 30.3118 185.965 30.2812 186.11 30.2813C186.254 30.2812 186.396 30.3118 186.53 30.3712C186.663 30.4307 186.784 30.5178 186.886 30.6276C186.988 30.7374 187.068 30.8678 187.124 31.0113C187.179 31.1548 187.207 31.3086 187.207 31.464V31.464Z" fill="#406FBB"/>
<path fill-rule="evenodd" clip-rule="evenodd" d="M421.07 310.528C421.071 310.762 421.006 310.991 420.886 311.186C420.765 311.38 420.594 311.532 420.393 311.621C420.192 311.711 419.972 311.734 419.759 311.689C419.546 311.643 419.35 311.53 419.197 311.365C419.043 311.2 418.938 310.989 418.896 310.759C418.854 310.53 418.875 310.292 418.959 310.076C419.042 309.86 419.182 309.675 419.363 309.545C419.544 309.415 419.756 309.346 419.973 309.346C420.264 309.346 420.543 309.47 420.749 309.692C420.955 309.914 421.07 310.215 421.07 310.528V310.528Z" fill="#406FBB"/>
<path fill-rule="evenodd" clip-rule="evenodd" d="M335.332 114.876C335.332 115.11 335.268 115.339 335.147 115.533C335.027 115.728 334.855 115.879 334.655 115.969C334.454 116.058 334.233 116.082 334.02 116.036C333.807 115.991 333.612 115.878 333.458 115.713C333.305 115.547 333.2 115.336 333.158 115.107C333.115 114.877 333.137 114.64 333.22 114.423C333.303 114.207 333.444 114.023 333.625 113.893C333.805 113.763 334.017 113.693 334.235 113.693C334.526 113.693 334.805 113.818 335.011 114.04C335.216 114.262 335.332 114.562 335.332 114.876V114.876Z" fill="#406FBB"/>
<path fill-rule="evenodd" clip-rule="evenodd" d="M591.938 397.015C591.938 397.249 591.873 397.477 591.753 397.672C591.632 397.866 591.461 398.018 591.26 398.108C591.059 398.197 590.839 398.221 590.626 398.175C590.413 398.129 590.217 398.017 590.064 397.851C589.91 397.686 589.806 397.475 589.763 397.246C589.721 397.016 589.743 396.778 589.826 396.562C589.909 396.346 590.05 396.161 590.23 396.031C590.411 395.901 590.623 395.832 590.84 395.832C591.131 395.832 591.41 395.957 591.616 396.179C591.822 396.4 591.938 396.701 591.938 397.015V397.015Z" fill="#406FBB"/>
<path fill-rule="evenodd" clip-rule="evenodd" d="M528.508 119.62C528.508 119.854 528.444 120.083 528.323 120.278C528.202 120.472 528.031 120.624 527.83 120.713C527.63 120.803 527.409 120.826 527.196 120.78C526.983 120.735 526.788 120.622 526.634 120.457C526.481 120.291 526.376 120.081 526.334 119.851C526.291 119.622 526.313 119.384 526.396 119.168C526.479 118.952 526.62 118.767 526.8 118.637C526.981 118.507 527.193 118.438 527.41 118.438C527.554 118.437 527.697 118.468 527.83 118.528C527.963 118.587 528.084 118.674 528.186 118.784C528.288 118.894 528.369 119.024 528.424 119.168C528.48 119.311 528.508 119.465 528.508 119.62V119.62Z" fill="#68B7E7"/>
<path fill-rule="evenodd" clip-rule="evenodd" d="M582.328 129.449C582.328 129.682 582.264 129.911 582.143 130.106C582.023 130.3 581.851 130.452 581.651 130.541C581.45 130.631 581.229 130.654 581.016 130.608C580.804 130.563 580.608 130.45 580.454 130.285C580.301 130.119 580.196 129.909 580.154 129.679C580.112 129.45 580.133 129.212 580.216 128.996C580.299 128.78 580.44 128.595 580.621 128.465C580.801 128.335 581.013 128.266 581.231 128.266C581.375 128.266 581.517 128.296 581.651 128.356C581.784 128.415 581.905 128.502 582.007 128.612C582.109 128.722 582.19 128.852 582.245 128.996C582.3 129.139 582.328 129.293 582.328 129.449V129.449Z" fill="#406FBB"/>
<path fill-rule="evenodd" clip-rule="evenodd" d="M455.961 436.04C455.961 436.274 455.896 436.503 455.776 436.697C455.655 436.892 455.484 437.043 455.283 437.133C455.083 437.222 454.862 437.246 454.649 437.2C454.436 437.154 454.241 437.042 454.087 436.876C453.934 436.711 453.829 436.5 453.787 436.271C453.744 436.041 453.766 435.804 453.849 435.588C453.932 435.371 454.073 435.187 454.253 435.057C454.434 434.927 454.646 434.857 454.863 434.857C455.007 434.857 455.15 434.888 455.283 434.947C455.416 435.007 455.537 435.094 455.639 435.204C455.741 435.314 455.822 435.444 455.877 435.588C455.932 435.731 455.961 435.885 455.961 436.04V436.04Z" fill="#406FBB"/>
<path fill-rule="evenodd" clip-rule="evenodd" d="M250.375 164.827C250.375 165.061 250.311 165.29 250.19 165.484C250.069 165.679 249.898 165.831 249.697 165.92C249.497 166.01 249.276 166.033 249.063 165.987C248.85 165.942 248.655 165.829 248.501 165.664C248.348 165.498 248.243 165.288 248.201 165.058C248.158 164.829 248.18 164.591 248.263 164.375C248.346 164.159 248.487 163.974 248.668 163.844C248.848 163.714 249.06 163.645 249.277 163.645C249.569 163.645 249.848 163.769 250.053 163.991C250.259 164.213 250.375 164.514 250.375 164.827V164.827Z" fill="#90FFFF"/>
<path d="M351.766 180.285C352.372 180.285 352.863 179.756 352.863 179.103C352.863 178.449 352.372 177.92 351.766 177.92C351.159 177.92 350.668 178.449 350.668 179.103C350.668 179.756 351.159 180.285 351.766 180.285Z" fill="#90FFFF"/>
<path fill-rule="evenodd" clip-rule="evenodd" d="M341.855 30.2767C341.855 30.5904 341.74 30.8912 341.534 31.113C341.328 31.3348 341.049 31.4594 340.758 31.4594C340.467 31.4594 340.187 31.3348 339.982 31.113C339.776 30.8912 339.66 30.5904 339.66 30.2767C339.66 30.1214 339.688 29.9676 339.744 29.824C339.799 29.6805 339.88 29.5501 339.982 29.4403C340.083 29.3304 340.204 29.2433 340.338 29.1838C340.471 29.1244 340.614 29.0938 340.758 29.0938C341.049 29.0938 341.328 29.2184 341.534 29.4402C341.74 29.6621 341.855 29.963 341.855 30.2767V30.2767Z" fill="#90FFFF"/>
<path fill-rule="evenodd" clip-rule="evenodd" d="M156.652 119.585C156.652 119.819 156.588 120.048 156.467 120.242C156.346 120.437 156.175 120.588 155.974 120.678C155.774 120.767 155.553 120.791 155.34 120.745C155.127 120.699 154.932 120.587 154.778 120.421C154.625 120.256 154.52 120.045 154.478 119.816C154.436 119.586 154.458 119.348 154.541 119.132C154.624 118.916 154.764 118.732 154.945 118.602C155.125 118.472 155.338 118.402 155.555 118.402C155.699 118.402 155.841 118.433 155.975 118.492C156.108 118.552 156.229 118.639 156.331 118.749C156.433 118.859 156.513 118.989 156.569 119.133C156.624 119.276 156.652 119.43 156.652 119.585Z" fill="#90FFFF"/>
<path fill-rule="evenodd" clip-rule="evenodd" d="M418.672 350.876C418.672 351.11 418.607 351.339 418.487 351.533C418.366 351.728 418.195 351.879 417.994 351.969C417.794 352.058 417.573 352.082 417.36 352.036C417.147 351.99 416.952 351.878 416.798 351.712C416.645 351.547 416.54 351.336 416.498 351.107C416.455 350.877 416.477 350.64 416.56 350.423C416.643 350.207 416.784 350.023 416.964 349.893C417.145 349.763 417.357 349.693 417.574 349.693C417.865 349.693 418.144 349.818 418.35 350.04C418.556 350.262 418.672 350.562 418.672 350.876V350.876Z" fill="#B7FFFF"/>
<path fill-rule="evenodd" clip-rule="evenodd" d="M373.25 73.2337C373.25 73.4677 373.186 73.6964 373.065 73.8909C372.945 74.0854 372.773 74.237 372.572 74.3265C372.372 74.416 372.151 74.4394 371.938 74.3938C371.725 74.3481 371.53 74.2355 371.376 74.0701C371.223 73.9046 371.118 73.6939 371.076 73.4644C371.033 73.235 371.055 72.9972 371.138 72.781C371.221 72.5649 371.362 72.3802 371.542 72.2502C371.723 72.1202 371.935 72.0508 372.152 72.0508C372.296 72.0508 372.439 72.0814 372.572 72.1408C372.706 72.2003 372.827 72.2874 372.929 72.3972C373.031 72.5071 373.111 72.6375 373.167 72.781C373.222 72.9246 373.25 73.0784 373.25 73.2337V73.2337Z" fill="#90FFFF"/>
<path fill-rule="evenodd" clip-rule="evenodd" d="M581.23 235.023C581.23 235.256 581.166 235.485 581.045 235.68C580.925 235.874 580.753 236.026 580.553 236.115C580.352 236.205 580.132 236.228 579.919 236.183C579.706 236.137 579.51 236.024 579.357 235.859C579.203 235.693 579.099 235.483 579.056 235.253C579.014 235.024 579.036 234.786 579.119 234.57C579.202 234.354 579.342 234.169 579.523 234.039C579.703 233.909 579.916 233.84 580.133 233.84C580.424 233.84 580.703 233.965 580.909 234.186C581.115 234.408 581.23 234.709 581.23 235.023V235.023Z" fill="#90FFFF"/>
<path fill-rule="evenodd" clip-rule="evenodd" d="M358.469 354.761C358.469 354.995 358.404 355.223 358.284 355.418C358.163 355.612 357.992 355.764 357.791 355.854C357.591 355.943 357.37 355.966 357.157 355.921C356.944 355.875 356.748 355.763 356.595 355.597C356.441 355.432 356.337 355.221 356.295 354.992C356.252 354.762 356.274 354.524 356.357 354.308C356.44 354.092 356.581 353.907 356.761 353.777C356.942 353.647 357.154 353.578 357.371 353.578C357.662 353.578 357.941 353.703 358.147 353.925C358.353 354.146 358.469 354.447 358.469 354.761V354.761Z" fill="#90FFFF"/>
<path fill-rule="evenodd" clip-rule="evenodd" d="M206.965 365.077C206.965 365.311 206.9 365.54 206.78 365.735C206.659 365.929 206.488 366.081 206.287 366.17C206.087 366.26 205.866 366.283 205.653 366.237C205.44 366.192 205.245 366.079 205.091 365.914C204.938 365.748 204.833 365.538 204.791 365.308C204.748 365.079 204.77 364.841 204.853 364.625C204.936 364.409 205.077 364.224 205.257 364.094C205.438 363.964 205.65 363.895 205.867 363.895C206.011 363.895 206.154 363.925 206.287 363.985C206.42 364.044 206.541 364.131 206.643 364.241C206.745 364.351 206.826 364.481 206.881 364.625C206.937 364.768 206.965 364.922 206.965 365.077Z" fill="#90FFFF"/>
<path fill-rule="evenodd" clip-rule="evenodd" d="M580.133 12.3721C580.133 12.5275 580.104 12.6813 580.049 12.8248C579.994 12.9683 579.913 13.0987 579.811 13.2086C579.709 13.3184 579.588 13.4056 579.455 13.465C579.322 13.5245 579.179 13.5551 579.035 13.5551C578.891 13.5551 578.748 13.5245 578.615 13.4651C578.482 13.4057 578.361 13.3185 578.259 13.2087C578.157 13.0988 578.076 12.9684 578.021 12.8249C577.966 12.6813 577.937 12.5275 577.938 12.3721C577.938 12.2168 577.966 12.063 578.021 11.9195C578.076 11.776 578.157 11.6456 578.259 11.5358C578.361 11.426 578.482 11.3388 578.615 11.2794C578.748 11.22 578.891 11.1894 579.035 11.1895C579.326 11.1895 579.605 11.3141 579.811 11.5359C580.017 11.7577 580.133 12.0585 580.133 12.3721V12.3721Z" fill="#90FFFF"/>
<path fill-rule="evenodd" clip-rule="evenodd" d="M505.703 96.9698C505.703 97.2038 505.639 97.4325 505.518 97.627C505.398 97.8215 505.226 97.9732 505.026 98.0627C504.825 98.1523 504.604 98.1757 504.391 98.1301C504.178 98.0844 503.983 97.9718 503.829 97.8063C503.676 97.6409 503.571 97.4301 503.529 97.2007C503.487 96.9712 503.508 96.7334 503.591 96.5172C503.674 96.3011 503.815 96.1164 503.996 95.9864C504.176 95.8564 504.388 95.7871 504.606 95.7871C504.897 95.7872 505.176 95.9118 505.382 96.1336C505.587 96.3554 505.703 96.6562 505.703 96.9698V96.9698Z" fill="#90FFFF"/>
<path fill-rule="evenodd" clip-rule="evenodd" d="M468.457 164.827C468.457 165.061 468.393 165.29 468.272 165.484C468.152 165.679 467.98 165.831 467.78 165.92C467.579 166.01 467.358 166.033 467.145 165.987C466.932 165.942 466.737 165.829 466.583 165.664C466.43 165.498 466.325 165.288 466.283 165.058C466.24 164.829 466.262 164.591 466.345 164.375C466.428 164.159 466.569 163.974 466.749 163.844C466.93 163.714 467.142 163.645 467.359 163.645C467.503 163.645 467.646 163.675 467.779 163.735C467.913 163.794 468.034 163.881 468.136 163.991C468.237 164.101 468.318 164.231 468.374 164.375C468.429 164.518 468.457 164.672 468.457 164.827V164.827Z" fill="#90FFFF"/>
<path fill-rule="evenodd" clip-rule="evenodd" d="M355.047 165.204C355.047 165.438 354.983 165.667 354.862 165.861C354.741 166.056 354.57 166.208 354.369 166.297C354.169 166.387 353.948 166.41 353.735 166.364C353.522 166.319 353.327 166.206 353.173 166.041C353.02 165.875 352.915 165.665 352.873 165.435C352.83 165.206 352.852 164.968 352.935 164.752C353.018 164.535 353.159 164.351 353.339 164.221C353.52 164.091 353.732 164.021 353.949 164.021C354.093 164.021 354.236 164.052 354.369 164.111C354.503 164.171 354.624 164.258 354.725 164.368C354.827 164.478 354.908 164.608 354.963 164.752C355.019 164.895 355.047 165.049 355.047 165.204V165.204Z" fill="#90FFFF"/>
<path fill-rule="evenodd" clip-rule="evenodd" d="M390.344 371.521C390.344 371.754 390.279 371.983 390.159 372.178C390.038 372.372 389.867 372.524 389.666 372.613C389.466 372.703 389.245 372.726 389.032 372.681C388.819 372.635 388.623 372.522 388.47 372.357C388.316 372.192 388.212 371.981 388.17 371.751C388.127 371.522 388.149 371.284 388.232 371.068C388.315 370.852 388.456 370.667 388.636 370.537C388.817 370.407 389.029 370.338 389.246 370.338C389.537 370.338 389.817 370.462 390.022 370.684C390.228 370.906 390.344 371.207 390.344 371.521V371.521Z" fill="#90FFFF"/>
<path fill-rule="evenodd" clip-rule="evenodd" d="M359.578 269.388C359.578 269.622 359.514 269.85 359.393 270.045C359.273 270.24 359.101 270.391 358.901 270.481C358.7 270.57 358.479 270.594 358.266 270.548C358.053 270.502 357.858 270.39 357.704 270.224C357.551 270.059 357.446 269.848 357.404 269.619C357.362 269.389 357.383 269.152 357.466 268.935C357.549 268.719 357.69 268.534 357.871 268.404C358.051 268.275 358.263 268.205 358.48 268.205C358.771 268.205 359.051 268.33 359.256 268.551C359.462 268.773 359.578 269.074 359.578 269.388Z" fill="#68B7E7"/>
<path fill-rule="evenodd" clip-rule="evenodd" d="M290.477 220.966C290.477 221.2 290.412 221.429 290.292 221.623C290.171 221.818 290 221.969 289.799 222.059C289.599 222.148 289.378 222.172 289.165 222.126C288.952 222.081 288.756 221.968 288.603 221.802C288.449 221.637 288.345 221.426 288.302 221.197C288.26 220.967 288.282 220.729 288.365 220.513C288.448 220.297 288.589 220.112 288.769 219.983C288.95 219.853 289.162 219.783 289.379 219.783C289.67 219.783 289.949 219.908 290.155 220.13C290.361 220.351 290.477 220.652 290.477 220.966V220.966Z" fill="#406FBB"/>
<path fill-rule="evenodd" clip-rule="evenodd" d="M238.578 194.003C238.578 194.237 238.514 194.466 238.393 194.66C238.272 194.855 238.101 195.006 237.9 195.096C237.7 195.185 237.479 195.209 237.266 195.163C237.053 195.117 236.858 195.005 236.704 194.839C236.551 194.674 236.446 194.463 236.404 194.234C236.362 194.004 236.383 193.766 236.466 193.55C236.549 193.334 236.69 193.15 236.871 193.02C237.051 192.89 237.263 192.82 237.481 192.82C237.625 192.82 237.767 192.851 237.901 192.91C238.034 192.97 238.155 193.057 238.257 193.167C238.359 193.277 238.44 193.407 238.495 193.551C238.55 193.694 238.578 193.848 238.578 194.003V194.003Z" fill="#406FBB"/>
<path fill-rule="evenodd" clip-rule="evenodd" d="M174.121 139.958C174.121 140.192 174.057 140.421 173.936 140.615C173.816 140.81 173.644 140.962 173.444 141.051C173.243 141.141 173.022 141.164 172.809 141.119C172.597 141.073 172.401 140.96 172.247 140.795C172.094 140.629 171.989 140.419 171.947 140.189C171.905 139.96 171.926 139.722 172.009 139.506C172.092 139.29 172.233 139.105 172.414 138.975C172.594 138.845 172.806 138.775 173.023 138.775C173.314 138.775 173.594 138.9 173.8 139.122C174.005 139.344 174.121 139.644 174.121 139.958V139.958Z" fill="#365CBB"/>
<path fill-rule="evenodd" clip-rule="evenodd" d="M107.742 51.4952C107.742 51.6505 107.714 51.8044 107.659 51.9479C107.603 52.0914 107.523 52.2218 107.421 52.3317C107.319 52.4415 107.198 52.5286 107.065 52.5881C106.931 52.6475 106.789 52.6782 106.644 52.6782C106.5 52.6782 106.358 52.6475 106.224 52.5881C106.091 52.5286 105.97 52.4415 105.868 52.3317C105.766 52.2218 105.686 52.0914 105.63 51.9479C105.575 51.8044 105.547 51.6505 105.547 51.4952C105.547 51.1815 105.663 50.8807 105.868 50.6589C106.074 50.4371 106.353 50.3125 106.644 50.3125C106.936 50.3125 107.215 50.4371 107.421 50.6589C107.626 50.8807 107.742 51.1815 107.742 51.4952Z" fill="#365CBB"/>
<path fill-rule="evenodd" clip-rule="evenodd" d="M237.48 11.0482C237.48 11.3619 237.365 11.6627 237.159 11.8845C236.953 12.1063 236.674 12.2309 236.383 12.2309C236.092 12.2309 235.813 12.1063 235.607 11.8845C235.401 11.6627 235.285 11.3619 235.285 11.0482C235.285 10.7345 235.401 10.4336 235.607 10.2118C235.813 9.98993 236.092 9.86528 236.383 9.86523C236.674 9.86529 236.953 9.98995 237.159 10.2118C237.365 10.4336 237.48 10.7345 237.48 11.0482V11.0482Z" fill="#365CBB"/>
<path fill-rule="evenodd" clip-rule="evenodd" d="M126.227 318.263C126.227 318.497 126.162 318.725 126.042 318.92C125.921 319.114 125.75 319.266 125.549 319.356C125.349 319.445 125.128 319.469 124.915 319.423C124.702 319.377 124.506 319.265 124.353 319.099C124.199 318.934 124.095 318.723 124.052 318.494C124.01 318.264 124.032 318.027 124.115 317.81C124.198 317.594 124.339 317.409 124.519 317.279C124.7 317.15 124.912 317.08 125.129 317.08C125.42 317.08 125.699 317.205 125.905 317.427C126.111 317.648 126.227 317.949 126.227 318.263V318.263Z" fill="#365CBB"/>
<path fill-rule="evenodd" clip-rule="evenodd" d="M307.242 219.783C307.242 220.017 307.178 220.245 307.057 220.44C306.937 220.634 306.765 220.786 306.565 220.875C306.364 220.965 306.143 220.988 305.93 220.943C305.718 220.897 305.522 220.784 305.368 220.619C305.215 220.453 305.11 220.243 305.068 220.013C305.026 219.784 305.047 219.546 305.13 219.33C305.213 219.114 305.354 218.929 305.535 218.799C305.715 218.669 305.927 218.6 306.144 218.6C306.289 218.6 306.431 218.63 306.565 218.69C306.698 218.749 306.819 218.836 306.921 218.946C307.023 219.056 307.104 219.186 307.159 219.33C307.214 219.473 307.242 219.627 307.242 219.783V219.783Z" fill="#365CBB"/>
<path fill-rule="evenodd" clip-rule="evenodd" d="M316.328 1.18297C316.328 1.33828 316.3 1.49207 316.245 1.63557C316.19 1.77906 316.109 1.90944 316.007 2.01926C315.905 2.12909 315.784 2.21621 315.651 2.27565C315.518 2.33508 315.375 2.36567 315.231 2.36567C314.94 2.36568 314.66 2.24109 314.454 2.0193C314.249 1.7975 314.133 1.49667 314.133 1.18297C314.133 0.869239 314.249 0.568371 314.454 0.346533C314.66 0.124695 314.94 4.7136e-05 315.231 0C315.522 5.38795e-05 315.801 0.124713 316.007 0.346557C316.213 0.568402 316.328 0.869265 316.328 1.18297V1.18297Z" fill="#365CBB"/>
<path fill-rule="evenodd" clip-rule="evenodd" d="M65.8791 127.2C65.8791 127.434 65.8147 127.663 65.6941 127.857C65.5735 128.052 65.4021 128.204 65.2015 128.293C65.0009 128.383 64.7802 128.406 64.5672 128.361C64.3543 128.315 64.1587 128.202 64.0051 128.037C63.8516 127.871 63.747 127.661 63.7047 127.431C63.6623 127.202 63.6841 126.964 63.7672 126.748C63.8503 126.532 63.991 126.347 64.1715 126.217C64.3521 126.087 64.5643 126.018 64.7814 126.018C65.0725 126.018 65.3517 126.142 65.5575 126.364C65.7634 126.586 65.879 126.887 65.8791 127.2V127.2Z" fill="#406FBB"/>
<path fill-rule="evenodd" clip-rule="evenodd" d="M123.844 189.079C123.844 189.313 123.779 189.542 123.659 189.736C123.538 189.931 123.367 190.082 123.166 190.172C122.965 190.261 122.745 190.285 122.532 190.239C122.319 190.194 122.123 190.081 121.97 189.916C121.816 189.75 121.712 189.539 121.67 189.31C121.627 189.081 121.649 188.843 121.732 188.627C121.815 188.41 121.956 188.226 122.136 188.096C122.317 187.966 122.529 187.896 122.746 187.896C123.037 187.897 123.316 188.021 123.522 188.243C123.728 188.465 123.843 188.766 123.844 189.079V189.079Z" fill="#406FBB"/>
<path fill-rule="evenodd" clip-rule="evenodd" d="M138.219 43.181C138.219 43.4947 138.103 43.7955 137.897 44.0173C137.691 44.2391 137.412 44.3637 137.121 44.3637C136.83 44.3637 136.551 44.2391 136.345 44.0173C136.139 43.7955 136.023 43.4947 136.023 43.181C136.023 42.8673 136.139 42.5664 136.345 42.3445C136.551 42.1227 136.83 41.9981 137.121 41.998C137.265 41.9981 137.408 42.0287 137.541 42.0881C137.674 42.1476 137.795 42.2347 137.897 42.3446C137.999 42.4544 138.08 42.5848 138.135 42.7283C138.19 42.8719 138.219 43.0257 138.219 43.181V43.181Z" fill="#406FBB"/>
<path fill-rule="evenodd" clip-rule="evenodd" d="M132.18 354.659C132.18 354.893 132.115 355.122 131.995 355.317C131.874 355.511 131.703 355.663 131.502 355.752C131.302 355.842 131.081 355.865 130.868 355.819C130.655 355.774 130.459 355.661 130.306 355.496C130.152 355.33 130.048 355.12 130.005 354.89C129.963 354.661 129.985 354.423 130.068 354.207C130.151 353.991 130.292 353.806 130.472 353.676C130.653 353.546 130.865 353.477 131.082 353.477C131.373 353.477 131.652 353.601 131.858 353.823C132.064 354.045 132.18 354.346 132.18 354.659V354.659Z" fill="#406FBB"/>
<path fill-rule="evenodd" clip-rule="evenodd" d="M2.19534 181.61C2.19537 181.844 2.13102 182.073 2.01043 182.268C1.88983 182.462 1.71843 182.614 1.51786 182.703C1.3173 182.793 1.09658 182.816 0.883645 182.771C0.670713 182.725 0.475129 182.612 0.321601 182.447C0.168073 182.282 0.0634828 182.071 0.0211062 181.841C-0.0212705 181.612 0.000477016 181.374 0.0835355 181.158C0.166594 180.942 0.307246 180.757 0.487744 180.627C0.668241 180.497 0.880445 180.428 1.09754 180.428C1.24169 180.428 1.38446 180.458 1.51765 180.518C1.65083 180.577 1.77183 180.664 1.87377 180.774C1.97572 180.884 2.05659 181.014 2.11177 181.158C2.16694 181.301 2.19534 181.455 2.19534 181.61V181.61Z" fill="#406FBB"/>
<path fill-rule="evenodd" clip-rule="evenodd" d="M27.0938 13.4112C27.0939 13.7249 26.9782 14.0258 26.7724 14.2477C26.5666 14.4695 26.2874 14.5942 25.9963 14.5942C25.7051 14.5942 25.4259 14.4696 25.22 14.2477C25.0141 14.0259 24.8984 13.725 24.8984 13.4112C24.8984 13.2559 24.9268 13.1021 24.982 12.9586C25.0372 12.8151 25.1181 12.6847 25.22 12.5749C25.322 12.465 25.443 12.3779 25.5762 12.3185C25.7094 12.2591 25.8521 12.2285 25.9963 12.2285C26.2874 12.2285 26.5665 12.3531 26.7724 12.5749C26.9782 12.7967 27.0938 13.0976 27.0938 13.4112Z" fill="#406FBB"/>
<path fill-rule="evenodd" clip-rule="evenodd" d="M175.219 96.8233C175.219 97.0573 175.154 97.286 175.034 97.4805C174.913 97.6751 174.742 97.8267 174.541 97.9162C174.341 98.0058 174.12 98.0292 173.907 97.9836C173.694 97.9379 173.498 97.8253 173.345 97.6598C173.191 97.4944 173.087 97.2836 173.045 97.0542C173.002 96.8247 173.024 96.5869 173.107 96.3707C173.19 96.1546 173.331 95.9699 173.511 95.8399C173.692 95.7099 173.904 95.6406 174.121 95.6406C174.412 95.6406 174.692 95.7652 174.897 95.987C175.103 96.2088 175.219 96.5097 175.219 96.8233Z" fill="#406FBB"/>
<path fill-rule="evenodd" clip-rule="evenodd" d="M90.2657 146.771C90.2657 147.004 90.2014 147.233 90.0808 147.428C89.9602 147.622 89.7887 147.774 89.5881 147.863C89.3875 147.953 89.1668 147.976 88.9539 147.931C88.7409 147.885 88.5453 147.772 88.3918 147.607C88.2383 147.442 88.1337 147.231 88.0914 147.001C88.049 146.772 88.0708 146.534 88.1539 146.318C88.237 146.102 88.3777 145.917 88.5582 145.787C88.7388 145.657 88.951 145.588 89.1681 145.588C89.4592 145.588 89.7384 145.712 89.9442 145.934C90.1501 146.156 90.2657 146.457 90.2657 146.771Z" fill="#90FFFF"/>
<path fill-rule="evenodd" clip-rule="evenodd" d="M181.742 12.2315C181.742 12.5452 181.627 12.8461 181.421 13.0679C181.215 13.2897 180.936 13.4142 180.645 13.4142C180.353 13.4142 180.074 13.2896 179.868 13.0678C179.663 12.846 179.547 12.5452 179.547 12.2315C179.547 11.9179 179.663 11.617 179.868 11.3952C180.074 11.1734 180.353 11.0488 180.645 11.0488C180.936 11.0488 181.215 11.1734 181.421 11.3952C181.627 11.617 181.742 11.9178 181.742 12.2315V12.2315Z" fill="#90FFFF"/>
<path fill-rule="evenodd" clip-rule="evenodd" d="M258.555 332.829C258.555 333.063 258.491 333.292 258.37 333.486C258.249 333.681 258.078 333.833 257.877 333.922C257.677 334.012 257.456 334.035 257.243 333.989C257.03 333.944 256.835 333.831 256.681 333.666C256.527 333.5 256.423 333.29 256.38 333.06C256.338 332.831 256.36 332.593 256.443 332.377C256.526 332.161 256.667 331.976 256.847 331.846C257.028 331.716 257.24 331.647 257.457 331.646C257.601 331.646 257.744 331.677 257.877 331.736C258.01 331.796 258.131 331.883 258.233 331.993C258.335 332.103 258.416 332.233 258.471 332.377C258.526 332.52 258.555 332.674 258.555 332.829V332.829Z" fill="#B7FFFF"/>
<path fill-rule="evenodd" clip-rule="evenodd" d="M198.352 336.71C198.352 336.944 198.287 337.173 198.167 337.367C198.046 337.562 197.875 337.713 197.674 337.803C197.474 337.892 197.253 337.916 197.04 337.87C196.827 337.825 196.631 337.712 196.478 337.547C196.324 337.381 196.22 337.17 196.177 336.941C196.135 336.712 196.157 336.474 196.24 336.258C196.323 336.041 196.464 335.857 196.644 335.727C196.825 335.597 197.037 335.527 197.254 335.527C197.545 335.527 197.824 335.652 198.03 335.874C198.236 336.096 198.352 336.396 198.352 336.71V336.71Z" fill="#90FFFF"/>
<path fill-rule="evenodd" clip-rule="evenodd" d="M46.8517 347.026C46.8517 347.26 46.7874 347.489 46.6668 347.684C46.5462 347.878 46.3747 348.03 46.1742 348.119C45.9736 348.209 45.7529 348.232 45.5399 348.187C45.327 348.141 45.1314 348.028 44.9778 347.863C44.8243 347.698 44.7197 347.487 44.6774 347.257C44.635 347.028 44.6567 346.79 44.7398 346.574C44.8228 346.358 44.9635 346.173 45.144 346.043C45.3245 345.913 45.5368 345.844 45.7539 345.844C45.898 345.844 46.0408 345.874 46.174 345.934C46.3071 345.993 46.4282 346.08 46.5301 346.19C46.6321 346.3 46.7129 346.43 46.7681 346.574C46.8233 346.717 46.8517 346.871 46.8517 347.026Z" fill="#90FFFF"/>
<path fill-rule="evenodd" clip-rule="evenodd" d="M345.586 78.9229C345.586 79.1569 345.522 79.3856 345.401 79.5801C345.28 79.7747 345.109 79.9263 344.908 80.0158C344.708 80.1054 344.487 80.1288 344.274 80.0832C344.061 80.0375 343.866 79.9249 343.712 79.7595C343.559 79.594 343.454 79.3833 343.412 79.1538C343.369 78.9243 343.391 78.6865 343.474 78.4704C343.557 78.2542 343.698 78.0695 343.879 77.9395C344.059 77.8096 344.271 77.7402 344.488 77.7402C344.633 77.7402 344.775 77.7708 344.908 77.8302C345.042 77.8896 345.163 77.9768 345.265 78.0866C345.367 78.1964 345.447 78.3268 345.503 78.4703C345.558 78.6138 345.586 78.7676 345.586 78.9229V78.9229Z" fill="#90FFFF"/>
<path fill-rule="evenodd" clip-rule="evenodd" d="M308.34 146.771C308.34 147.004 308.276 147.233 308.155 147.428C308.034 147.622 307.863 147.774 307.662 147.863C307.462 147.953 307.241 147.976 307.028 147.931C306.815 147.885 306.62 147.772 306.466 147.607C306.313 147.442 306.208 147.231 306.166 147.001C306.123 146.772 306.145 146.534 306.228 146.318C306.311 146.102 306.452 145.917 306.633 145.787C306.813 145.657 307.025 145.588 307.242 145.588C307.534 145.588 307.813 145.712 308.019 145.934C308.224 146.156 308.34 146.457 308.34 146.771V146.771Z" fill="#90FFFF"/>
<path fill-rule="evenodd" clip-rule="evenodd" d="M198.477 155.491C198.477 155.725 198.412 155.954 198.292 156.148C198.171 156.343 198 156.495 197.799 156.584C197.599 156.674 197.378 156.697 197.165 156.652C196.952 156.606 196.756 156.493 196.603 156.328C196.449 156.162 196.345 155.952 196.302 155.722C196.26 155.493 196.282 155.255 196.365 155.039C196.448 154.823 196.588 154.638 196.769 154.508C196.949 154.378 197.162 154.309 197.379 154.309C197.523 154.309 197.666 154.339 197.799 154.399C197.932 154.458 198.053 154.545 198.155 154.655C198.257 154.765 198.338 154.895 198.393 155.039C198.448 155.182 198.477 155.336 198.477 155.491V155.491Z" fill="#90FFFF"/>
<path fill-rule="evenodd" clip-rule="evenodd" d="M230.23 353.476C230.23 353.71 230.166 353.938 230.046 354.133C229.925 354.327 229.754 354.479 229.553 354.569C229.352 354.658 229.132 354.682 228.919 354.636C228.706 354.59 228.51 354.478 228.357 354.312C228.203 354.147 228.099 353.936 228.056 353.707C228.014 353.477 228.036 353.239 228.119 353.023C228.202 352.807 228.342 352.622 228.523 352.492C228.703 352.362 228.916 352.293 229.133 352.293C229.277 352.293 229.42 352.324 229.553 352.383C229.686 352.442 229.807 352.529 229.909 352.639C230.011 352.749 230.092 352.88 230.147 353.023C230.202 353.167 230.23 353.32 230.23 353.476V353.476Z" fill="#90FFFF"/>
<path fill-rule="evenodd" clip-rule="evenodd" d="M505.461 347.81C505.461 348.044 505.397 348.272 505.276 348.467C505.155 348.661 504.984 348.813 504.783 348.903C504.583 348.992 504.362 349.016 504.149 348.97C503.936 348.924 503.741 348.812 503.587 348.646C503.434 348.481 503.329 348.27 503.287 348.041C503.244 347.811 503.266 347.573 503.349 347.357C503.432 347.141 503.573 346.956 503.754 346.826C503.934 346.696 504.146 346.627 504.363 346.627C504.655 346.627 504.934 346.752 505.139 346.973C505.345 347.195 505.461 347.496 505.461 347.81V347.81Z" fill="#90FFFF"/>
<path fill-rule="evenodd" clip-rule="evenodd" d="M658.852 198.478C658.852 198.712 658.787 198.94 658.667 199.135C658.546 199.329 658.375 199.481 658.174 199.57C657.974 199.66 657.753 199.683 657.54 199.638C657.327 199.592 657.131 199.48 656.978 199.314C656.824 199.149 656.72 198.938 656.677 198.709C656.635 198.479 656.657 198.241 656.74 198.025C656.823 197.809 656.964 197.624 657.144 197.494C657.324 197.364 657.537 197.295 657.754 197.295C658.045 197.295 658.324 197.42 658.53 197.641C658.736 197.863 658.852 198.164 658.852 198.478V198.478Z" fill="#406FBB"/>
<path fill-rule="evenodd" clip-rule="evenodd" d="M568.301 146.265C568.301 146.499 568.236 146.727 568.116 146.922C567.995 147.116 567.824 147.268 567.623 147.357C567.423 147.447 567.202 147.47 566.989 147.425C566.776 147.379 566.58 147.266 566.427 147.101C566.273 146.936 566.169 146.725 566.127 146.495C566.084 146.266 566.106 146.028 566.189 145.812C566.272 145.596 566.413 145.411 566.593 145.281C566.774 145.151 566.986 145.082 567.203 145.082C567.494 145.082 567.773 145.207 567.979 145.428C568.185 145.65 568.301 145.951 568.301 146.265V146.265Z" fill="#406FBB"/>
<path fill-rule="evenodd" clip-rule="evenodd" d="M87.7383 26.337C87.7383 26.4923 87.7099 26.6461 87.6547 26.7896C87.5995 26.9332 87.5187 27.0635 87.4167 27.1734C87.3148 27.2832 87.1938 27.3703 87.0606 27.4297C86.9274 27.4892 86.7847 27.5197 86.6405 27.5197C86.3494 27.5197 86.0703 27.3951 85.8644 27.1733C85.6586 26.9515 85.543 26.6507 85.543 26.337C85.543 26.0233 85.6586 25.7225 85.8644 25.5007C86.0703 25.2789 86.3494 25.1543 86.6405 25.1543C86.7847 25.1543 86.9274 25.1848 87.0606 25.2443C87.1938 25.3037 87.3148 25.3908 87.4167 25.5006C87.5187 25.6105 87.5995 25.7408 87.6547 25.8843C87.7099 26.0279 87.7383 26.1817 87.7383 26.337Z" fill="#406FBB"/>
<path fill-rule="evenodd" clip-rule="evenodd" d="M490.93 231.605C490.93 231.838 490.866 232.067 490.745 232.262C490.624 232.456 490.453 232.608 490.252 232.697C490.052 232.787 489.831 232.81 489.618 232.765C489.405 232.719 489.21 232.607 489.056 232.441C488.902 232.276 488.798 232.065 488.755 231.836C488.713 231.606 488.735 231.368 488.818 231.152C488.901 230.936 489.042 230.751 489.222 230.621C489.403 230.491 489.615 230.422 489.832 230.422C490.123 230.422 490.402 230.546 490.608 230.768C490.814 230.99 490.93 231.291 490.93 231.605V231.605Z" fill="#406FBB"/>
<path fill-rule="evenodd" clip-rule="evenodd" d="M1029.21 97.0089C1029.21 97.2428 1029.15 97.4715 1029.03 97.6661C1028.91 97.8606 1028.73 98.0122 1028.53 98.1018C1028.33 98.1913 1028.11 98.2148 1027.9 98.1691C1027.69 98.1235 1027.49 98.0108 1027.34 97.8454C1027.18 97.68 1027.08 97.4692 1027.04 97.2397C1026.99 97.0103 1027.02 96.7724 1027.1 96.5563C1027.18 96.3402 1027.32 96.1554 1027.5 96.0255C1027.68 95.8955 1027.9 95.8261 1028.11 95.8262C1028.4 95.8262 1028.68 95.9508 1028.89 96.1726C1029.1 96.3944 1029.21 96.6952 1029.21 97.0089V97.0089Z" fill="#68B7E7"/>
<path fill-rule="evenodd" clip-rule="evenodd" d="M1007.91 224.245C1007.91 224.479 1007.85 224.708 1007.73 224.902C1007.6 225.097 1007.43 225.249 1007.23 225.338C1007.03 225.428 1006.81 225.451 1006.6 225.406C1006.39 225.36 1006.19 225.247 1006.04 225.082C1005.88 224.916 1005.78 224.706 1005.74 224.476C1005.69 224.247 1005.72 224.009 1005.8 223.793C1005.88 223.576 1006.02 223.392 1006.2 223.262C1006.38 223.132 1006.6 223.062 1006.81 223.063C1006.96 223.063 1007.1 223.093 1007.23 223.153C1007.37 223.212 1007.49 223.299 1007.59 223.409C1007.69 223.519 1007.77 223.649 1007.83 223.793C1007.88 223.936 1007.91 224.09 1007.91 224.245V224.245Z" fill="#68B7E7"/>
<path fill-rule="evenodd" clip-rule="evenodd" d="M1165.23 287.443C1165.23 287.677 1165.16 287.905 1165.04 288.1C1164.92 288.294 1164.75 288.446 1164.55 288.535C1164.35 288.625 1164.13 288.648 1163.91 288.602C1163.7 288.557 1163.51 288.444 1163.35 288.279C1163.2 288.113 1163.09 287.903 1163.05 287.673C1163.01 287.444 1163.03 287.206 1163.11 286.99C1163.2 286.774 1163.34 286.589 1163.52 286.459C1163.7 286.329 1163.91 286.26 1164.13 286.26C1164.27 286.26 1164.42 286.29 1164.55 286.35C1164.68 286.409 1164.8 286.496 1164.91 286.606C1165.01 286.716 1165.09 286.846 1165.14 286.99C1165.2 287.134 1165.23 287.287 1165.23 287.443V287.443Z" fill="#68B7E7"/>
<path fill-rule="evenodd" clip-rule="evenodd" d="M1196.29 432.401C1196.29 432.635 1196.22 432.864 1196.1 433.059C1195.98 433.253 1195.81 433.405 1195.61 433.494C1195.41 433.584 1195.19 433.607 1194.97 433.562C1194.76 433.516 1194.56 433.403 1194.41 433.238C1194.26 433.073 1194.15 432.862 1194.11 432.632C1194.07 432.403 1194.09 432.165 1194.17 431.949C1194.26 431.733 1194.4 431.548 1194.58 431.418C1194.76 431.288 1194.97 431.219 1195.19 431.219C1195.48 431.219 1195.76 431.343 1195.96 431.565C1196.17 431.787 1196.29 432.088 1196.29 432.401V432.401Z" fill="#68B7E7"/>
<path fill-rule="evenodd" clip-rule="evenodd" d="M1096.12 239.013C1096.12 239.247 1096.06 239.475 1095.94 239.67C1095.82 239.864 1095.64 240.016 1095.44 240.105C1095.24 240.195 1095.02 240.218 1094.81 240.173C1094.6 240.127 1094.4 240.014 1094.25 239.849C1094.09 239.684 1093.99 239.473 1093.95 239.244C1093.9 239.014 1093.93 238.776 1094.01 238.56C1094.09 238.344 1094.23 238.159 1094.41 238.029C1094.59 237.899 1094.81 237.83 1095.02 237.83C1095.17 237.83 1095.31 237.861 1095.44 237.92C1095.58 237.979 1095.7 238.067 1095.8 238.176C1095.9 238.286 1095.98 238.417 1096.04 238.56C1096.09 238.704 1096.12 238.857 1096.12 239.013V239.013Z" fill="#406FBB"/>
<path fill-rule="evenodd" clip-rule="evenodd" d="M1044.23 212.05C1044.23 212.284 1044.16 212.512 1044.04 212.707C1043.92 212.902 1043.75 213.053 1043.55 213.143C1043.35 213.232 1043.13 213.256 1042.92 213.21C1042.7 213.164 1042.51 213.052 1042.35 212.886C1042.2 212.721 1042.09 212.51 1042.05 212.281C1042.01 212.051 1042.03 211.814 1042.11 211.597C1042.2 211.381 1042.34 211.197 1042.52 211.067C1042.7 210.937 1042.91 210.867 1043.13 210.867C1043.42 210.867 1043.7 210.992 1043.91 211.214C1044.11 211.435 1044.23 211.736 1044.23 212.05V212.05Z" fill="#406FBB"/>
<path fill-rule="evenodd" clip-rule="evenodd" d="M979.766 158.009C979.766 158.243 979.701 158.471 979.581 158.666C979.46 158.861 979.289 159.012 979.088 159.102C978.888 159.191 978.667 159.215 978.454 159.169C978.241 159.123 978.045 159.011 977.892 158.845C977.738 158.68 977.634 158.469 977.591 158.24C977.549 158.01 977.571 157.773 977.654 157.556C977.737 157.34 977.878 157.156 978.058 157.026C978.239 156.896 978.451 156.826 978.668 156.826C978.812 156.826 978.955 156.857 979.088 156.916C979.221 156.976 979.342 157.063 979.444 157.172C979.546 157.282 979.627 157.413 979.682 157.556C979.737 157.7 979.766 157.854 979.766 158.009V158.009Z" fill="#365CBB"/>
<path d="M912.293 70.7306C912.899 70.7306 913.391 70.2011 913.391 69.5479C913.391 68.8947 912.899 68.3652 912.293 68.3652C911.687 68.3652 911.195 68.8947 911.195 69.5479C911.195 70.2011 911.687 70.7306 912.293 70.7306Z" fill="#365CBB"/>
<path fill-rule="evenodd" clip-rule="evenodd" d="M1043.13 29.0929C1043.13 29.4066 1043.01 29.7074 1042.81 29.9293C1042.6 30.1511 1042.32 30.2758 1042.03 30.2758C1041.89 30.2758 1041.74 30.2452 1041.61 30.1858C1041.48 30.1263 1041.36 30.0392 1041.26 29.9293C1041.15 29.8195 1041.07 29.689 1041.02 29.5455C1040.96 29.402 1040.93 29.2482 1040.93 29.0929C1040.93 28.9375 1040.96 28.7837 1041.02 28.6402C1041.07 28.4967 1041.15 28.3663 1041.26 28.2565C1041.36 28.1467 1041.48 28.0596 1041.61 28.0001C1041.74 27.9407 1041.89 27.9101 1042.03 27.9102C1042.18 27.9102 1042.32 27.9407 1042.45 28.0002C1042.58 28.0596 1042.71 28.1467 1042.81 28.2566C1042.91 28.3664 1042.99 28.4968 1043.05 28.6403C1043.1 28.7837 1043.13 28.9375 1043.13 29.0929V29.0929Z" fill="#365CBB"/>
<path fill-rule="evenodd" clip-rule="evenodd" d="M1112.89 237.833C1112.89 238.067 1112.83 238.296 1112.71 238.49C1112.58 238.685 1112.41 238.836 1112.21 238.926C1112.01 239.015 1111.79 239.039 1111.58 238.993C1111.37 238.947 1111.17 238.835 1111.02 238.669C1110.86 238.504 1110.76 238.293 1110.72 238.064C1110.67 237.834 1110.7 237.597 1110.78 237.38C1110.86 237.164 1111 236.98 1111.18 236.85C1111.36 236.72 1111.58 236.65 1111.79 236.65C1111.94 236.65 1112.08 236.681 1112.21 236.74C1112.35 236.8 1112.47 236.887 1112.57 236.997C1112.67 237.107 1112.75 237.237 1112.81 237.381C1112.86 237.524 1112.89 237.678 1112.89 237.833Z" fill="#365CBB"/>
<path d="M1120.88 20.4165C1121.48 20.4165 1121.97 19.8869 1121.97 19.2336C1121.97 18.5804 1121.48 18.0508 1120.88 18.0508C1120.27 18.0508 1119.78 18.5804 1119.78 19.2336C1119.78 19.8869 1120.27 20.4165 1120.88 20.4165Z" fill="#365CBB"/>
<path fill-rule="evenodd" clip-rule="evenodd" d="M901.047 512.958C901.047 513.192 900.983 513.421 900.862 513.615C900.741 513.81 900.57 513.961 900.369 514.051C900.169 514.14 899.948 514.164 899.735 514.118C899.522 514.073 899.327 513.96 899.173 513.794C899.02 513.629 898.915 513.418 898.873 513.189C898.83 512.959 898.852 512.722 898.935 512.505C899.018 512.289 899.159 512.105 899.339 511.975C899.52 511.845 899.732 511.775 899.949 511.775C900.094 511.775 900.236 511.806 900.369 511.865C900.503 511.925 900.624 512.012 900.725 512.122C900.827 512.232 900.908 512.362 900.963 512.505C901.019 512.649 901.047 512.803 901.047 512.958Z" fill="#90FFFF"/>
<path fill-rule="evenodd" clip-rule="evenodd" d="M1161.3 45.1144C1161.3 45.4281 1161.19 45.7289 1160.98 45.9508C1160.77 46.1726 1160.49 46.2973 1160.2 46.2973C1159.91 46.2973 1159.63 46.1726 1159.43 45.9508C1159.22 45.7289 1159.11 45.4281 1159.11 45.1144C1159.11 44.8007 1159.22 44.4998 1159.43 44.278C1159.63 44.0562 1159.91 43.9316 1160.2 43.9316C1160.49 43.9316 1160.77 44.0562 1160.98 44.278C1161.19 44.4998 1161.3 44.8007 1161.3 45.1144V45.1144Z" fill="#406FBB"/>
<path fill-rule="evenodd" clip-rule="evenodd" d="M1151.84 201.952C1151.84 202.186 1151.78 202.415 1151.65 202.61C1151.53 202.804 1151.36 202.956 1151.16 203.045C1150.96 203.135 1150.74 203.158 1150.53 203.112C1150.32 203.067 1150.12 202.954 1149.97 202.789C1149.81 202.623 1149.71 202.413 1149.67 202.183C1149.62 201.954 1149.65 201.716 1149.73 201.5C1149.81 201.284 1149.95 201.099 1150.13 200.969C1150.31 200.839 1150.52 200.77 1150.74 200.77C1150.89 200.77 1151.03 200.8 1151.16 200.86C1151.3 200.919 1151.42 201.006 1151.52 201.116C1151.62 201.226 1151.7 201.356 1151.76 201.5C1151.81 201.643 1151.84 201.797 1151.84 201.952V201.952Z" fill="#406FBB"/>
<path fill-rule="evenodd" clip-rule="evenodd" d="M871.524 145.247C871.524 145.481 871.459 145.71 871.339 145.904C871.218 146.099 871.047 146.251 870.846 146.34C870.645 146.43 870.425 146.453 870.212 146.407C869.999 146.362 869.803 146.249 869.65 146.084C869.496 145.918 869.392 145.707 869.349 145.478C869.307 145.249 869.329 145.011 869.412 144.795C869.495 144.578 869.636 144.394 869.816 144.264C869.997 144.134 870.209 144.064 870.426 144.064C870.717 144.064 870.996 144.189 871.202 144.411C871.408 144.633 871.524 144.933 871.524 145.247V145.247Z" fill="#406FBB"/>
<path fill-rule="evenodd" clip-rule="evenodd" d="M1317.95 34.515C1317.95 34.8287 1317.83 35.1295 1317.63 35.3513C1317.42 35.5731 1317.14 35.6977 1316.85 35.6977C1316.71 35.6977 1316.56 35.6672 1316.43 35.6077C1316.3 35.5483 1316.18 35.4612 1316.08 35.3514C1315.97 35.2415 1315.89 35.1112 1315.84 34.9677C1315.78 34.8241 1315.75 34.6703 1315.75 34.515C1315.75 34.2013 1315.87 33.9004 1316.08 33.6785C1316.28 33.4567 1316.56 33.332 1316.85 33.332C1317.14 33.3321 1317.42 33.4567 1317.63 33.6786C1317.83 33.9004 1317.95 34.2013 1317.95 34.515V34.515Z" fill="#406FBB"/>
<path fill-rule="evenodd" clip-rule="evenodd" d="M929.488 207.126C929.488 207.36 929.424 207.589 929.303 207.783C929.182 207.978 929.011 208.129 928.81 208.219C928.61 208.308 928.389 208.332 928.176 208.286C927.963 208.24 927.768 208.128 927.614 207.962C927.461 207.797 927.356 207.586 927.314 207.357C927.272 207.127 927.293 206.89 927.376 206.673C927.46 206.457 927.6 206.273 927.781 206.143C927.961 206.013 928.173 205.943 928.391 205.943C928.535 205.943 928.677 205.974 928.811 206.033C928.944 206.093 929.065 206.18 929.167 206.29C929.269 206.4 929.35 206.53 929.405 206.674C929.46 206.817 929.488 206.971 929.488 207.126V207.126Z" fill="#406FBB"/>
<path fill-rule="evenodd" clip-rule="evenodd" d="M1030.47 527.626C1030.47 527.86 1030.4 528.089 1030.28 528.283C1030.16 528.478 1029.99 528.629 1029.79 528.719C1029.59 528.808 1029.37 528.832 1029.16 528.786C1028.94 528.74 1028.75 528.628 1028.59 528.462C1028.44 528.297 1028.34 528.086 1028.29 527.857C1028.25 527.627 1028.27 527.39 1028.36 527.173C1028.44 526.957 1028.58 526.773 1028.76 526.643C1028.94 526.513 1029.15 526.443 1029.37 526.443C1029.66 526.443 1029.94 526.568 1030.15 526.79C1030.35 527.012 1030.47 527.312 1030.47 527.626V527.626Z" fill="#406FBB"/>
<path fill-rule="evenodd" clip-rule="evenodd" d="M1393.88 19.2728C1393.88 19.5865 1393.76 19.8873 1393.55 20.1091C1393.35 20.3309 1393.07 20.4555 1392.78 20.4555C1392.63 20.4555 1392.49 20.425 1392.36 20.3655C1392.22 20.3061 1392.1 20.219 1392 20.1092C1391.9 19.9994 1391.82 19.869 1391.76 19.7255C1391.71 19.582 1391.68 19.4281 1391.68 19.2728C1391.68 19.1174 1391.71 18.9636 1391.76 18.8201C1391.82 18.6765 1391.9 18.5461 1392 18.4363C1392.1 18.3264 1392.22 18.2393 1392.36 18.1798C1392.49 18.1204 1392.63 18.0898 1392.78 18.0898C1392.92 18.0899 1393.06 18.1205 1393.2 18.1799C1393.33 18.2394 1393.45 18.3265 1393.55 18.4364C1393.66 18.5462 1393.74 18.6766 1393.79 18.8201C1393.85 18.9637 1393.88 19.1175 1393.88 19.2728V19.2728Z" fill="#406FBB"/>
<path fill-rule="evenodd" clip-rule="evenodd" d="M943.867 61.2276C943.867 61.4616 943.803 61.6903 943.682 61.8848C943.562 62.0793 943.39 62.231 943.19 62.3205C942.989 62.4101 942.769 62.4335 942.556 62.3879C942.343 62.3423 942.147 62.2296 941.993 62.0642C941.84 61.8988 941.735 61.6881 941.693 61.4586C941.651 61.2292 941.672 60.9914 941.755 60.7752C941.838 60.5591 941.979 60.3743 942.16 60.2443C942.34 60.1143 942.552 60.0449 942.77 60.0449C943.061 60.0449 943.34 60.1695 943.546 60.3913C943.752 60.6131 943.867 60.9139 943.867 61.2276V61.2276Z" fill="#406FBB"/>
<path fill-rule="evenodd" clip-rule="evenodd" d="M1157.16 362.749C1157.16 362.983 1157.09 363.212 1156.97 363.406C1156.85 363.601 1156.68 363.752 1156.48 363.842C1156.28 363.931 1156.06 363.955 1155.84 363.909C1155.63 363.864 1155.44 363.751 1155.28 363.585C1155.13 363.42 1155.02 363.209 1154.98 362.98C1154.94 362.75 1154.96 362.513 1155.04 362.297C1155.13 362.08 1155.27 361.896 1155.45 361.766C1155.63 361.636 1155.84 361.566 1156.06 361.566C1156.35 361.566 1156.63 361.691 1156.83 361.913C1157.04 362.135 1157.16 362.435 1157.16 362.749V362.749Z" fill="#406FBB"/>
<path fill-rule="evenodd" clip-rule="evenodd" d="M807.84 199.657C807.84 199.891 807.775 200.12 807.655 200.314C807.534 200.509 807.363 200.66 807.162 200.75C806.962 200.84 806.741 200.863 806.528 200.817C806.315 200.772 806.12 200.659 805.966 200.494C805.813 200.328 805.708 200.118 805.666 199.888C805.623 199.659 805.645 199.421 805.728 199.205C805.811 198.989 805.952 198.804 806.132 198.674C806.313 198.544 806.525 198.475 806.742 198.475C807.033 198.475 807.312 198.599 807.518 198.821C807.724 199.043 807.84 199.344 807.84 199.657Z" fill="#406FBB"/>
<path fill-rule="evenodd" clip-rule="evenodd" d="M832.738 31.464C832.738 31.7776 832.623 32.0785 832.417 32.3003C832.211 32.5221 831.932 32.6467 831.641 32.6467C831.35 32.6467 831.07 32.5221 830.865 32.3003C830.659 32.0785 830.543 31.7777 830.543 31.464C830.543 31.3086 830.571 31.1548 830.627 31.0113C830.682 30.8678 830.763 30.7374 830.865 30.6276C830.966 30.5178 831.088 30.4306 831.221 30.3712C831.354 30.3118 831.497 30.2812 831.641 30.2813C831.785 30.2812 831.928 30.3118 832.061 30.3712C832.194 30.4307 832.315 30.5178 832.417 30.6276C832.519 30.7374 832.6 30.8678 832.655 31.0113C832.71 31.1548 832.738 31.3086 832.738 31.464V31.464Z" fill="#406FBB"/>
<path fill-rule="evenodd" clip-rule="evenodd" d="M1066.6 310.528C1066.6 310.762 1066.54 310.991 1066.42 311.186C1066.3 311.38 1066.12 311.532 1065.92 311.621C1065.72 311.711 1065.5 311.734 1065.29 311.689C1065.08 311.643 1064.88 311.53 1064.73 311.365C1064.57 311.2 1064.47 310.989 1064.43 310.759C1064.38 310.53 1064.41 310.292 1064.49 310.076C1064.57 309.86 1064.71 309.675 1064.89 309.545C1065.07 309.415 1065.29 309.346 1065.5 309.346C1065.8 309.346 1066.07 309.47 1066.28 309.692C1066.49 309.914 1066.6 310.215 1066.6 310.528V310.528Z" fill="#406FBB"/>
<path fill-rule="evenodd" clip-rule="evenodd" d="M980.864 114.876C980.864 115.11 980.799 115.339 980.679 115.533C980.558 115.728 980.386 115.879 980.186 115.969C979.985 116.058 979.765 116.082 979.552 116.036C979.339 115.991 979.143 115.878 978.989 115.713C978.836 115.547 978.731 115.336 978.689 115.107C978.647 114.877 978.668 114.64 978.752 114.423C978.835 114.207 978.975 114.023 979.156 113.893C979.336 113.763 979.549 113.693 979.766 113.693C980.057 113.693 980.336 113.818 980.542 114.04C980.748 114.262 980.863 114.562 980.864 114.876V114.876Z" fill="#406FBB"/>
<path fill-rule="evenodd" clip-rule="evenodd" d="M1237.47 397.015C1237.47 397.249 1237.4 397.477 1237.28 397.672C1237.16 397.866 1236.99 398.018 1236.79 398.108C1236.59 398.197 1236.37 398.221 1236.16 398.175C1235.94 398.129 1235.75 398.017 1235.59 397.851C1235.44 397.686 1235.34 397.475 1235.29 397.246C1235.25 397.016 1235.27 396.778 1235.36 396.562C1235.44 396.346 1235.58 396.161 1235.76 396.031C1235.94 395.901 1236.15 395.832 1236.37 395.832C1236.66 395.832 1236.94 395.957 1237.15 396.179C1237.35 396.4 1237.47 396.701 1237.47 397.015V397.015Z" fill="#406FBB"/>
<path fill-rule="evenodd" clip-rule="evenodd" d="M1174.04 119.62C1174.04 119.854 1173.97 120.083 1173.85 120.278C1173.73 120.472 1173.56 120.624 1173.36 120.713C1173.16 120.803 1172.94 120.826 1172.73 120.78C1172.51 120.735 1172.32 120.622 1172.17 120.457C1172.01 120.291 1171.91 120.081 1171.86 119.851C1171.82 119.622 1171.84 119.384 1171.93 119.168C1172.01 118.952 1172.15 118.767 1172.33 118.637C1172.51 118.507 1172.72 118.438 1172.94 118.438C1173.09 118.437 1173.23 118.468 1173.36 118.528C1173.49 118.587 1173.62 118.674 1173.72 118.784C1173.82 118.894 1173.9 119.024 1173.96 119.168C1174.01 119.311 1174.04 119.465 1174.04 119.62V119.62Z" fill="#68B7E7"/>
<path fill-rule="evenodd" clip-rule="evenodd" d="M1227.86 129.449C1227.86 129.682 1227.8 129.911 1227.67 130.106C1227.55 130.3 1227.38 130.452 1227.18 130.541C1226.98 130.631 1226.76 130.654 1226.55 130.608C1226.33 130.563 1226.14 130.45 1225.99 130.285C1225.83 130.119 1225.73 129.909 1225.69 129.679C1225.64 129.45 1225.66 129.212 1225.75 128.996C1225.83 128.78 1225.97 128.595 1226.15 128.465C1226.33 128.335 1226.54 128.266 1226.76 128.266C1226.91 128.266 1227.05 128.296 1227.18 128.356C1227.32 128.415 1227.44 128.502 1227.54 128.612C1227.64 128.722 1227.72 128.852 1227.78 128.996C1227.83 129.139 1227.86 129.293 1227.86 129.449V129.449Z" fill="#406FBB"/>
<path fill-rule="evenodd" clip-rule="evenodd" d="M1101.49 436.04C1101.49 436.274 1101.43 436.503 1101.31 436.697C1101.19 436.892 1101.01 437.043 1100.81 437.133C1100.61 437.222 1100.39 437.246 1100.18 437.2C1099.97 437.154 1099.77 437.042 1099.62 436.876C1099.46 436.711 1099.36 436.5 1099.32 436.271C1099.28 436.041 1099.3 435.804 1099.38 435.588C1099.46 435.371 1099.6 435.187 1099.78 435.057C1099.97 434.927 1100.18 434.857 1100.39 434.857C1100.54 434.857 1100.68 434.888 1100.81 434.947C1100.95 435.007 1101.07 435.094 1101.17 435.204C1101.27 435.314 1101.35 435.444 1101.41 435.587C1101.46 435.731 1101.49 435.885 1101.49 436.04V436.04Z" fill="#406FBB"/>
<path fill-rule="evenodd" clip-rule="evenodd" d="M895.906 164.827C895.906 165.061 895.842 165.29 895.721 165.484C895.601 165.679 895.429 165.831 895.229 165.92C895.028 166.01 894.807 166.033 894.594 165.987C894.382 165.942 894.186 165.829 894.032 165.664C893.879 165.498 893.774 165.288 893.732 165.058C893.69 164.829 893.711 164.591 893.795 164.375C893.878 164.159 894.018 163.974 894.199 163.844C894.379 163.714 894.592 163.645 894.809 163.645C895.1 163.645 895.379 163.769 895.585 163.991C895.791 164.213 895.906 164.514 895.906 164.827V164.827Z" fill="#90FFFF"/>
<path d="M997.297 180.285C997.903 180.285 998.394 179.756 998.394 179.103C998.394 178.449 997.903 177.92 997.297 177.92C996.691 177.92 996.199 178.449 996.199 179.103C996.199 179.756 996.691 180.285 997.297 180.285Z" fill="#90FFFF"/>
<path fill-rule="evenodd" clip-rule="evenodd" d="M987.387 30.2767C987.387 30.5904 987.271 30.8912 987.065 31.113C986.859 31.3348 986.58 31.4594 986.289 31.4594C985.998 31.4594 985.719 31.3348 985.513 31.113C985.307 30.8912 985.191 30.5904 985.191 30.2767C985.191 30.1214 985.22 29.9676 985.275 29.824C985.33 29.6805 985.411 29.5501 985.513 29.4403C985.615 29.3304 985.736 29.2433 985.869 29.1838C986.002 29.1244 986.145 29.0938 986.289 29.0938C986.58 29.0938 986.859 29.2184 987.065 29.4402C987.271 29.6621 987.387 29.963 987.387 30.2767V30.2767Z" fill="#90FFFF"/>
<path fill-rule="evenodd" clip-rule="evenodd" d="M802.183 119.585C802.183 119.819 802.119 120.048 801.998 120.242C801.878 120.437 801.706 120.588 801.506 120.678C801.305 120.767 801.084 120.791 800.872 120.745C800.659 120.699 800.463 120.587 800.31 120.421C800.156 120.256 800.052 120.045 800.009 119.816C799.967 119.586 799.989 119.348 800.072 119.132C800.155 118.916 800.296 118.732 800.476 118.602C800.657 118.472 800.869 118.402 801.086 118.402C801.23 118.402 801.373 118.433 801.506 118.492C801.639 118.552 801.76 118.639 801.862 118.749C801.964 118.859 802.045 118.989 802.1 119.133C802.155 119.276 802.183 119.43 802.183 119.585Z" fill="#90FFFF"/>
<path fill-rule="evenodd" clip-rule="evenodd" d="M1064.2 350.876C1064.2 351.11 1064.14 351.339 1064.02 351.533C1063.9 351.728 1063.73 351.879 1063.53 351.969C1063.32 352.058 1063.1 352.082 1062.89 352.036C1062.68 351.99 1062.48 351.878 1062.33 351.712C1062.18 351.547 1062.07 351.336 1062.03 351.107C1061.99 350.877 1062.01 350.64 1062.09 350.423C1062.17 350.207 1062.32 350.023 1062.5 349.893C1062.68 349.763 1062.89 349.693 1063.11 349.693C1063.4 349.693 1063.68 349.818 1063.88 350.04C1064.09 350.262 1064.2 350.562 1064.2 350.876V350.876Z" fill="#B7FFFF"/>
<path fill-rule="evenodd" clip-rule="evenodd" d="M1018.78 73.2337C1018.78 73.4677 1018.72 73.6964 1018.6 73.8909C1018.48 74.0854 1018.3 74.237 1018.1 74.3265C1017.9 74.416 1017.68 74.4394 1017.47 74.3938C1017.26 74.3481 1017.06 74.2355 1016.91 74.0701C1016.75 73.9046 1016.65 73.6939 1016.61 73.4644C1016.56 73.235 1016.59 72.9972 1016.67 72.781C1016.75 72.5649 1016.89 72.3802 1017.07 72.2502C1017.25 72.1202 1017.47 72.0508 1017.68 72.0508C1017.83 72.0508 1017.97 72.0814 1018.1 72.1408C1018.24 72.2003 1018.36 72.2874 1018.46 72.3972C1018.56 72.5071 1018.64 72.6375 1018.7 72.781C1018.75 72.9246 1018.78 73.0784 1018.78 73.2337V73.2337Z" fill="#90FFFF"/>
<path fill-rule="evenodd" clip-rule="evenodd" d="M1226.76 235.023C1226.76 235.256 1226.7 235.485 1226.58 235.68C1226.46 235.874 1226.28 236.026 1226.08 236.115C1225.88 236.205 1225.66 236.228 1225.45 236.182C1225.24 236.137 1225.04 236.024 1224.89 235.859C1224.73 235.693 1224.63 235.483 1224.59 235.253C1224.55 235.024 1224.57 234.786 1224.65 234.57C1224.73 234.354 1224.87 234.169 1225.05 234.039C1225.23 233.909 1225.45 233.84 1225.66 233.84C1225.96 233.84 1226.23 233.965 1226.44 234.186C1226.65 234.408 1226.76 234.709 1226.76 235.023V235.023Z" fill="#90FFFF"/>
<path fill-rule="evenodd" clip-rule="evenodd" d="M1004 354.761C1004 354.995 1003.94 355.223 1003.81 355.418C1003.69 355.612 1003.52 355.764 1003.32 355.854C1003.12 355.943 1002.9 355.966 1002.69 355.921C1002.48 355.875 1002.28 355.763 1002.13 355.597C1001.97 355.432 1001.87 355.221 1001.83 354.992C1001.78 354.762 1001.81 354.524 1001.89 354.308C1001.97 354.092 1002.11 353.907 1002.29 353.777C1002.47 353.647 1002.69 353.578 1002.9 353.578C1003.19 353.578 1003.47 353.703 1003.68 353.925C1003.88 354.146 1004 354.447 1004 354.761V354.761Z" fill="#90FFFF"/>
<path fill-rule="evenodd" clip-rule="evenodd" d="M852.496 365.077C852.496 365.311 852.432 365.54 852.311 365.735C852.19 365.929 852.019 366.081 851.818 366.17C851.618 366.26 851.397 366.283 851.184 366.237C850.971 366.192 850.776 366.079 850.622 365.914C850.469 365.748 850.364 365.538 850.322 365.308C850.28 365.079 850.301 364.841 850.384 364.625C850.467 364.409 850.608 364.224 850.789 364.094C850.969 363.964 851.181 363.895 851.398 363.895C851.543 363.895 851.685 363.925 851.818 363.985C851.952 364.044 852.073 364.131 852.175 364.241C852.277 364.351 852.357 364.481 852.413 364.625C852.468 364.768 852.496 364.922 852.496 365.077Z" fill="#90FFFF"/>
<path fill-rule="evenodd" clip-rule="evenodd" d="M1225.66 12.3721C1225.66 12.5275 1225.64 12.6813 1225.58 12.8248C1225.53 12.9683 1225.44 13.0987 1225.34 13.2086C1225.24 13.3184 1225.12 13.4056 1224.99 13.465C1224.85 13.5245 1224.71 13.5551 1224.57 13.5551C1224.42 13.5551 1224.28 13.5245 1224.15 13.4651C1224.01 13.4057 1223.89 13.3185 1223.79 13.2087C1223.69 13.0988 1223.61 12.9684 1223.55 12.8249C1223.5 12.6813 1223.47 12.5275 1223.47 12.3721C1223.47 12.2168 1223.5 12.063 1223.55 11.9195C1223.61 11.776 1223.69 11.6456 1223.79 11.5358C1223.89 11.426 1224.01 11.3388 1224.15 11.2794C1224.28 11.22 1224.42 11.1894 1224.57 11.1895C1224.86 11.1895 1225.14 11.3141 1225.34 11.5359C1225.55 11.7577 1225.66 12.0585 1225.66 12.3721V12.3721Z" fill="#90FFFF"/>
<path fill-rule="evenodd" clip-rule="evenodd" d="M1151.23 96.9698C1151.23 97.2038 1151.17 97.4325 1151.05 97.627C1150.93 97.8215 1150.76 97.9732 1150.56 98.0627C1150.36 98.1523 1150.14 98.1757 1149.92 98.1301C1149.71 98.0844 1149.51 97.9718 1149.36 97.8063C1149.21 97.6409 1149.1 97.4301 1149.06 97.2007C1149.02 96.9712 1149.04 96.7334 1149.12 96.5172C1149.21 96.3011 1149.35 96.1164 1149.53 95.9864C1149.71 95.8564 1149.92 95.7871 1150.14 95.7871C1150.43 95.7872 1150.71 95.9118 1150.91 96.1336C1151.12 96.3554 1151.23 96.6562 1151.23 96.9698V96.9698Z" fill="#90FFFF"/>
<path fill-rule="evenodd" clip-rule="evenodd" d="M1113.99 164.827C1113.99 165.061 1113.92 165.29 1113.8 165.484C1113.68 165.679 1113.51 165.831 1113.31 165.92C1113.11 166.01 1112.89 166.033 1112.68 165.987C1112.46 165.942 1112.27 165.829 1112.11 165.664C1111.96 165.498 1111.86 165.288 1111.81 165.058C1111.77 164.829 1111.79 164.591 1111.88 164.375C1111.96 164.159 1112.1 163.974 1112.28 163.844C1112.46 163.714 1112.67 163.645 1112.89 163.645C1113.03 163.645 1113.18 163.675 1113.31 163.735C1113.44 163.794 1113.56 163.881 1113.67 163.991C1113.77 164.101 1113.85 164.231 1113.9 164.375C1113.96 164.518 1113.99 164.672 1113.99 164.827V164.827Z" fill="#90FFFF"/>
<path fill-rule="evenodd" clip-rule="evenodd" d="M1000.58 165.204C1000.58 165.438 1000.51 165.667 1000.39 165.861C1000.27 166.056 1000.1 166.208 999.901 166.297C999.7 166.387 999.479 166.41 999.266 166.364C999.053 166.319 998.858 166.206 998.704 166.041C998.551 165.875 998.446 165.665 998.404 165.435C998.362 165.206 998.383 164.968 998.466 164.752C998.549 164.535 998.69 164.351 998.871 164.221C999.051 164.091 999.263 164.021 999.481 164.021C999.625 164.021 999.767 164.052 999.901 164.111C1000.03 164.171 1000.15 164.258 1000.26 164.368C1000.36 164.478 1000.44 164.608 1000.49 164.752C1000.55 164.895 1000.58 165.049 1000.58 165.204V165.204Z" fill="#90FFFF"/>
<path fill-rule="evenodd" clip-rule="evenodd" d="M1035.88 371.521C1035.88 371.755 1035.81 371.983 1035.69 372.178C1035.57 372.372 1035.4 372.524 1035.2 372.613C1035 372.703 1034.78 372.726 1034.56 372.681C1034.35 372.635 1034.15 372.522 1034 372.357C1033.85 372.192 1033.74 371.981 1033.7 371.751C1033.66 371.522 1033.68 371.284 1033.76 371.068C1033.85 370.852 1033.99 370.667 1034.17 370.537C1034.35 370.407 1034.56 370.338 1034.78 370.338C1035.07 370.338 1035.35 370.462 1035.55 370.684C1035.76 370.906 1035.88 371.207 1035.88 371.521V371.521Z" fill="#90FFFF"/>
<path fill-rule="evenodd" clip-rule="evenodd" d="M1005.11 269.388C1005.11 269.622 1005.05 269.85 1004.92 270.045C1004.8 270.24 1004.63 270.391 1004.43 270.481C1004.23 270.57 1004.01 270.594 1003.8 270.548C1003.58 270.502 1003.39 270.39 1003.24 270.224C1003.08 270.059 1002.98 269.848 1002.94 269.619C1002.89 269.389 1002.91 269.152 1003 268.935C1003.08 268.719 1003.22 268.534 1003.4 268.404C1003.58 268.275 1003.79 268.205 1004.01 268.205C1004.3 268.205 1004.58 268.33 1004.79 268.551C1004.99 268.773 1005.11 269.074 1005.11 269.388Z" fill="#68B7E7"/>
<path fill-rule="evenodd" clip-rule="evenodd" d="M936.008 220.966C936.008 221.2 935.944 221.429 935.823 221.623C935.702 221.818 935.531 221.969 935.33 222.059C935.13 222.148 934.909 222.172 934.696 222.126C934.483 222.081 934.288 221.968 934.134 221.802C933.98 221.637 933.876 221.426 933.834 221.197C933.791 220.967 933.813 220.729 933.896 220.513C933.979 220.297 934.12 220.112 934.3 219.983C934.481 219.853 934.693 219.783 934.91 219.783C935.201 219.783 935.481 219.908 935.686 220.13C935.892 220.351 936.008 220.652 936.008 220.966V220.966Z" fill="#406FBB"/>
<path fill-rule="evenodd" clip-rule="evenodd" d="M884.109 194.003C884.109 194.237 884.045 194.466 883.924 194.66C883.804 194.855 883.632 195.006 883.432 195.096C883.231 195.185 883.01 195.209 882.797 195.163C882.585 195.117 882.389 195.005 882.235 194.839C882.082 194.674 881.977 194.463 881.935 194.234C881.893 194.004 881.915 193.766 881.998 193.55C882.081 193.334 882.221 193.15 882.402 193.02C882.582 192.89 882.795 192.82 883.012 192.82C883.156 192.82 883.299 192.851 883.432 192.91C883.565 192.97 883.686 193.057 883.788 193.167C883.89 193.277 883.971 193.407 884.026 193.551C884.081 193.694 884.109 193.848 884.109 194.003V194.003Z" fill="#406FBB"/>
<path fill-rule="evenodd" clip-rule="evenodd" d="M819.652 139.958C819.652 140.192 819.588 140.421 819.468 140.615C819.347 140.81 819.176 140.962 818.975 141.051C818.774 141.141 818.554 141.164 818.341 141.119C818.128 141.073 817.932 140.96 817.779 140.795C817.625 140.629 817.521 140.419 817.478 140.189C817.436 139.96 817.457 139.722 817.541 139.506C817.624 139.29 817.764 139.105 817.945 138.975C818.125 138.845 818.337 138.775 818.555 138.775C818.846 138.775 819.125 138.9 819.331 139.122C819.537 139.344 819.652 139.644 819.652 139.958V139.958Z" fill="#365CBB"/>
<path fill-rule="evenodd" clip-rule="evenodd" d="M753.273 51.4952C753.273 51.6505 753.245 51.8044 753.19 51.9479C753.135 52.0914 753.054 52.2218 752.952 52.3317C752.85 52.4415 752.729 52.5286 752.596 52.5881C752.463 52.6475 752.32 52.6782 752.176 52.6782C752.032 52.6782 751.889 52.6475 751.756 52.5881C751.622 52.5286 751.501 52.4415 751.4 52.3317C751.298 52.2218 751.217 52.0914 751.162 51.9479C751.106 51.8044 751.078 51.6505 751.078 51.4952C751.078 51.1815 751.194 50.8807 751.4 50.6589C751.605 50.4371 751.885 50.3125 752.176 50.3125C752.467 50.3125 752.746 50.4371 752.952 50.6589C753.158 50.8807 753.273 51.1815 753.273 51.4952Z" fill="#365CBB"/>
<path fill-rule="evenodd" clip-rule="evenodd" d="M883.012 11.0482C883.012 11.3619 882.896 11.6627 882.69 11.8845C882.484 12.1063 882.205 12.2309 881.914 12.2309C881.623 12.2309 881.344 12.1063 881.138 11.8845C880.932 11.6627 880.816 11.3619 880.816 11.0482C880.816 10.7345 880.932 10.4336 881.138 10.2118C881.344 9.98993 881.623 9.86528 881.914 9.86523C882.205 9.86529 882.484 9.98995 882.69 10.2118C882.896 10.4336 883.012 10.7345 883.012 11.0482V11.0482Z" fill="#365CBB"/>
<path fill-rule="evenodd" clip-rule="evenodd" d="M771.758 318.263C771.758 318.497 771.694 318.725 771.573 318.92C771.452 319.114 771.281 319.266 771.08 319.356C770.88 319.445 770.659 319.469 770.446 319.423C770.233 319.377 770.038 319.265 769.884 319.099C769.731 318.934 769.626 318.723 769.584 318.494C769.541 318.264 769.563 318.027 769.646 317.81C769.729 317.594 769.87 317.409 770.05 317.279C770.231 317.15 770.443 317.08 770.66 317.08C770.951 317.08 771.23 317.205 771.436 317.427C771.642 317.648 771.758 317.949 771.758 318.263V318.263Z" fill="#365CBB"/>
<path fill-rule="evenodd" clip-rule="evenodd" d="M952.774 219.783C952.774 220.017 952.709 220.245 952.589 220.44C952.468 220.634 952.296 220.786 952.096 220.875C951.895 220.965 951.675 220.988 951.462 220.943C951.249 220.897 951.053 220.784 950.9 220.619C950.746 220.453 950.642 220.243 950.599 220.013C950.557 219.784 950.579 219.546 950.662 219.33C950.745 219.114 950.885 218.929 951.066 218.799C951.246 218.669 951.459 218.6 951.676 218.6C951.82 218.6 951.963 218.63 952.096 218.69C952.229 218.749 952.35 218.836 952.452 218.946C952.554 219.056 952.635 219.186 952.69 219.33C952.745 219.473 952.774 219.627 952.774 219.783V219.783Z" fill="#365CBB"/>
<path fill-rule="evenodd" clip-rule="evenodd" d="M961.86 1.18296C961.86 1.33828 961.831 1.49207 961.776 1.63557C961.721 1.77906 961.64 1.90944 961.538 2.01926C961.436 2.12908 961.315 2.21621 961.182 2.27564C961.049 2.33508 960.906 2.36567 960.762 2.36567C960.471 2.36568 960.192 2.24109 959.986 2.01929C959.78 1.7975 959.664 1.49667 959.664 1.18296C959.664 0.869238 959.78 0.56837 959.986 0.346532C960.192 0.124694 960.471 4.71359e-05 960.762 0C961.053 5.38794e-05 961.332 0.124713 961.538 0.346557C961.744 0.568401 961.86 0.869263 961.86 1.18296V1.18296Z" fill="#365CBB"/>
<path fill-rule="evenodd" clip-rule="evenodd" d="M711.41 127.2C711.41 127.434 711.346 127.663 711.225 127.857C711.105 128.052 710.933 128.204 710.733 128.293C710.532 128.383 710.311 128.406 710.098 128.361C709.885 128.315 709.69 128.202 709.536 128.037C709.383 127.871 709.278 127.661 709.236 127.431C709.194 127.202 709.215 126.964 709.298 126.748C709.382 126.532 709.522 126.347 709.703 126.217C709.883 126.087 710.096 126.018 710.313 126.018C710.604 126.018 710.883 126.142 711.089 126.364C711.295 126.586 711.41 126.887 711.41 127.2V127.2Z" fill="#406FBB"/>
<path fill-rule="evenodd" clip-rule="evenodd" d="M769.375 189.079C769.375 189.313 769.31 189.542 769.19 189.736C769.069 189.931 768.898 190.082 768.697 190.172C768.497 190.261 768.276 190.285 768.063 190.239C767.85 190.194 767.655 190.081 767.501 189.916C767.348 189.75 767.243 189.539 767.201 189.31C767.158 189.081 767.18 188.843 767.263 188.627C767.346 188.41 767.487 188.226 767.667 188.096C767.848 187.966 768.06 187.896 768.277 187.896C768.568 187.897 768.847 188.021 769.053 188.243C769.259 188.465 769.375 188.766 769.375 189.079V189.079Z" fill="#406FBB"/>
<path fill-rule="evenodd" clip-rule="evenodd" d="M783.75 43.181C783.75 43.4947 783.634 43.7955 783.428 44.0173C783.223 44.2391 782.944 44.3637 782.652 44.3637C782.361 44.3637 782.082 44.2391 781.876 44.0173C781.67 43.7955 781.555 43.4947 781.555 43.181C781.555 42.8673 781.67 42.5664 781.876 42.3445C782.082 42.1227 782.361 41.9981 782.652 41.998C782.797 41.9981 782.939 42.0287 783.072 42.0881C783.206 42.1476 783.327 42.2347 783.429 42.3446C783.53 42.4544 783.611 42.5848 783.666 42.7283C783.722 42.8719 783.75 43.0257 783.75 43.181V43.181Z" fill="#406FBB"/>
<path fill-rule="evenodd" clip-rule="evenodd" d="M777.711 354.659C777.711 354.893 777.647 355.122 777.526 355.317C777.405 355.511 777.234 355.663 777.033 355.752C776.833 355.842 776.612 355.865 776.399 355.819C776.186 355.774 775.991 355.661 775.837 355.496C775.684 355.33 775.579 355.12 775.537 354.89C775.494 354.661 775.516 354.423 775.599 354.207C775.682 353.991 775.823 353.806 776.003 353.676C776.184 353.546 776.396 353.477 776.613 353.477C776.904 353.477 777.184 353.601 777.389 353.823C777.595 354.045 777.711 354.346 777.711 354.659V354.659Z" fill="#406FBB"/>
<path fill-rule="evenodd" clip-rule="evenodd" d="M647.727 181.61C647.727 181.844 647.662 182.073 647.542 182.268C647.421 182.462 647.25 182.614 647.049 182.703C646.849 182.793 646.628 182.816 646.415 182.771C646.202 182.725 646.006 182.612 645.853 182.447C645.699 182.282 645.595 182.071 645.552 181.841C645.51 181.612 645.532 181.374 645.615 181.158C645.698 180.942 645.838 180.757 646.019 180.627C646.199 180.497 646.412 180.428 646.629 180.428C646.773 180.428 646.916 180.458 647.049 180.518C647.182 180.577 647.303 180.664 647.405 180.774C647.507 180.884 647.588 181.014 647.643 181.158C647.698 181.301 647.727 181.455 647.727 181.61V181.61Z" fill="#406FBB"/>
<path fill-rule="evenodd" clip-rule="evenodd" d="M672.625 13.4112C672.625 13.7249 672.51 14.0258 672.304 14.2477C672.098 14.4695 671.819 14.5942 671.528 14.5942C671.236 14.5942 670.957 14.4696 670.751 14.2477C670.545 14.0259 670.43 13.725 670.43 13.4112C670.43 13.2559 670.458 13.1021 670.513 12.9586C670.568 12.8151 670.649 12.6847 670.751 12.5749C670.853 12.465 670.974 12.3779 671.107 12.3185C671.241 12.2591 671.383 12.2285 671.528 12.2285C671.819 12.2285 672.098 12.3531 672.304 12.5749C672.509 12.7967 672.625 13.0976 672.625 13.4112Z" fill="#406FBB"/>
<path fill-rule="evenodd" clip-rule="evenodd" d="M820.75 96.8233C820.75 97.0573 820.686 97.286 820.565 97.4805C820.444 97.6751 820.273 97.8267 820.072 97.9162C819.872 98.0058 819.651 98.0292 819.438 97.9836C819.225 97.9379 819.03 97.8253 818.876 97.6598C818.723 97.4944 818.618 97.2836 818.576 97.0542C818.533 96.8247 818.555 96.5869 818.638 96.3707C818.721 96.1546 818.862 95.9699 819.043 95.8399C819.223 95.7099 819.435 95.6406 819.653 95.6406C819.944 95.6406 820.223 95.7652 820.429 95.987C820.634 96.2088 820.75 96.5097 820.75 96.8233Z" fill="#406FBB"/>
<path fill-rule="evenodd" clip-rule="evenodd" d="M735.797 146.771C735.797 147.004 735.733 147.233 735.612 147.428C735.491 147.622 735.32 147.774 735.119 147.863C734.919 147.953 734.698 147.976 734.485 147.931C734.272 147.885 734.077 147.772 733.923 147.607C733.77 147.442 733.665 147.231 733.623 147.001C733.58 146.772 733.602 146.534 733.685 146.318C733.768 146.102 733.909 145.917 734.089 145.787C734.27 145.657 734.482 145.588 734.699 145.588C734.99 145.588 735.27 145.712 735.475 145.934C735.681 146.156 735.797 146.457 735.797 146.771Z" fill="#90FFFF"/>
<path fill-rule="evenodd" clip-rule="evenodd" d="M827.274 12.2315C827.274 12.5452 827.158 12.8461 826.952 13.0679C826.746 13.2897 826.467 13.4142 826.176 13.4142C825.885 13.4142 825.605 13.2896 825.4 13.0678C825.194 12.846 825.078 12.5452 825.078 12.2315C825.078 11.9179 825.194 11.617 825.4 11.3952C825.605 11.1734 825.885 11.0488 826.176 11.0488C826.467 11.0488 826.746 11.1734 826.952 11.3952C827.158 11.617 827.274 11.9178 827.274 12.2315V12.2315Z" fill="#90FFFF"/>
<path fill-rule="evenodd" clip-rule="evenodd" d="M904.086 332.829C904.086 333.063 904.022 333.292 903.901 333.486C903.781 333.681 903.609 333.833 903.409 333.922C903.208 334.012 902.987 334.035 902.774 333.989C902.561 333.944 902.366 333.831 902.212 333.666C902.059 333.5 901.954 333.29 901.912 333.06C901.869 332.831 901.891 332.593 901.974 332.377C902.057 332.161 902.198 331.976 902.378 331.846C902.559 331.716 902.771 331.647 902.988 331.646C903.132 331.646 903.275 331.677 903.408 331.736C903.542 331.796 903.663 331.883 903.765 331.993C903.866 332.103 903.947 332.233 904.003 332.377C904.058 332.52 904.086 332.674 904.086 332.829V332.829Z" fill="#B7FFFF"/>
<path fill-rule="evenodd" clip-rule="evenodd" d="M843.883 336.71C843.883 336.944 843.819 337.173 843.698 337.367C843.577 337.562 843.406 337.713 843.205 337.803C843.005 337.892 842.784 337.916 842.571 337.87C842.358 337.825 842.163 337.712 842.009 337.547C841.856 337.381 841.751 337.17 841.709 336.941C841.666 336.712 841.688 336.474 841.771 336.258C841.854 336.041 841.995 335.857 842.175 335.727C842.356 335.597 842.568 335.527 842.785 335.527C843.076 335.527 843.355 335.652 843.561 335.874C843.767 336.096 843.883 336.396 843.883 336.71V336.71Z" fill="#90FFFF"/>
<path fill-rule="evenodd" clip-rule="evenodd" d="M692.383 347.026C692.383 347.26 692.319 347.489 692.198 347.684C692.077 347.878 691.906 348.03 691.705 348.119C691.505 348.209 691.284 348.232 691.071 348.187C690.858 348.141 690.663 348.028 690.509 347.863C690.356 347.698 690.251 347.487 690.209 347.257C690.166 347.028 690.188 346.79 690.271 346.574C690.354 346.358 690.495 346.173 690.675 346.043C690.856 345.913 691.068 345.844 691.285 345.844C691.429 345.844 691.572 345.874 691.705 345.934C691.838 345.993 691.959 346.08 692.061 346.19C692.163 346.3 692.244 346.43 692.299 346.574C692.355 346.717 692.383 346.871 692.383 347.026Z" fill="#90FFFF"/>
<path fill-rule="evenodd" clip-rule="evenodd" d="M991.117 78.9229C991.117 79.1569 991.053 79.3856 990.932 79.5801C990.812 79.7746 990.64 79.9263 990.44 80.0158C990.239 80.1054 990.018 80.1288 989.805 80.0832C989.593 80.0375 989.397 79.9249 989.243 79.7595C989.09 79.594 988.985 79.3833 988.943 79.1538C988.901 78.9243 988.922 78.6865 989.005 78.4704C989.089 78.2542 989.229 78.0695 989.41 77.9395C989.59 77.8096 989.803 77.7402 990.02 77.7402C990.164 77.7402 990.307 77.7708 990.44 77.8302C990.573 77.8896 990.694 77.9768 990.796 78.0866C990.898 78.1964 990.979 78.3268 991.034 78.4703C991.089 78.6138 991.117 78.7676 991.117 78.9229V78.9229Z" fill="#90FFFF"/>
<path fill-rule="evenodd" clip-rule="evenodd" d="M953.871 146.771C953.871 147.004 953.807 147.233 953.686 147.428C953.566 147.622 953.394 147.774 953.194 147.863C952.993 147.953 952.772 147.976 952.559 147.931C952.346 147.885 952.151 147.772 951.997 147.607C951.844 147.442 951.739 147.231 951.697 147.001C951.655 146.772 951.676 146.534 951.759 146.318C951.842 146.102 951.983 145.917 952.164 145.787C952.344 145.657 952.557 145.588 952.774 145.588C953.065 145.588 953.344 145.712 953.55 145.934C953.756 146.156 953.871 146.457 953.871 146.771V146.771Z" fill="#90FFFF"/>
<path fill-rule="evenodd" clip-rule="evenodd" d="M844.008 155.491C844.008 155.725 843.944 155.954 843.823 156.148C843.702 156.343 843.531 156.495 843.33 156.584C843.13 156.674 842.909 156.697 842.696 156.652C842.483 156.606 842.288 156.493 842.134 156.328C841.981 156.162 841.876 155.952 841.834 155.722C841.791 155.493 841.813 155.255 841.896 155.039C841.979 154.823 842.12 154.638 842.3 154.508C842.481 154.378 842.693 154.309 842.91 154.309C843.054 154.309 843.197 154.339 843.33 154.399C843.463 154.458 843.584 154.545 843.686 154.655C843.788 154.765 843.869 154.895 843.924 155.039C843.979 155.182 844.008 155.336 844.008 155.491V155.491Z" fill="#90FFFF"/>
<path fill-rule="evenodd" clip-rule="evenodd" d="M875.762 353.476C875.762 353.71 875.697 353.938 875.577 354.133C875.456 354.327 875.285 354.479 875.084 354.569C874.884 354.658 874.663 354.682 874.45 354.636C874.237 354.59 874.042 354.478 873.888 354.312C873.734 354.147 873.63 353.936 873.588 353.707C873.545 353.477 873.567 353.239 873.65 353.023C873.733 352.807 873.874 352.622 874.054 352.492C874.235 352.362 874.447 352.293 874.664 352.293C874.808 352.293 874.951 352.324 875.084 352.383C875.217 352.442 875.338 352.529 875.44 352.639C875.542 352.749 875.623 352.88 875.678 353.023C875.733 353.167 875.762 353.32 875.762 353.476V353.476Z" fill="#90FFFF"/>
<path fill-rule="evenodd" clip-rule="evenodd" d="M1150.99 347.81C1150.99 348.044 1150.93 348.272 1150.81 348.467C1150.69 348.661 1150.52 348.813 1150.31 348.903C1150.11 348.992 1149.89 349.016 1149.68 348.97C1149.47 348.924 1149.27 348.812 1149.12 348.646C1148.96 348.481 1148.86 348.27 1148.82 348.041C1148.78 347.811 1148.8 347.573 1148.88 347.357C1148.96 347.141 1149.1 346.956 1149.28 346.826C1149.47 346.696 1149.68 346.627 1149.89 346.627C1150.19 346.627 1150.46 346.752 1150.67 346.973C1150.88 347.195 1150.99 347.496 1150.99 347.81V347.81Z" fill="#90FFFF"/>
<path fill-rule="evenodd" clip-rule="evenodd" d="M1304.38 198.478C1304.38 198.712 1304.32 198.94 1304.2 199.135C1304.08 199.329 1303.91 199.481 1303.71 199.57C1303.5 199.66 1303.28 199.683 1303.07 199.638C1302.86 199.592 1302.66 199.48 1302.51 199.314C1302.36 199.149 1302.25 198.938 1302.21 198.709C1302.17 198.479 1302.19 198.241 1302.27 198.025C1302.35 197.809 1302.49 197.624 1302.68 197.494C1302.86 197.364 1303.07 197.295 1303.29 197.295C1303.58 197.295 1303.86 197.42 1304.06 197.641C1304.27 197.863 1304.38 198.164 1304.38 198.478V198.478Z" fill="#406FBB"/>
<path fill-rule="evenodd" clip-rule="evenodd" d="M1213.83 146.265C1213.83 146.499 1213.77 146.727 1213.65 146.922C1213.53 147.116 1213.36 147.268 1213.15 147.357C1212.95 147.447 1212.73 147.47 1212.52 147.425C1212.31 147.379 1212.11 147.266 1211.96 147.101C1211.8 146.936 1211.7 146.725 1211.66 146.495C1211.62 146.266 1211.64 146.028 1211.72 145.812C1211.8 145.596 1211.94 145.411 1212.12 145.281C1212.31 145.151 1212.52 145.082 1212.73 145.082C1213.03 145.082 1213.3 145.207 1213.51 145.428C1213.72 145.65 1213.83 145.951 1213.83 146.265V146.265Z" fill="#406FBB"/>
<path fill-rule="evenodd" clip-rule="evenodd" d="M733.27 26.337C733.27 26.4923 733.241 26.6461 733.186 26.7896C733.131 26.9332 733.05 27.0635 732.948 27.1734C732.846 27.2832 732.725 27.3703 732.592 27.4297C732.459 27.4892 732.316 27.5197 732.172 27.5197C731.881 27.5197 731.602 27.3951 731.396 27.1733C731.19 26.9515 731.074 26.6507 731.074 26.337C731.074 26.0233 731.19 25.7225 731.396 25.5007C731.602 25.2789 731.881 25.1543 732.172 25.1543C732.316 25.1543 732.459 25.1848 732.592 25.2443C732.725 25.3037 732.846 25.3908 732.948 25.5006C733.05 25.6105 733.131 25.7408 733.186 25.8843C733.241 26.0279 733.27 26.1817 733.27 26.337Z" fill="#406FBB"/>
<path fill-rule="evenodd" clip-rule="evenodd" d="M1136.46 231.605C1136.46 231.838 1136.4 232.067 1136.28 232.262C1136.16 232.456 1135.98 232.608 1135.78 232.697C1135.58 232.787 1135.36 232.81 1135.15 232.765C1134.94 232.719 1134.74 232.607 1134.59 232.441C1134.43 232.276 1134.33 232.065 1134.29 231.836C1134.24 231.606 1134.27 231.368 1134.35 231.152C1134.43 230.936 1134.57 230.751 1134.75 230.621C1134.93 230.491 1135.15 230.422 1135.36 230.422C1135.65 230.422 1135.93 230.546 1136.14 230.768C1136.35 230.99 1136.46 231.291 1136.46 231.605V231.605Z" fill="#406FBB"/>
</g>
<defs>
<clipPath id="clip0_662_3122">
<rect width="1393.87" height="528.81" fill="white"/>
</clipPath>
</defs>
</svg>
