<svg width="512" height="512" fill="none" xmlns="http://www.w3.org/2000/svg"><path opacity=".15" d="M416 512H96c-53.024 0-96-42.976-96-96V96C0 42.976 42.976 0 96 0h320c53.024 0 96 42.976 96 96v320c0 53.024-42.976 96-96 96Z" fill="#FF6060"/><mask id="a" mask-type="alpha" maskUnits="userSpaceOnUse" x="128" y="128" width="256" height="256"><path d="M128 128h256v256H128V128Z" fill="#C4C4C4"/></mask><g mask="url(#a)" fill="#FF6060"><path d="M248.677 313.521a7.856 7.856 0 0 1-5.538-2.283l-56.287-56.232c-2.941-2.939-3.066-7.676-.282-10.755l46.103-51.136c32.742-37.785 84.665-63.83 129.125-64.658 2.831.031 4.192.797 5.678 2.282 1.502 1.516 2.347 3.564 2.3 5.675-.845 44.429-26.892 96.331-64.828 129.145l-51.046 45.961a7.771 7.771 0 0 1-5.225 2.001Zm-45.493-64.315 45.774 45.743 45.649-41.1c32.477-28.092 55.426-70.989 59.04-109.275-38.296 3.627-81.207 26.545-109.226 58.89l-41.237 45.742Z"/><path fill-rule="evenodd" clip-rule="evenodd" d="m242.133 312.244-56.286-56.232c-3.476-3.473-3.626-9.072-.332-12.716l46.092-51.124c32.97-38.041 85.251-64.301 130.164-65.138l.042-.001c1.541.017 2.79.236 3.893.714 1.107.479 1.965 1.175 2.775 1.985l.006.005c1.761 1.779 2.766 4.194 2.711 6.705-.854 44.882-27.118 97.142-65.31 130.182l-51.032 45.95a9.19 9.19 0 0 1-6.18 2.368 9.298 9.298 0 0 1-6.543-2.698Zm62.814-46.686c37.937-32.814 63.984-84.716 64.829-129.145.047-2.111-.798-4.158-2.3-5.675-1.486-1.485-2.847-2.251-5.679-2.282-44.46.828-96.382 26.873-129.124 64.658L186.57 244.25c-2.785 3.08-2.659 7.816.282 10.755l56.286 56.233a7.863 7.863 0 0 0 5.538 2.282 7.768 7.768 0 0 0 5.225-2.001l51.046-45.961Zm-11.271-12.785c31.74-27.455 54.287-69.162 58.379-106.607-37.458 4.103-79.177 26.619-106.559 58.228l-.018.022-40.333 44.738 43.864 43.834 44.667-40.215Zm-44.718 42.175-45.774-45.742 41.237-45.743c27.667-31.939 69.856-54.687 107.783-58.744.482-.052.963-.1 1.443-.146-.045.481-.094.961-.145 1.443-4.046 37.916-26.826 80.092-58.895 107.833l-45.649 41.099Z"/><path d="M269.717 350.606a7.684 7.684 0 0 1-2.127-.297 7.782 7.782 0 0 1-5.491-5.706l-11.045-46.119c-1.001-4.205 1.596-8.411 5.788-9.427 4.24-1.032 8.417 1.595 9.434 5.785l7.337 30.61c13.578-21.23 16.301-48.417 16.582-64.332.078-4.299 3.27-7.457 7.963-7.676 4.302.079 7.744 3.659 7.665 7.958-.657 36.988-11.514 67.849-30.583 86.906a7.777 7.777 0 0 1-5.523 2.298Z"/><path fill-rule="evenodd" clip-rule="evenodd" d="m266.275 294.841 7.337 30.61a74.83 74.83 0 0 0 1.056-1.698c12.666-20.963 15.253-47.139 15.527-62.633.078-4.299 3.27-7.457 7.963-7.676 4.302.078 7.743 3.658 7.665 7.957-.657 36.989-11.514 67.849-30.584 86.906a7.769 7.769 0 0 1-5.522 2.298 7.647 7.647 0 0 1-2.127-.297 7.782 7.782 0 0 1-5.491-5.706l-11.045-46.118c-1.001-4.206 1.596-8.411 5.788-9.427 4.24-1.032 8.417 1.594 9.433 5.784Zm-9.768-7.166c5.02-1.221 9.953 1.895 11.151 6.831l6.534 27.26c11.828-20.417 14.314-45.555 14.581-60.671.093-5.123 3.952-8.821 9.318-9.072l.093-.004m-41.677 35.656c-4.949 1.199-8.02 6.166-6.837 11.138l11.045 46.118c0-.001 0 0 0 0a9.205 9.205 0 0 0 6.485 6.745 9.192 9.192 0 0 0 9.045-2.363"/><path d="M201.446 247.311a7.303 7.303 0 0 1-1.814-.219l-46.15-11.053a7.765 7.765 0 0 1-5.71-5.472 7.812 7.812 0 0 1 2.003-7.644c19.07-19.057 49.935-29.907 86.964-30.564 4.897.219 7.885 3.362 7.963 7.676.078 4.315-3.364 7.88-7.681 7.958-15.926.281-43.115 2.986-64.359 16.571l30.63 7.332c4.209 1.001 6.806 5.222 5.789 9.427-.876 3.58-4.083 5.988-7.635 5.988Z"/><path fill-rule="evenodd" clip-rule="evenodd" d="M236.803 190.937c2.743.123 5.066 1.074 6.724 2.711 1.66 1.64 2.552 3.871 2.597 6.36.092 5.102-3.976 9.313-9.078 9.405-15.127.267-40.268 2.738-60.697 14.57l27.272 6.528c.001 0 0 0 0 0 4.971 1.183 8.044 6.172 6.842 11.145-1.035 4.231-4.826 7.075-9.017 7.075-.69 0-1.417-.072-2.156-.26l-46.136-11.05c-.001 0 .001 0 0 0a9.187 9.187 0 0 1-6.751-6.471 9.235 9.235 0 0 1 2.366-9.035c19.415-19.402 50.687-30.319 87.945-30.979l.089.001Zm-37.171 56.153c.61.157 1.22.219 1.814.219 3.552 0 6.759-2.407 7.635-5.987 1.017-4.206-1.58-8.427-5.789-9.427l-30.63-7.332a74.83 74.83 0 0 1 1.698-1.056c20.977-12.671 47.157-15.242 62.661-15.516 4.317-.078 7.759-3.642 7.681-7.957-.078-4.315-3.066-7.457-7.963-7.676-37.029.656-67.894 11.506-86.964 30.563a7.814 7.814 0 0 0-2.003 7.645 7.762 7.762 0 0 0 5.71 5.471l46.15 11.053Z"/><path d="M142.938 362.955a7.827 7.827 0 0 1-5.538-2.283 7.803 7.803 0 0 1-1.955-7.769c2.581-8.63 15.988-52.185 26.501-62.69 12.687-12.663 33.274-12.663 45.962 0 12.671 12.663 12.655 33.268 0 45.931-10.513 10.49-54.097 23.919-62.733 26.498a8.315 8.315 0 0 1-2.237.313Zm42.004-66.614c-4.302 0-8.635 1.626-11.92 4.909-4.428 4.44-12.078 24.013-18.054 41.85 17.866-5.971 37.468-13.601 41.895-18.04 6.555-6.567 6.555-17.26 0-23.81a16.886 16.886 0 0 0-11.921-4.909Zm17.443 34.268h.157-.157Z"/><path fill-rule="evenodd" clip-rule="evenodd" d="M160.94 289.205h.001c13.242-13.218 34.729-13.218 47.971 0h.001c13.228 13.22 13.211 34.725 0 47.943l-.001.001c-2.809 2.803-7.692 5.694-13.405 8.475-5.755 2.802-12.504 5.562-19.17 8.065-13.334 5.008-26.424 9.021-30.755 10.315l-.02.006a9.762 9.762 0 0 1-2.624.366 9.251 9.251 0 0 1-6.543-2.699 9.224 9.224 0 0 1-2.312-9.185c1.294-4.328 5.302-17.409 10.306-30.732 2.503-6.662 5.262-13.406 8.065-19.158 2.782-5.709 5.677-10.589 8.486-13.397Zm-25.495 63.696a7.802 7.802 0 0 0 1.955 7.77 7.832 7.832 0 0 0 5.538 2.283c.751 0 1.518-.11 2.237-.313 8.636-2.58 52.22-16.009 62.732-26.499 12.656-12.663 12.672-33.268 0-45.931-12.687-12.663-33.274-12.663-45.961 0-10.513 10.506-23.92 54.061-26.501 62.69Zm60.411-28.847v-.001c6.001-6.01 6-15.802.004-21.796a15.467 15.467 0 0 0-10.918-4.495c-3.946 0-7.911 1.491-10.915 4.492-.942.945-2.166 2.83-3.594 5.558-1.407 2.688-2.947 6.068-4.545 9.887-2.871 6.861-5.903 15.081-8.652 23.134 8.067-2.746 16.301-5.774 23.171-8.641 3.824-1.596 7.206-3.135 9.895-4.542 2.731-1.428 4.614-2.653 5.554-3.596ZM156.66 342.53c-.565.192-1.129.381-1.692.569l.57-1.691c5.885-17.365 13.196-35.86 17.483-40.16 3.286-3.283 7.619-4.908 11.921-4.908a16.89 16.89 0 0 1 11.921 4.908c6.555 6.551 6.555 17.244 0 23.81-4.288 4.3-22.81 11.592-40.203 17.472Z"/></g></svg>