<svg width="512" height="512" fill="none" xmlns="http://www.w3.org/2000/svg"><path opacity=".15" d="M416 512H96c-53.024 0-96-42.976-96-96V96C0 42.976 42.976 0 96 0h320c53.024 0 96 42.976 96 96v320c0 53.024-42.976 96-96 96Z" fill="#FF6060"/><mask id="a" mask-type="alpha" maskUnits="userSpaceOnUse" x="128" y="128" width="256" height="256"><path d="M128 128h256v256H128V128Z" fill="#C4C4C4"/></mask><g mask="url(#a)" fill="#FF6060"><path d="M351.445 325.932c-.74-.475-6.307-4.329-11.881-15.99-10.237-21.414-12.386-51.58-12.386-73.115 0-.094-.002-.187-.005-.28-.112-28.462-17.354-52.996-42.028-64.004v-16.836c0-15.278-12.554-27.707-27.985-27.707h-2.32c-15.431 0-27.985 12.429-27.985 27.707v16.835c-24.757 11.043-42.033 35.703-42.033 64.285 0 21.535-2.149 51.7-12.386 73.115-5.574 11.66-11.141 15.515-11.881 15.99-3.117 1.426-4.654 4.719-3.937 8.057.724 3.371 3.912 5.695 7.393 5.695h54.036c.302 20.471 17.206 37.035 37.953 37.035 20.748 0 37.651-16.564 37.953-37.035h54.036c3.481 0 6.669-2.324 7.393-5.695.716-3.338-.82-6.632-3.937-8.057ZM241.6 155.707c0-7.229 5.939-13.11 13.241-13.11h2.319c7.301 0 13.241 5.881 13.241 13.11v12.104a71.871 71.871 0 0 0-14.403-1.451c-4.931 0-9.747.5-14.398 1.45v-12.103ZM256 362.122c-12.617 0-22.909-10.016-23.209-22.438h46.418c-.299 12.422-10.591 22.438-23.209 22.438Zm29.685-37.036H180.812a76.251 76.251 0 0 0 3.864-6.702c9.88-19.258 14.89-46.698 14.89-81.557 0-30.807 25.316-55.87 56.432-55.87 31.116 0 56.431 25.063 56.431 55.894 0 .09.002.179.005.269.028 34.719 5.038 62.06 14.891 81.264a76.111 76.111 0 0 0 3.863 6.702h-45.503Z"/><path fill-rule="evenodd" clip-rule="evenodd" d="M355.382 333.989c-.724 3.371-3.912 5.694-7.393 5.694h-54.035c-.302 20.472-17.206 37.035-37.954 37.035s-37.651-16.563-37.953-37.035h-54.036c-3.481 0-6.669-2.323-7.393-5.694-.717-3.338.82-6.632 3.937-8.057.74-.476 6.307-4.33 11.881-15.991 10.237-21.414 12.385-51.58 12.385-73.115 0-28.581 17.277-53.241 42.034-64.285v-16.835c0-15.277 12.554-27.706 27.985-27.706h2.319c15.432 0 27.986 12.429 27.986 27.706v16.836c24.674 11.008 41.916 35.543 42.028 64.004.003.094.005.186.005.28 0 21.535 2.149 51.701 12.386 73.115 5.574 11.661 11.141 15.516 11.881 15.991 3.117 1.425 4.653 4.719 3.937 8.057Zm-2.89-9.923c3.971 1.905 5.877 6.168 4.976 10.37-.959 4.463-5.109 7.381-9.479 7.381H296c-1.401 20.672-18.817 37.035-40 37.035s-38.599-16.363-40-37.035h-51.989c-4.371 0-8.52-2.917-9.479-7.38-.903-4.204 1.005-8.466 4.975-10.37.861-.588 5.886-4.339 11.004-15.046 10.014-20.949 12.177-50.692 12.177-72.195 0-28.975 17.224-54.019 42.033-65.655v-15.465c0-16.476 13.53-29.84 30.119-29.84h2.319c16.59 0 30.119 13.364 30.119 29.84v15.466c24.716 11.594 41.902 36.494 42.028 65.333l-.001-.037m23.187 87.598c-.86-.586-5.885-4.338-11.003-15.045-10.015-20.948-12.178-50.692-12.178-72.195l-.001-.135c0-.063-.002-.125-.004-.186m-85.573-80.901v9.639a74.243 74.243 0 0 1 12.265-1.017c4.179 0 8.278.349 12.27 1.018v-9.538c0-6.03-4.965-10.976-11.108-10.976h-2.319c-6.109 0-11.052 4.89-11.108 10.874Zm26.668.102c0-7.228-5.94-13.109-13.241-13.109h-2.319c-6.568 0-12.034 4.758-13.066 10.976-.11.658-.169 1.333-.175 2.02l-.001.113.001 12.103a72.067 72.067 0 0 1 14.398-1.449 72.015 72.015 0 0 1 14.403 1.451v-12.105Zm-89.589 169.38c.441-.68.885-1.39 1.33-2.133a79.091 79.091 0 0 0 2.533-4.57c9.881-19.258 14.891-46.697 14.891-81.557 0-30.806 25.315-55.869 56.432-55.869 31.116 0 56.431 25.063 56.431 55.893 0 .09.002.18.005.269.028 34.72 5.038 62.061 14.891 81.264a78.759 78.759 0 0 0 2.533 4.57c.445.743.889 1.453 1.33 2.133H180.812Zm3.805-2.133h142.766a82 82 0 0 1-1.956-3.596c-10.071-19.626-15.095-47.342-15.126-82.199a8.072 8.072 0 0 1-.005-.308c0-29.633-24.341-53.76-54.298-53.76-29.959 0-54.299 24.128-54.299 53.736 0 35.014-5.024 62.842-15.125 82.531a83.653 83.653 0 0 1-1.957 3.596Zm50.475 18.864c1.337 10.22 10.186 18.171 20.908 18.171 10.722 0 19.571-7.951 20.907-18.171h-41.815Zm-2.15 0a23.067 23.067 0 0 1-.151-2.133h46.417c-.017.72-.068 1.431-.151 2.133-1.348 11.415-11.17 20.304-23.057 20.304-11.887 0-21.709-8.888-23.058-20.304Z"/></g></svg>