<svg width="512" height="512" fill="none" xmlns="http://www.w3.org/2000/svg"><path opacity=".15" d="M416 512H96c-53.024 0-96-42.976-96-96V96C0 42.976 42.976 0 96 0h320c53.024 0 96 42.976 96 96v320c0 53.024-42.976 96-96 96Z" fill="#FF6060"/><mask id="a" mask-type="alpha" maskUnits="userSpaceOnUse" x="128" y="128" width="256" height="256"><path d="M128 128h256v256H128V128Z" fill="#C4C4C4"/></mask><g mask="url(#a)" fill="#FF6060"><path d="M351.703 341.333H160.296c-13.882 0-25.185-11.303-25.185-25.185V205.333c0-13.882 11.303-25.185 25.185-25.185h191.407c13.882 0 25.185 11.303 25.185 25.185v110.815c0 13.882-11.303 25.185-25.185 25.185Zm15.111-135.999c0-8.332-6.779-15.112-15.111-15.112H160.296c-8.331 0-15.111 6.78-15.111 15.112v110.814c0 8.331 6.78 15.111 15.111 15.111h191.407c8.331 0 15.111-6.78 15.111-15.111V205.334Z"/><path fill-rule="evenodd" clip-rule="evenodd" d="M364.681 205.221v110.927c0 7.153-5.825 12.978-12.978 12.978H160.296c-7.153 0-12.978-5.825-12.978-12.978V205.334c0-7.153 5.825-12.978 12.978-12.978h191.407c7.116 0 12.917 5.763 12.978 12.865Zm1.983-2.02c-1.039-7.325-7.353-12.978-14.961-12.978H160.296c-8.331 0-15.111 6.78-15.111 15.111v110.814c0 8.332 6.78 15.111 15.111 15.111h191.407c8.331 0 15.111-6.779 15.111-15.111V205.212a14.976 14.976 0 0 0-.15-2.011ZM160.296 343.467h191.407c15.061 0 27.319-12.258 27.318-27.319V205.334c0-15.061-12.258-27.319-27.318-27.319H160.296c-15.06 0-27.318 12.258-27.318 27.319v110.814c0 15.061 12.258 27.319 27.318 27.319Zm0-2.133h191.407c13.882 0 25.185-11.303 25.185-25.186V205.334c0-13.882-11.303-25.185-25.185-25.185H160.296c-13.882 0-25.185 11.303-25.185 25.185v110.814c0 13.883 11.303 25.186 25.185 25.186Z"/><path d="M371.851 311.113H140.148a5.04 5.04 0 0 1-5.037-5.037v-30.223a5.04 5.04 0 0 1 5.037-5.037h231.704a5.04 5.04 0 0 1 5.037 5.037v30.223a5.04 5.04 0 0 1-5.038 5.037Zm-5.037-30.222H145.185v20.148h221.629v-20.148Z"/><path fill-rule="evenodd" clip-rule="evenodd" d="M366.814 280.891v20.148H145.185v-20.148h221.629Zm-219.496 2.133h217.363v15.882H147.318v-15.882Zm-7.17 30.223h231.703a7.173 7.173 0 0 0 7.171-7.171v-30.222a7.173 7.173 0 0 0-7.17-7.171H140.148a7.173 7.173 0 0 0-7.17 7.171v30.222a7.173 7.173 0 0 0 7.17 7.171Zm0-2.134h231.703a5.04 5.04 0 0 0 5.038-5.037v-30.222a5.039 5.039 0 0 0-5.037-5.037H140.148a5.039 5.039 0 0 0-5.037 5.037v30.222a5.04 5.04 0 0 0 5.037 5.037Z"/><path d="M230.814 240.595H170.37a5.04 5.04 0 0 1-5.037-5.038 5.039 5.039 0 0 1 5.037-5.036h60.444a5.039 5.039 0 0 1 5.038 5.037 5.04 5.04 0 0 1-5.038 5.037Z"/><path fill-rule="evenodd" clip-rule="evenodd" d="M170.37 242.728h60.444a7.172 7.172 0 0 0 7.171-7.17 7.173 7.173 0 0 0-7.171-7.17H170.37a7.172 7.172 0 0 0-7.17 7.17 7.172 7.172 0 0 0 7.17 7.17Zm0-2.133h60.444a5.039 5.039 0 0 0 5.038-5.037 5.04 5.04 0 0 0-5.038-5.037H170.37a5.039 5.039 0 0 0-5.037 5.037 5.04 5.04 0 0 0 5.037 5.037Z"/><path d="M230.814 220.446H170.37a5.04 5.04 0 0 1-5.037-5.037 5.04 5.04 0 0 1 5.037-5.037h60.444a5.04 5.04 0 0 1 5.038 5.037 5.04 5.04 0 0 1-5.038 5.037Z"/><path fill-rule="evenodd" clip-rule="evenodd" d="M237.985 215.41v-.001a7.173 7.173 0 0 0-7.171-7.17H170.37a7.172 7.172 0 0 0-7.17 7.17 7.173 7.173 0 0 0 7.17 7.171h60.444a7.173 7.173 0 0 0 7.171-7.17Zm-67.615 5.037h60.444a5.04 5.04 0 0 0 5.038-5.038 5.04 5.04 0 0 0-5.038-5.037H170.37a5.04 5.04 0 0 0-5.037 5.037 5.04 5.04 0 0 0 5.037 5.038Z"/><path d="M331.555 250.67h-10.074c-8.332 0-15.111-6.78-15.111-15.111v-10.074c0-8.331 6.779-15.111 15.111-15.111h10.074c8.331 0 15.111 6.78 15.111 15.111v10.074c0 8.331-6.78 15.111-15.111 15.111Zm5.037-25.185a5.039 5.039 0 0 0-5.037-5.037h-10.074a5.038 5.038 0 0 0-5.037 5.037v10.074a5.039 5.039 0 0 0 5.037 5.037h10.074a5.04 5.04 0 0 0 5.037-5.037v-10.074Z"/><path fill-rule="evenodd" clip-rule="evenodd" d="M321.481 252.804h10.074c9.51 0 17.244-7.735 17.244-17.245v-10.073c0-9.51-7.735-17.245-17.244-17.245h-10.074c-9.51 0-17.244 7.735-17.244 17.245v10.073c0 9.51 7.734 17.245 17.244 17.245Zm10.074-30.223a2.906 2.906 0 0 1 2.904 2.904v10.074a2.906 2.906 0 0 1-2.904 2.904h-10.074a2.906 2.906 0 0 1-2.904-2.904v-10.074a2.906 2.906 0 0 1 2.904-2.904h10.074Zm-10.074 28.089h10.074c8.331 0 15.111-6.78 15.111-15.111v-10.073c0-8.332-6.78-15.112-15.111-15.112h-10.074c-8.331 0-15.111 6.78-15.111 15.112v10.073c0 8.332 6.78 15.111 15.111 15.111Zm10.074-30.222a5.04 5.04 0 0 1 5.037 5.037v10.074a5.04 5.04 0 0 1-5.037 5.037h-10.074a5.04 5.04 0 0 1-5.037-5.037v-10.074a5.04 5.04 0 0 1 5.037-5.037h10.074Z"/></g></svg>