<svg width="512" height="512" fill="none" xmlns="http://www.w3.org/2000/svg"><path opacity=".15" d="M416 512H96c-53.024 0-96-42.976-96-96V96C0 42.976 42.976 0 96 0h320c53.024 0 96 42.976 96 96v320c0 53.024-42.976 96-96 96Z" fill="#FF6060"/><mask id="a" mask-type="alpha" maskUnits="userSpaceOnUse" x="128" y="128" width="256" height="256"><path d="M128 128h256v256H128V128Z" fill="#C4C4C4"/></mask><g mask="url(#a)"><path d="m349.872 165.275-90.337-36.143a9.545 9.545 0 0 0-7.07 0l-90.337 36.143c-3.441 1.377-5.684 4.614-5.684 8.204v43.936c0 60.498 37.946 114.917 96.072 137.779a9.546 9.546 0 0 0 6.968 0c58.125-22.862 96.072-77.281 96.072-137.779v-43.936c0-3.59-2.243-6.827-5.684-8.204Zm-12.753 52.14c0 51.429-31.341 98.773-81.119 119.906-48.448-20.568-81.119-67.083-81.119-119.906v-38.006L256 146.954l81.119 32.455v38.006Zm-91.308 29.941 39.621-38.179c3.6-3.469 9.437-3.469 13.037 0 3.6 3.469 3.599 9.093-.001 12.562l-46.139 44.46c-3.6 3.47-9.437 3.469-13.036 0l-25.762-24.824c-3.6-3.47-3.6-9.094 0-12.562 3.6-3.469 9.437-3.47 13.037 0l19.243 18.543Z" fill="#FF6060"/></g></svg>