<svg width="512" height="512" fill="none" xmlns="http://www.w3.org/2000/svg"><path opacity=".15" d="M416 512H96c-53.024 0-96-42.976-96-96V96C0 42.976 42.976 0 96 0h320c53.024 0 96 42.976 96 96v320c0 53.024-42.976 96-96 96Z" fill="#FF6060"/><mask id="a" mask-type="alpha" maskUnits="userSpaceOnUse" x="128" y="128" width="256" height="256"><path d="M128 128h256v256H128V128Z" fill="#C4C4C4"/></mask><g mask="url(#a)"><path d="M374.122 176.545c-32.441-31.449-83.594-33.213-118.122-5.858-34.518-27.347-85.67-25.604-118.122 5.858a9.008 9.008 0 0 0-2.767 6.474V327.07c0 8.127 10.177 12.235 16.122 6.473 27.044-26.217 71.046-26.215 98.089 0 3.688 3.575 9.668 3.575 13.355 0 27.044-26.217 71.046-26.215 98.09 0 5.927 5.747 16.122 1.676 16.122-6.473V183.019a9.008 9.008 0 0 0-2.767-6.474ZM358 308.232c-31.523-18.819-72.702-16.646-102 6.513-29.405-23.245-70.595-25.262-102-6.511V186.951c26.917-23.429 68.836-23.134 95.322 2.541 3.686 3.575 9.668 3.577 13.355.002 26.456-25.647 68.371-26.005 95.323-2.543v121.281Zm-19.808-101.106c4.881 1.785 7.346 7.067 5.505 11.797-1.841 4.731-7.29 7.121-12.171 5.336a71.44 71.44 0 0 0-49.676.231c-4.86 1.827-10.333-.503-12.222-5.222-1.889-4.714.524-10.018 5.386-11.849a90.865 90.865 0 0 1 63.178-.293Zm-94.876 12.142c-1.894 4.733-7.38 7.046-12.222 5.222a71.44 71.44 0 0 0-49.676-.231c-4.88 1.785-10.329-.605-12.17-5.334-1.841-4.732.623-10.014 5.504-11.799a90.865 90.865 0 0 1 63.178.295c4.863 1.829 7.275 7.133 5.386 11.847Zm100.381 43.921c-1.841 4.73-7.29 7.119-12.171 5.334a71.434 71.434 0 0 0-49.676.232c-4.86 1.828-10.333-.502-12.222-5.221-1.889-4.714.524-10.02 5.386-11.849a90.865 90.865 0 0 1 63.178-.295c4.881 1.785 7.346 7.067 5.505 11.799Zm-100.381.345c-1.894 4.733-7.38 7.044-12.222 5.221a71.457 71.457 0 0 0-49.676-.232c-4.88 1.786-10.329-.604-12.17-5.334-1.841-4.732.623-10.014 5.504-11.799a90.865 90.865 0 0 1 63.178.295c4.863 1.829 7.275 7.135 5.386 11.849Z" fill="#FF6060"/></g></svg>