<svg width="512" height="512" fill="none" xmlns="http://www.w3.org/2000/svg"><path opacity=".1" d="M416 512H96c-53.024 0-96-42.976-96-96V96C0 42.976 42.976 0 96 0h320c53.024 0 96 42.976 96 96v320c0 53.024-42.976 96-96 96Z" fill="#FFA14A"/><path d="M175.852 331.293h-6.211v12.451h6.211c3.488 0 6.211-2.744 6.211-6.216.019-3.509-2.723-6.235-6.211-6.235Zm65.281 0h-9.326v37.303h9.326a3.085 3.085 0 0 0 3.115-3.114V334.39c0-1.735-1.362-3.097-3.115-3.097Z" fill="#FFA14A"/><path d="M328.18 306.413c-59.928 0-108.795-48.867-108.795-108.794 0-33.704 15.425-63.919 39.672-83.932H147.893c-18.912 0-34.207 15.294-34.207 34.188v230.029c0 18.913 15.295 34.207 34.189 34.207H328.18c18.894 0 34.189-15.294 34.189-34.188v-76.975c-10.688 3.488-22.252 5.465-34.189 5.465Zm-152.328 55.954h-6.211v15.537c0 5.092-4.234 9.326-9.326 9.326-5.092 0-9.326-4.234-9.326-9.326V321.95c0-5.092 4.234-9.326 9.326-9.326h15.537c13.672 0 24.863 11.191 24.863 24.862.018 13.691-11.173 24.881-24.863 24.881Zm87.047 3.115c0 11.937-9.829 21.767-21.766 21.767h-18.652c-5.092 0-9.326-4.234-9.326-9.326v-55.955c0-5.092 4.234-9.326 9.326-9.326h18.652c11.937 0 21.766 9.83 21.766 21.767v31.073Zm52.84-21.766c5.148 0 9.326 4.178 9.326 9.326 0 5.148-4.178 9.325-9.326 9.325h-21.766v15.537c0 5.148-4.178 9.326-9.326 9.326-5.148 0-9.326-4.178-9.326-9.326V334.39c0-11.993 9.755-21.766 21.767-21.766h18.651c5.148 0 9.326 4.178 9.326 9.326 0 5.147-4.178 9.325-9.326 9.325h-18.651a3.12 3.12 0 0 0-3.115 3.115v9.326h21.766Z" fill="#FFA14A"/><path d="M326.848 113.687c-47.009 0-85.265 38.255-85.265 85.264 0 47.009 38.256 85.264 85.265 85.264s85.264-38.255 85.264-85.264c0-47.009-38.255-85.264-85.264-85.264Zm41.078 68.325-44.205 50.533a12.575 12.575 0 0 1-9.076 4.301h-.416a12.637 12.637 0 0 1-8.925-3.695l-25.257-25.257c-4.926-4.926-4.926-12.922 0-17.867 4.926-4.927 12.922-4.927 17.868 0l15.707 15.707 35.319-40.377c4.604-5.23 12.562-5.779 17.83-1.175 5.229 4.604 5.76 12.562 1.155 17.83Z" fill="#FFA14A"/></svg>