<svg width="512" height="512" fill="none" xmlns="http://www.w3.org/2000/svg"><path opacity=".15" d="M416 512H96c-53.024 0-96-42.976-96-96V96C0 42.976 42.976 0 96 0h320c53.024 0 96 42.976 96 96v320c0 53.024-42.976 96-96 96Z" fill="#FF6060"/><mask id="a" mask-type="alpha" maskUnits="userSpaceOnUse" x="128" y="128" width="256" height="256"><path d="M128 128h256v256H128V128Z" fill="#C4C4C4"/></mask><g mask="url(#a)"><path d="M252.444 135.111c-47.75 0-86.597 38.819-86.597 86.534 0 21.204 7.676 40.646 20.39 55.71v93.628c0 7.677 8.616 12.248 14.98 7.936l51.227-34.705 51.228 34.705c6.361 4.31 14.98-.254 14.98-7.936v-93.627c12.714-15.065 20.39-34.507 20.39-55.711 0-47.715-38.848-86.534-86.598-86.534Zm47.017 217.787-41.632-28.205a9.603 9.603 0 0 0-10.769 0l-41.632 28.205v-58.617a86.136 86.136 0 0 0 47.016 13.899 86.137 86.137 0 0 0 47.017-13.899v58.617Zm-47.017-63.895c-37.168 0-67.406-30.216-67.406-67.358 0-37.141 30.238-67.357 67.406-67.357 37.169 0 67.407 30.216 67.407 67.357 0 37.142-30.238 67.358-67.407 67.358Z" fill="#FF6060"/></g></svg>