<svg width="512" height="512" fill="none" xmlns="http://www.w3.org/2000/svg"><path opacity=".15" d="M416 512H96c-53.024 0-96-42.976-96-96V96C0 42.976 42.976 0 96 0h320c53.024 0 96 42.976 96 96v320c0 53.024-42.976 96-96 96Z" fill="#FF6060"/><mask id="a" mask-type="alpha" maskUnits="userSpaceOnUse" x="128" y="128" width="256" height="256"><path d="M128 128h256v256H128V128Z" fill="#C4C4C4"/></mask><g mask="url(#a)"><path d="M358.445 135.111c-14.103-.052-25.555 11.915-25.605 26.651 0 6.95 2.551 13.638 7.201 18.603l-46.759 97.77c-1-.157-2.05-.314-3.1-.314-3.301 0-6.602.679-9.652 1.986l-36.307-42.693a27.818 27.818 0 0 0 3.3-12.855c0-14.788-11.452-26.755-25.605-26.755-14.152 0-25.605 11.967-25.605 26.755.05 6.375 2.251 12.542 6.302 17.349l-44.459 81.257c-1.5-.313-3.051-.47-4.551-.47-14.153 0-25.605 11.967-25.605 26.755 0 14.788 11.452 26.755 25.605 26.755s25.605-11.967 25.605-26.755c-.05-6.375-2.25-12.541-6.301-17.349l44.408-81.257c4.751.993 9.702.47 14.153-1.516l36.307 42.693c-2.1 3.919-3.2 8.361-3.25 12.855-.05 14.788 11.402 26.807 25.505 26.859 14.152.053 25.655-11.914 25.705-26.65 0-6.95-2.551-13.691-7.202-18.707l46.759-97.771c1.001.157 2.051.314 3.101.314 14.153 0 25.605-11.967 25.605-26.755 0-14.788-11.402-26.755-25.555-26.755Z" fill="#FF6060"/></g></svg>