<svg width="512" height="512" fill="none" xmlns="http://www.w3.org/2000/svg"><path opacity=".15" d="M416 512H96c-53.024 0-96-42.976-96-96V96C0 42.976 42.976 0 96 0h320c53.024 0 96 42.976 96 96v320c0 53.024-42.976 96-96 96Z" fill="#FF6060"/><mask id="a" mask-type="alpha" maskUnits="userSpaceOnUse" x="128" y="128" width="256" height="256"><path d="M128 128h256v256H128V128Z" fill="#C4C4C4"/></mask><g mask="url(#a)" fill="#FF6060"><path d="M333.65 195.611H183.31l-.849.99c.754.33 1.698.519 2.264 1.084 6.51 6.412 12.972 12.917 19.482 19.375 2.878 2.829 4.057 6.223 2.972 10.135-1.934 6.93-10.378 9.287-15.85 4.432-1.981-1.745-3.774-3.725-5.661-5.61l-32.455-32.433c-5.141-5.185-5.189-10.465-.047-15.603 12.548-12.54 25.049-25.079 37.597-37.571 5.472-5.421 14.01-3.583 16.322 3.488 1.273 3.96.188 7.401-2.783 10.371-6.557 6.505-13.067 13.058-19.624 19.563-.566.566-1.132 1.179-2.17 2.263h149.821c9.67 0 17.124 5.091 19.671 13.718.613 2.074.849 4.29.849 6.458.094 9.853.047 19.658.047 29.51 0 5.563-4.245 9.9-9.67 9.9s-9.624-4.337-9.624-9.947v-27.483c.048-.754.048-1.603.048-2.64Zm-4.812 116.013H179.63c-9.576 0-16.982-5.091-19.577-13.53-.613-2.074-.849-4.289-.896-6.458-.094-9.24-.047-18.479-.047-27.672 0-5.94 4.01-10.135 9.576-10.135 5.614 0 9.67 4.101 9.718 10.041.047 8.627 0 17.254 0 25.88v2.546h150.481c.236-.283.519-.613.755-.896-.802-.424-1.746-.707-2.359-1.32-6.604-6.552-13.208-13.105-19.765-19.752-3.68-3.724-4.152-8.91-1.274-12.822 3.585-4.95 10.284-5.469 14.859-.943 8.256 8.108 16.416 16.358 24.577 24.561l13.492 13.482c4.623 4.667 4.67 10.23.094 14.802-12.737 12.729-25.473 25.504-38.257 38.185-3.302 3.253-7.406 4.054-11.227 2.263-3.632-1.697-5.85-5.374-5.614-9.334.142-2.593 1.274-4.762 3.114-6.6 6.698-6.647 13.397-13.388 20.095-20.035.566-.566 1.415-.849 2.17-1.273-.188-.33-.471-.66-.707-.99Z"/></g></svg>