<svg width="512" height="512" fill="none" xmlns="http://www.w3.org/2000/svg"><path opacity=".15" d="M416 512H96c-53.024 0-96-42.976-96-96V96C0 42.976 42.976 0 96 0h320c53.024 0 96 42.976 96 96v320c0 53.024-42.976 96-96 96Z" fill="#FF6060"/><mask id="a" mask-type="alpha" maskUnits="userSpaceOnUse" x="128" y="128" width="256" height="256"><path d="M128 128h256v256H128V128Z" fill="#C4C4C4"/></mask><g mask="url(#a)" fill="#FF6060"><path d="M253.697 323.388c-2.71 0-4.91 2.2-4.91 4.91s2.2 4.91 4.91 4.91c2.711 0 4.91-2.2 4.91-4.91s-2.199-4.91-4.91-4.91Z"/><path fill-rule="evenodd" clip-rule="evenodd" d="M247.365 328.298a6.334 6.334 0 0 1 6.332-6.332 6.335 6.335 0 0 1 6.333 6.332 6.335 6.335 0 0 1-6.333 6.333 6.334 6.334 0 0 1-6.332-6.333Zm1.422 0c0-2.71 2.2-4.91 4.91-4.91a4.91 4.91 0 1 1-4.91 4.91Z"/><path d="M358.324 163.991c-12.082-4.866-27.792-7.547-44.233-7.547-16.441 0-32.151 2.681-44.233 7.547-7.14 2.876-12.592 6.391-16.161 10.334-3.568-3.943-9.02-7.457-16.16-10.333-12.083-4.867-27.792-7.548-44.233-7.548-16.442 0-32.151 2.681-44.233 7.547C135.483 169.464 128 177.246 128 185.905v117.841c0 8.658 7.483 16.441 21.071 21.914 11.237 4.526 25.613 7.157 40.796 7.504v.042c0 16.796 27.441 29.461 63.83 29.461 36.39 0 63.831-12.665 63.831-29.461v-.042c15.183-.347 29.559-2.978 40.796-7.504 13.588-5.473 21.071-13.256 21.071-21.914V185.905c0-8.659-7.483-16.441-21.071-21.914Zm11.251 110.295c0 4.191-5.717 9.098-14.92 12.804-9.96 4.012-23.332 6.439-37.127 6.787v-19.591l-.001-.043c15.183-.346 29.559-2.977 40.798-7.504 4.41-1.776 8.173-3.797 11.25-6.012v13.559Zm-120.788-58.921c0 4.192-5.716 9.098-14.919 12.805-10.786 4.344-25.571 6.835-40.564 6.835-14.994 0-29.779-2.491-40.565-6.835-9.202-3.707-14.919-8.613-14.919-12.805v-13.559c3.077 2.215 6.84 4.236 11.251 6.012 12.082 4.867 27.791 7.547 44.233 7.547 16.441 0 32.15-2.68 44.233-7.547 4.411-1.776 8.173-3.797 11.25-6.012v13.559Zm-99.716 21.914c12.082 4.866 27.791 7.546 44.233 7.546 16.441 0 32.15-2.68 44.233-7.546 4.411-1.777 8.173-3.798 11.25-6.012v13.645c-12.702.43-24.884 2.515-34.737 5.985-9.882 3.481-16.994 8.122-20.861 13.567-14.954-.013-29.691-2.501-40.45-6.834-9.202-3.707-14.919-8.613-14.919-12.805v-13.558c3.077 2.214 6.84 4.235 11.251 6.012Zm-11.251 23.448c3.077 2.215 6.84 4.236 11.251 6.012 11.238 4.526 25.614 7.158 40.797 7.504l-.001.043v19.591c-13.796-.348-27.167-2.775-37.127-6.787-9.203-3.706-14.92-8.613-14.92-12.804v-13.559Zm62.386 11.146c3.639-8.468 24.642-17.227 53.491-17.227 28.85 0 49.853 8.759 53.488 17.218.352.825.523 1.617.523 2.422 0 4.317-5.322 9.112-14.237 12.826-10.545 4.394-24.67 6.814-39.774 6.814-15.103 0-29.229-2.42-39.774-6.814-8.914-3.714-14.236-8.509-14.236-12.826 0-.805.171-1.597.519-2.413Zm169.369-27.048c0 4.192-5.717 9.098-14.92 12.805-10.758 4.333-25.495 6.821-40.448 6.834-3.864-5.442-10.977-10.085-20.862-13.567-9.853-3.47-22.035-5.555-34.738-5.985v-13.645c3.078 2.214 6.84 4.235 11.251 6.012 12.082 4.866 27.792 7.546 44.233 7.546 16.441 0 32.151-2.68 44.233-7.546 4.411-1.777 8.173-3.798 11.251-6.012v13.558Zm0-29.46c0 4.192-5.717 9.098-14.92 12.805-10.786 4.344-25.571 6.835-40.564 6.835-14.993 0-29.778-2.491-40.564-6.835-9.203-3.707-14.92-8.613-14.92-12.805v-13.559c3.078 2.215 6.84 4.236 11.251 6.012 12.082 4.867 27.792 7.547 44.233 7.547 16.441 0 32.151-2.68 44.233-7.547 4.411-1.776 8.173-3.797 11.251-6.012v13.559ZM273.527 173.1c10.786-4.344 25.571-6.835 40.564-6.835 14.993 0 29.778 2.491 40.564 6.835 9.203 3.707 14.92 8.613 14.92 12.805 0 4.191-5.717 9.098-14.92 12.804-10.786 4.345-25.571 6.836-40.564 6.836-14.993 0-29.778-2.491-40.564-6.836-9.203-3.706-14.92-8.613-14.92-12.804 0-4.192 5.717-9.098 14.92-12.805Zm-120.788 0c10.786-4.344 25.571-6.835 40.565-6.835 14.993 0 29.778 2.491 40.564 6.835 9.203 3.707 14.919 8.613 14.919 12.805 0 4.191-5.716 9.098-14.919 12.804-10.786 4.345-25.571 6.836-40.564 6.836-14.994 0-29.779-2.491-40.565-6.836-9.202-3.706-14.919-8.613-14.919-12.804 0-4.192 5.717-9.098 14.919-12.805Zm0 143.45c-9.202-3.706-14.919-8.612-14.919-12.804v-13.559c3.077 2.215 6.84 4.236 11.251 6.012 11.237 4.526 25.613 7.158 40.796 7.505v19.634c-13.796-.349-27.168-2.776-37.128-6.788Zm140.732 29.483c-10.545 4.394-24.67 6.814-39.774 6.814-15.103 0-29.229-2.42-39.774-6.814-8.914-3.715-14.236-8.51-14.236-12.827v-13.272a43.051 43.051 0 0 0 3.704 2.393c7.625 4.412 17.999 7.676 30.002 9.438a4.91 4.91 0 0 0 1.427-9.716c-22.82-3.35-35.133-11.93-35.133-18.303V290.43c11.113 8.132 30.73 13.316 54.01 13.316 23.28 0 42.898-5.184 54.011-13.316v13.316c0 6.373-12.314 14.953-35.133 18.303a4.91 4.91 0 1 0 1.426 9.716c12.003-1.762 22.377-5.025 30.003-9.438a43.207 43.207 0 0 0 3.704-2.393v13.272c0 4.317-5.322 9.112-14.237 12.827Zm61.184-29.483c-9.96 4.012-23.332 6.439-37.127 6.788v-19.635c15.183-.346 29.559-2.978 40.796-7.504 4.411-1.777 8.173-3.798 11.251-6.012v13.559c0 4.192-5.717 9.098-14.92 12.804Z"/><path fill-rule="evenodd" clip-rule="evenodd" d="M269.326 162.672c12.29-4.949 28.187-7.649 44.765-7.649 16.577 0 32.475 2.7 44.764 7.649l-.531 1.32c-12.083-4.867-27.792-7.547-44.233-7.547-16.441 0-32.151 2.68-44.233 7.547-6.512 2.622-11.62 5.777-15.175 9.303a26.3 26.3 0 0 0-.986 1.031 26.268 26.268 0 0 0-.985-1.031c-3.555-3.526-8.663-6.68-15.175-9.303-12.083-4.867-27.792-7.547-44.233-7.547-16.442 0-32.151 2.68-44.234 7.547-13.587 5.472-21.07 13.255-21.07 21.913v117.841c0 8.659 7.483 16.441 21.07 21.914l-.531 1.319c-13.717-5.525-21.961-13.653-21.961-23.233V185.905c0-9.58 8.244-17.708 21.961-23.233 12.29-4.949 28.187-7.649 44.765-7.649 16.577 0 32.475 2.7 44.764 7.65 6.613 2.663 11.898 5.901 15.629 9.596 3.731-3.695 9.016-6.933 15.629-9.597Zm-79.459 170.492c-15.183-.346-29.559-2.978-40.797-7.504l-.531 1.319c11.099 4.47 25.139 7.101 39.959 7.571.691 8.663 8.047 15.902 19.042 20.976 11.645 5.375 27.819 8.563 46.157 8.563 18.339 0 34.513-3.188 46.158-8.563 10.994-5.074 18.351-12.313 19.042-20.976 14.82-.47 28.86-3.101 39.958-7.571 13.717-5.525 21.962-13.653 21.962-23.233V185.905c0-9.58-8.245-17.708-21.962-23.233l-.531 1.32c13.588 5.472 21.071 13.255 21.071 21.913v117.841c0 8.659-7.483 16.441-21.071 21.914-11.238 4.526-25.613 7.158-40.796 7.504v.043c0 16.795-27.441 29.46-63.831 29.46-36.389 0-63.83-12.665-63.83-29.46v-.043Zm-41.328-124.026c-3.484-1.403-6.591-2.964-9.297-4.663v10.89c0 1.465 1.034 3.378 3.513 5.505 2.426 2.083 6.007 4.165 10.516 5.981 10.575 4.259 25.171 6.732 40.033 6.732 14.861 0 29.457-2.473 40.033-6.732 4.508-1.816 8.089-3.898 10.515-5.981 2.479-2.127 3.513-4.04 3.513-5.505v-10.89c-2.706 1.699-5.813 3.26-9.297 4.663-12.289 4.95-28.187 7.65-44.764 7.65-16.578 0-32.475-2.7-44.765-7.65Zm-9.297-6.354c2.792 1.835 6.075 3.523 9.828 5.035 12.083 4.866 27.792 7.546 44.234 7.546 16.441 0 32.15-2.68 44.233-7.546 3.753-1.512 7.036-3.2 9.828-5.035.489-.321.963-.647 1.422-.977v13.558c0 4.192-5.717 9.098-14.919 12.805-10.786 4.344-25.571 6.836-40.564 6.836-14.994 0-29.779-2.492-40.565-6.836-9.202-3.707-14.919-8.613-14.919-12.805v-13.558c.459.33.933.656 1.422.977Zm74.336 46.772c9.658-3.401 21.467-5.478 33.787-6.012v-9.609c-2.706 1.699-5.813 3.26-9.297 4.663-12.289 4.95-28.187 7.65-44.764 7.65-16.578 0-32.475-2.7-44.765-7.65-3.484-1.403-6.591-2.964-9.297-4.663v10.891c0 1.464 1.034 3.377 3.513 5.505 2.426 2.082 6.007 4.164 10.516 5.98 10.378 4.18 24.627 6.638 39.2 6.729 4.187-5.514 11.44-10.079 21.107-13.484Zm-20.389 14.909c-14.954-.013-29.691-2.502-40.45-6.835-9.202-3.706-14.919-8.613-14.919-12.804v-13.559c.459.33.933.656 1.422.978 2.792 1.834 6.075 3.522 9.828 5.034 12.083 4.866 27.792 7.547 44.234 7.547 16.441 0 32.15-2.681 44.233-7.547 3.753-1.512 7.036-3.2 9.828-5.034.489-.322.963-.648 1.422-.978v13.646c-12.702.43-24.884 2.515-34.737 5.985-9.882 3.48-16.994 8.122-20.861 13.567Zm80.812 67.3a4.912 4.912 0 0 1-1.426-9.716c22.819-3.35 35.133-11.93 35.133-18.303V290.43c-.46.337-.934.668-1.422.994-11.321 7.558-30.272 12.322-52.589 12.322s-41.268-4.764-52.588-12.322a39.15 39.15 0 0 1-1.422-.994v13.316c0 6.373 12.313 14.953 35.133 18.303a4.91 4.91 0 0 1-1.427 9.716c-12.003-1.762-22.377-5.025-30.002-9.437a44.582 44.582 0 0 1-2.282-1.411 39.505 39.505 0 0 1-1.422-.983v13.273c0 4.317 5.322 9.112 14.236 12.826 10.545 4.394 24.67 6.814 39.774 6.814s29.229-2.42 39.774-6.814c8.915-3.714 14.237-8.509 14.237-12.826v-13.273c-.454.329-.928.657-1.422.983-.717.473-1.476.944-2.282 1.411-7.626 4.412-18 7.675-30.003 9.437Zm32.285-9.155c-.504.318-1.027.634-1.57.948-7.828 4.53-18.39 7.836-30.508 9.614a6.334 6.334 0 0 1-7.185-5.345m39.263-5.217v10.597c0 1.569-.986 3.493-3.305 5.582-2.288 2.061-5.693 4.113-10.057 5.931-10.325 4.303-24.253 6.705-39.227 6.705-14.973 0-28.901-2.402-39.227-6.705-4.364-1.818-7.768-3.87-10.056-5.931-2.319-2.089-3.305-4.013-3.305-5.582V322.61c.504.318 1.027.634 1.57.949m-1.57-30.437v10.624c0 1.132.553 2.545 1.935 4.149 1.374 1.593 3.482 3.272 6.353 4.899 5.738 3.251 14.342 6.191 25.629 7.848a6.332 6.332 0 0 1 5.345 7.185l-1.407-.207m-37.855-34.498c11.721 7.474 30.634 12.047 52.588 12.047 21.955 0 40.868-4.573 52.589-12.047m-153.015 22.11c9.415 3.792 22.022 6.165 35.173 6.64v-16.784c-14.8-.474-28.819-3.104-39.905-7.569-3.484-1.403-6.591-2.964-9.297-4.663v10.89c0 1.465 1.034 3.378 3.513 5.505 2.426 2.083 6.007 4.165 10.516 5.981Zm-15.451-11.486c0 4.192 5.717 9.098 14.919 12.805 9.618 3.874 22.416 6.27 35.705 6.744.474.017.948.031 1.423.044v-19.635c-15.183-.346-29.559-2.978-40.797-7.504-3.753-1.512-7.036-3.2-9.828-5.035a40.655 40.655 0 0 1-1.422-.977v13.558Zm226.82-23.955c2.478-2.127 3.512-4.041 3.512-5.505l.001-10.891c-2.706 1.7-5.813 3.26-9.297 4.664-11.086 4.465-25.106 7.095-39.906 7.569v16.783c13.151-.474 25.759-2.848 35.174-6.64 4.508-1.816 8.089-3.898 10.516-5.98Zm-45.69 14.043c13.289-.474 26.088-2.87 35.705-6.743 9.203-3.707 14.92-8.613 14.92-12.805v-13.559a39.34 39.34 0 0 1-1.422.978c-2.792 1.834-6.075 3.523-9.828 5.034-11.239 4.527-25.615 7.159-40.798 7.505l.001.042v19.592c.475-.012.949-.027 1.422-.044Zm-.001-19.617v.027-.027Zm-181.129-13.49v13.559c0 4.192 5.717 9.098 14.92 12.805 9.617 3.873 22.415 6.269 35.705 6.743.473.017.947.032 1.422.044v-19.591l.001-.043c-15.183-.347-29.559-2.979-40.798-7.505-3.753-1.511-7.036-3.2-9.828-5.034a39.34 39.34 0 0 1-1.422-.978Zm1.422 2.668c2.706 1.7 5.813 3.26 9.297 4.664 11.086 4.464 25.106 7.094 39.906 7.569v16.783c-13.151-.474-25.759-2.848-35.174-6.64-4.509-1.816-8.09-3.898-10.516-5.98-2.479-2.127-3.513-4.041-3.513-5.505v-10.891Zm49.204 10.821v.028-.028Zm18.401-7.434c-2.822 1.937-4.573 3.883-5.333 5.651-.281.658-.405 1.261-.405 1.853 0 1.57.986 3.493 3.305 5.583 2.288 2.061 5.692 4.112 10.056 5.931 10.326 4.302 24.254 6.704 39.227 6.704 14.974 0 28.902-2.402 39.227-6.704 4.364-1.819 7.769-3.87 10.057-5.931 2.319-2.09 3.305-4.013 3.305-5.583 0-.592-.124-1.194-.409-1.863-.759-1.765-2.509-3.709-5.331-5.645-2.801-1.921-6.547-3.758-11.118-5.352-9.139-3.187-21.441-5.358-35.731-5.358-14.29 0-26.591 2.171-35.731 5.359-4.571 1.595-8.318 3.432-11.119 5.355Zm-6.641 5.092c3.639-8.469 24.642-17.228 53.491-17.228 28.85 0 49.853 8.759 53.487 17.218.353.825.524 1.617.524 2.422 0 4.317-5.322 9.112-14.237 12.827-10.545 4.394-24.67 6.813-39.774 6.813s-29.229-2.419-39.774-6.813c-8.914-3.715-14.236-8.51-14.236-12.827 0-.805.171-1.597.519-2.412Zm164.434-21.543c2.478-2.128 3.512-4.041 3.512-5.505v-10.891c-2.706 1.699-5.813 3.26-9.297 4.663-12.289 4.95-28.187 7.65-44.764 7.65-16.578 0-32.475-2.7-44.765-7.65-3.483-1.403-6.591-2.964-9.296-4.663v9.609c12.32.534 24.129 2.61 33.787 6.012 9.67 3.406 16.923 7.973 21.108 13.484 14.572-.091 28.821-2.549 39.199-6.729 4.508-1.816 8.089-3.898 10.516-5.98Zm-50.433 14.134c-3.864-5.442-10.977-10.086-20.863-13.567-9.853-3.471-22.034-5.555-34.737-5.985v-13.646c.459.33.933.656 1.423.978 2.791 1.834 6.075 3.522 9.828 5.034 12.082 4.866 27.792 7.547 44.233 7.547 16.441 0 32.15-2.681 44.233-7.547 3.753-1.512 7.037-3.2 9.828-5.034.49-.322.964-.648 1.423-.978v13.559c0 4.191-5.717 9.098-14.92 12.804-10.758 4.333-25.495 6.822-40.448 6.835Zm50.433-43.595c2.478-2.127 3.512-4.04 3.512-5.505v-10.89c-2.706 1.699-5.813 3.26-9.297 4.663-12.289 4.95-28.187 7.65-44.764 7.65-16.578 0-32.475-2.7-44.765-7.65-3.483-1.403-6.591-2.964-9.296-4.663v10.89c0 1.465 1.034 3.378 3.512 5.505 2.427 2.083 6.007 4.165 10.516 5.981 10.576 4.259 25.171 6.732 40.033 6.732 14.862 0 29.457-2.473 40.033-6.732 4.508-1.816 8.089-3.898 10.516-5.981Zm-106.033-5.505c0 4.192 5.717 9.098 14.92 12.805 10.785 4.344 25.571 6.836 40.564 6.836 14.993 0 29.778-2.492 40.564-6.836 9.203-3.707 14.92-8.613 14.92-12.805v-13.558c-.459.33-.933.656-1.423.977-2.791 1.835-6.075 3.523-9.828 5.035-12.083 4.866-27.792 7.546-44.233 7.546-16.441 0-32.151-2.68-44.233-7.546-3.753-1.512-7.037-3.2-9.828-5.035-.49-.321-.964-.647-1.423-.977v13.558Zm55.484-47.678c-14.862 0-29.457 2.473-40.033 6.733-4.509 1.816-8.089 3.898-10.516 5.98-2.478 2.127-3.512 4.041-3.512 5.505 0 1.464 1.034 3.378 3.512 5.505 2.427 2.082 6.007 4.164 10.516 5.98 10.576 4.26 25.171 6.733 40.033 6.733 14.862 0 29.457-2.473 40.033-6.733 4.508-1.816 8.089-3.898 10.516-5.98 2.478-2.127 3.512-4.041 3.512-5.505 0-1.464-1.034-3.378-3.512-5.505-2.427-2.082-6.008-4.164-10.516-5.98-10.576-4.26-25.171-6.733-40.033-6.733Zm-120.787 0c-14.862 0-29.458 2.473-40.033 6.733-4.509 1.816-8.09 3.898-10.516 5.98-2.479 2.127-3.513 4.041-3.513 5.505 0 1.464 1.034 3.378 3.513 5.505 2.426 2.082 6.007 4.164 10.516 5.98 10.575 4.26 25.171 6.733 40.033 6.733 14.861 0 29.457-2.473 40.033-6.733 4.508-1.816 8.089-3.898 10.515-5.98 2.479-2.127 3.513-4.041 3.513-5.505 0-1.464-1.034-3.378-3.513-5.505-2.426-2.082-6.007-4.164-10.515-5.98-10.576-4.26-25.172-6.733-40.033-6.733ZM318.95 321.872c13.151-.475 25.759-2.848 35.174-6.64 4.508-1.816 8.089-3.898 10.516-5.981 2.478-2.127 3.512-4.04 3.512-5.505v-10.891c-2.706 1.699-5.813 3.26-9.297 4.663-11.085 4.465-25.105 7.095-39.905 7.569v16.785Zm0 1.423c13.289-.474 26.088-2.871 35.705-6.744 9.203-3.707 14.92-8.613 14.92-12.805v-13.559c-.459.331-.933.656-1.423.978-2.791 1.834-6.075 3.523-9.828 5.034-11.238 4.526-25.613 7.158-40.796 7.505v19.634c.475-.012.949-.026 1.422-.043Zm-4.859-157.03c-14.993 0-29.779 2.491-40.564 6.836-9.203 3.706-14.92 8.612-14.92 12.804s5.717 9.098 14.92 12.805c10.785 4.344 25.571 6.835 40.564 6.835 14.993 0 29.778-2.491 40.564-6.835 9.203-3.707 14.92-8.613 14.92-12.805s-5.717-9.098-14.92-12.804c-10.786-4.345-25.571-6.836-40.564-6.836Zm-120.787 0c-14.994 0-29.779 2.491-40.565 6.836-9.202 3.706-14.919 8.612-14.919 12.804s5.717 9.098 14.919 12.805c10.786 4.344 25.571 6.835 40.565 6.835 14.993 0 29.778-2.491 40.564-6.835 9.202-3.707 14.919-8.613 14.919-12.805s-5.717-9.098-14.919-12.804c-10.786-4.345-25.571-6.836-40.564-6.836Z"/></g></svg>