<svg width="1394" height="529" fill="none" xmlns="http://www.w3.org/2000/svg"><g clip-path="url(#a)"><path fill-rule="evenodd" clip-rule="evenodd" d="M383.68 97.009c0 .234-.065.463-.185.657a1.121 1.121 0 0 1-.493.436c-.201.09-.421.113-.634.067a1.073 1.073 0 0 1-.562-.324 1.216 1.216 0 0 1-.301-.605c-.042-.23-.02-.468.063-.684.083-.216.224-.4.404-.53.181-.13.393-.2.61-.2.291 0 .57.125.776.347.206.221.321.522.322.836Zm-21.301 127.236c0 .234-.064.463-.185.657a1.115 1.115 0 0 1-.493.436c-.2.09-.421.113-.634.068a1.083 1.083 0 0 1-.562-.324 1.262 1.262 0 0 1-.238-1.289c.083-.217.224-.401.404-.531a1.037 1.037 0 0 1 1.386.147 1.241 1.241 0 0 1 .322.836Zm157.316 63.198c0 .234-.064.462-.185.657-.12.194-.292.346-.492.435-.201.09-.422.113-.635.067a1.075 1.075 0 0 1-.562-.323 1.216 1.216 0 0 1-.3-.606 1.262 1.262 0 0 1 .063-.683c.083-.216.223-.401.404-.531a1.041 1.041 0 0 1 1.03-.109c.133.059.254.146.356.256.102.11.183.24.238.384.055.144.083.297.083.453Zm31.059 144.958c0 .234-.064.463-.185.658a1.119 1.119 0 0 1-.493.435c-.2.09-.421.113-.634.068a1.083 1.083 0 0 1-.562-.324 1.262 1.262 0 0 1-.238-1.289c.083-.216.224-.401.405-.531a1.038 1.038 0 0 1 1.385.147c.206.222.322.523.322.836Z" fill="#68B7E7"/><path fill-rule="evenodd" clip-rule="evenodd" d="M450.59 239.013c0 .234-.065.462-.185.657a1.119 1.119 0 0 1-.493.435c-.2.09-.421.113-.634.068a1.083 1.083 0 0 1-.562-.324 1.213 1.213 0 0 1-.3-.605 1.264 1.264 0 0 1 .062-.684c.083-.216.224-.401.404-.531a1.036 1.036 0 0 1 1.03-.109c.133.059.254.147.356.256.102.11.183.241.238.384.055.144.084.297.084.453Zm-51.894-26.963c0 .234-.065.462-.185.657a1.121 1.121 0 0 1-.493.436 1.025 1.025 0 0 1-.634.067 1.072 1.072 0 0 1-.562-.324 1.214 1.214 0 0 1-.301-.605 1.275 1.275 0 0 1 .062-.684c.084-.216.224-.4.405-.53.18-.13.393-.2.61-.2.291 0 .57.125.776.347.206.221.322.522.322.836Z" fill="#406FBB"/><path fill-rule="evenodd" clip-rule="evenodd" d="M334.234 158.009c0 .234-.064.462-.185.657-.12.195-.292.346-.492.436a1.025 1.025 0 0 1-.634.067 1.072 1.072 0 0 1-.562-.324 1.214 1.214 0 0 1-.301-.605 1.265 1.265 0 0 1 .063-.684c.083-.216.223-.4.404-.53.18-.13.392-.2.61-.2.144 0 .286.031.42.09.133.06.254.147.356.256.102.11.183.241.238.384.055.144.083.298.083.453Z" fill="#365CBB"/><path d="M266.762 70.73c.606 0 1.097-.529 1.097-1.182 0-.653-.491-1.183-1.097-1.183-.607 0-1.098.53-1.098 1.183s.491 1.183 1.098 1.183Z" fill="#365CBB"/><path fill-rule="evenodd" clip-rule="evenodd" d="M397.597 29.093c0 .314-.115.614-.321.836a1.06 1.06 0 0 1-.776.347 1.03 1.03 0 0 1-.42-.09 1.098 1.098 0 0 1-.356-.257 1.189 1.189 0 0 1-.238-.383 1.267 1.267 0 0 1 0-.906c.055-.143.136-.274.238-.384a1.1 1.1 0 0 1 .356-.256 1.028 1.028 0 0 1 .84 0c.133.06.254.147.356.257.102.11.183.24.238.383.055.144.083.297.083.453Zm69.762 208.74c0 .234-.064.463-.185.657a1.121 1.121 0 0 1-.493.436c-.2.089-.421.113-.634.067a1.076 1.076 0 0 1-.562-.324 1.213 1.213 0 0 1-.3-.605c-.042-.23-.02-.467.063-.684.083-.216.223-.4.404-.53.18-.13.393-.2.61-.2.144 0 .286.031.42.09.133.06.254.147.356.257.102.11.183.24.238.384.055.143.083.297.083.452Z" fill="#365CBB"/><path d="M475.344 20.416c.606 0 1.097-.53 1.097-1.182 0-.654-.491-1.183-1.097-1.183s-1.098.53-1.098 1.183.492 1.182 1.098 1.182Z" fill="#365CBB"/><path fill-rule="evenodd" clip-rule="evenodd" d="M255.516 512.958c0 .234-.065.463-.185.657a1.121 1.121 0 0 1-.493.436c-.2.089-.421.113-.634.067a1.066 1.066 0 0 1-.562-.324 1.214 1.214 0 0 1-.301-.605c-.042-.23-.02-.467.063-.684.083-.216.224-.4.404-.53.181-.13.393-.2.61-.2.144 0 .287.031.42.09.133.06.254.147.356.257.102.11.183.24.238.383.055.144.084.298.084.453Z" fill="#90FFFF"/><path fill-rule="evenodd" clip-rule="evenodd" d="M515.77 45.114c0 .314-.116.615-.322.837a1.06 1.06 0 0 1-.776.346 1.06 1.06 0 0 1-.776-.346 1.23 1.23 0 0 1-.322-.837c0-.313.116-.614.322-.836a1.06 1.06 0 0 1 .776-.346c.291 0 .57.124.776.346.206.222.322.523.322.836Zm-9.461 156.838c0 .234-.065.463-.185.658a1.124 1.124 0 0 1-.493.435c-.201.09-.421.113-.634.067a1.07 1.07 0 0 1-.562-.323 1.217 1.217 0 0 1-.301-.606 1.271 1.271 0 0 1 .063-.683c.083-.216.224-.401.404-.531.181-.13.393-.199.61-.199.144 0 .287.03.42.09.133.059.254.146.356.256.102.11.183.24.238.384.055.143.084.297.084.452Zm-280.317-56.705c0 .234-.064.463-.185.657-.12.195-.292.347-.492.436-.201.09-.422.113-.635.067a1.078 1.078 0 0 1-.562-.323 1.22 1.22 0 0 1-.3-.606 1.271 1.271 0 0 1 .062-.683c.084-.217.224-.401.405-.531.18-.13.393-.2.61-.2.291 0 .57.125.776.347.206.222.321.522.321.836ZM672.419 34.515c0 .314-.116.614-.322.836a1.06 1.06 0 0 1-.776.347 1.02 1.02 0 0 1-.42-.09 1.091 1.091 0 0 1-.357-.257 1.19 1.19 0 0 1-.238-.383 1.267 1.267 0 0 1-.083-.453c0-.314.115-.615.321-.837a1.06 1.06 0 0 1 .777-.346c.291 0 .57.125.776.347.206.221.322.522.322.836ZM283.957 207.126c0 .234-.065.463-.185.657a1.121 1.121 0 0 1-.493.436c-.2.089-.421.113-.634.067a1.076 1.076 0 0 1-.562-.324 1.213 1.213 0 0 1-.3-.605 1.265 1.265 0 0 1 .062-.684c.083-.216.224-.4.405-.53.18-.13.392-.2.609-.2.144 0 .287.031.42.09.134.06.255.147.356.257a1.241 1.241 0 0 1 .322.836Zm100.98 320.5c0 .234-.064.463-.184.657a1.127 1.127 0 0 1-.493.436 1.025 1.025 0 0 1-.634.067 1.072 1.072 0 0 1-.562-.324 1.214 1.214 0 0 1-.301-.605c-.042-.23-.02-.467.063-.684.083-.216.223-.4.404-.53.18-.13.393-.2.61-.2.291 0 .57.125.776.347.206.222.321.522.321.836ZM748.344 19.273c0 .314-.116.614-.322.836a1.058 1.058 0 0 1-.776.346 1.02 1.02 0 0 1-.42-.09 1.098 1.098 0 0 1-.356-.256 1.188 1.188 0 0 1-.238-.384 1.268 1.268 0 0 1 0-.905c.055-.143.136-.274.238-.384.102-.11.223-.197.356-.256a1.03 1.03 0 0 1 .84 0c.134.06.255.146.356.256a1.246 1.246 0 0 1 .322.836ZM298.336 61.228c0 .234-.064.462-.185.657-.12.194-.292.346-.492.436-.201.09-.422.113-.635.067a1.077 1.077 0 0 1-.562-.324 1.214 1.214 0 0 1-.3-.605 1.263 1.263 0 0 1 .062-.684c.083-.216.224-.4.404-.53.181-.13.393-.2.61-.2.291 0 .571.124.777.346.205.222.321.523.321.837Zm213.289 301.521c0 .234-.064.463-.185.657a1.121 1.121 0 0 1-.493.436c-.2.089-.421.113-.634.067a1.07 1.07 0 0 1-.562-.324 1.213 1.213 0 0 1-.3-.605 1.26 1.26 0 0 1 .062-.683c.083-.217.224-.401.405-.531.18-.13.392-.2.609-.2.291 0 .571.125.776.347.206.222.322.522.322.836ZM162.309 199.657c0 .234-.065.463-.185.657a1.121 1.121 0 0 1-.493.436c-.201.09-.421.113-.634.067a1.07 1.07 0 0 1-.562-.323 1.217 1.217 0 0 1-.301-.606 1.271 1.271 0 0 1 .063-.683c.083-.216.224-.401.404-.531.181-.13.393-.199.61-.199.291 0 .57.124.776.346.206.222.322.523.322.836Zm24.898-168.193c0 .314-.116.614-.321.836a1.06 1.06 0 0 1-.776.347 1.06 1.06 0 0 1-.777-.347 1.23 1.23 0 0 1-.321-.836c0-.155.028-.31.083-.453a1.2 1.2 0 0 1 .238-.383c.102-.11.223-.197.356-.257a1.033 1.033 0 0 1 .841 0 1.1 1.1 0 0 1 .356.257 1.21 1.21 0 0 1 .321.836ZM421.07 310.528c.001.234-.064.463-.184.658a1.119 1.119 0 0 1-.493.435c-.201.09-.421.113-.634.068a1.08 1.08 0 0 1-.562-.324 1.205 1.205 0 0 1-.301-.606 1.262 1.262 0 0 1 .063-.683c.083-.216.223-.401.404-.531.181-.13.393-.199.61-.199.291 0 .57.124.776.346.206.222.321.523.321.836Zm-85.738-195.652c0 .234-.064.463-.185.657-.12.195-.292.346-.492.436a1.028 1.028 0 0 1-.635.067 1.075 1.075 0 0 1-.562-.323 1.22 1.22 0 0 1-.3-.606 1.265 1.265 0 0 1 .062-.684c.083-.216.224-.4.405-.53.18-.13.392-.2.61-.2.291 0 .57.125.776.347.205.222.321.522.321.836Zm256.606 282.139c0 .234-.065.462-.185.657a1.127 1.127 0 0 1-.493.436 1.025 1.025 0 0 1-.634.067 1.072 1.072 0 0 1-.562-.324 1.214 1.214 0 0 1-.301-.605c-.042-.23-.02-.468.063-.684.083-.216.224-.401.404-.531.181-.13.393-.199.61-.199.291 0 .57.125.776.347.206.221.322.522.322.836Z" fill="#406FBB"/><path fill-rule="evenodd" clip-rule="evenodd" d="M528.508 119.62c0 .234-.064.463-.185.658a1.119 1.119 0 0 1-.493.435c-.2.09-.421.113-.634.067a1.075 1.075 0 0 1-.562-.323 1.262 1.262 0 0 1-.238-1.289c.083-.216.224-.401.404-.531.181-.13.393-.199.61-.199.144-.001.287.03.42.09.133.059.254.146.356.256a1.241 1.241 0 0 1 .322.836Z" fill="#68B7E7"/><path fill-rule="evenodd" clip-rule="evenodd" d="M582.328 129.449c0 .233-.064.462-.185.657-.12.194-.292.346-.492.435-.201.09-.422.113-.635.067a1.078 1.078 0 0 1-.562-.323 1.216 1.216 0 0 1-.3-.606 1.271 1.271 0 0 1 .062-.683c.083-.216.224-.401.405-.531a1.04 1.04 0 0 1 1.386.147c.102.11.183.24.238.384.055.143.083.297.083.453ZM455.961 436.04c0 .234-.065.463-.185.657a1.121 1.121 0 0 1-.493.436c-.2.089-.421.113-.634.067a1.076 1.076 0 0 1-.562-.324 1.213 1.213 0 0 1-.3-.605 1.26 1.26 0 0 1 .062-.683c.083-.217.224-.401.404-.531.181-.13.393-.2.61-.2.144 0 .287.031.42.09.133.06.254.147.356.257.102.11.183.24.238.384.055.143.084.297.084.452Z" fill="#406FBB"/><path fill-rule="evenodd" clip-rule="evenodd" d="M250.375 164.827c0 .234-.064.463-.185.657a1.115 1.115 0 0 1-.493.436c-.2.09-.421.113-.634.067a1.075 1.075 0 0 1-.562-.323 1.262 1.262 0 0 1-.238-1.289c.083-.216.224-.401.405-.531a1.038 1.038 0 0 1 1.385.147c.206.222.322.523.322.836Z" fill="#90FFFF"/><path d="M351.766 180.285c.606 0 1.097-.529 1.097-1.182 0-.654-.491-1.183-1.097-1.183-.607 0-1.098.529-1.098 1.183 0 .653.491 1.182 1.098 1.182Z" fill="#90FFFF"/><path fill-rule="evenodd" clip-rule="evenodd" d="M341.855 30.277c0 .313-.115.614-.321.836a1.06 1.06 0 0 1-.776.346c-.291 0-.571-.124-.776-.346a1.23 1.23 0 0 1-.322-.836 1.246 1.246 0 0 1 .322-.837 1.068 1.068 0 0 1 .776-.346c.291 0 .57.124.776.346.206.222.321.523.321.837Zm-185.203 89.308c0 .234-.064.463-.185.657a1.121 1.121 0 0 1-.493.436c-.2.089-.421.113-.634.067a1.076 1.076 0 0 1-.562-.324 1.213 1.213 0 0 1-.3-.605c-.042-.23-.02-.468.063-.684.083-.216.223-.4.404-.53.18-.13.393-.2.61-.2.144 0 .286.031.42.09.133.06.254.147.356.257.102.11.182.24.238.384.055.143.083.297.083.452Z" fill="#90FFFF"/><path fill-rule="evenodd" clip-rule="evenodd" d="M418.672 350.876c0 .234-.065.463-.185.657a1.121 1.121 0 0 1-.493.436c-.2.089-.421.113-.634.067a1.076 1.076 0 0 1-.562-.324 1.213 1.213 0 0 1-.3-.605 1.265 1.265 0 0 1 .062-.684c.083-.216.224-.4.404-.53.181-.13.393-.2.61-.2.291 0 .57.125.776.347.206.222.322.522.322.836Z" fill="#B7FFFF"/><path fill-rule="evenodd" clip-rule="evenodd" d="M373.25 73.234c0 .234-.064.462-.185.657-.12.194-.292.346-.493.435-.2.09-.421.113-.634.068a1.078 1.078 0 0 1-.562-.324 1.215 1.215 0 0 1-.3-.606 1.263 1.263 0 0 1 .062-.683c.083-.216.224-.4.404-.53a1.03 1.03 0 0 1 1.03-.11c.134.06.255.146.357.256.102.11.182.24.238.384.055.144.083.297.083.453Zm207.98 161.789c0 .233-.064.462-.185.657-.12.194-.292.346-.492.435-.201.09-.421.113-.634.068a1.08 1.08 0 0 1-.562-.324 1.217 1.217 0 0 1-.301-.606 1.271 1.271 0 0 1 .063-.683c.083-.216.223-.401.404-.531.18-.13.393-.199.61-.199.291 0 .57.125.776.346.206.222.321.523.321.837ZM358.469 354.761c0 .234-.065.462-.185.657a1.127 1.127 0 0 1-.493.436c-.2.089-.421.112-.634.067a1.072 1.072 0 0 1-.562-.324 1.204 1.204 0 0 1-.3-.605 1.264 1.264 0 0 1 .062-.684c.083-.216.224-.401.404-.531.181-.13.393-.199.61-.199.291 0 .57.125.776.347.206.221.322.522.322.836Zm-151.504 10.316c0 .234-.065.463-.185.658a1.119 1.119 0 0 1-.493.435c-.2.09-.421.113-.634.067a1.075 1.075 0 0 1-.562-.323 1.262 1.262 0 0 1-.238-1.289c.083-.216.224-.401.404-.531.181-.13.393-.199.61-.199.144 0 .287.03.42.09.133.059.254.146.356.256a1.241 1.241 0 0 1 .322.836ZM580.133 12.372c0 .155-.029.31-.084.453a1.19 1.19 0 0 1-.238.384c-.102.11-.223.197-.356.256a1.028 1.028 0 0 1-.84 0 1.098 1.098 0 0 1-.356-.256 1.245 1.245 0 0 1-.321-.837c0-.155.028-.309.083-.453.055-.143.136-.273.238-.383.102-.11.223-.197.356-.257.133-.059.276-.09.42-.09.291 0 .57.125.776.347.206.222.322.523.322.836Zm-74.43 84.598c0 .234-.064.463-.185.657-.12.195-.292.346-.492.436-.201.09-.422.113-.635.067a1.077 1.077 0 0 1-.562-.324 1.215 1.215 0 0 1-.3-.605 1.273 1.273 0 0 1 .062-.684c.083-.216.224-.4.405-.53.18-.13.392-.2.61-.2.291 0 .57.125.776.347.205.221.321.522.321.836Zm-37.246 67.857c0 .234-.064.463-.185.657-.12.195-.292.347-.492.436-.201.09-.422.113-.635.067a1.075 1.075 0 0 1-.562-.323 1.262 1.262 0 0 1-.238-1.289c.083-.216.224-.401.404-.531.181-.13.393-.199.61-.199.144 0 .287.03.42.09.134.059.255.146.357.256a1.222 1.222 0 0 1 .321.836Zm-113.41.377c0 .234-.064.463-.185.657a1.115 1.115 0 0 1-.493.436c-.2.09-.421.113-.634.067a1.075 1.075 0 0 1-.562-.323 1.262 1.262 0 0 1-.238-1.289c.083-.217.224-.401.404-.531.181-.13.393-.2.61-.2.144 0 .287.031.42.09.134.06.255.147.356.257a1.241 1.241 0 0 1 .322.836Zm35.297 206.317c0 .233-.065.462-.185.657a1.119 1.119 0 0 1-.493.435c-.2.09-.421.113-.634.068a1.08 1.08 0 0 1-.562-.324 1.262 1.262 0 0 1-.238-1.289c.083-.216.224-.401.404-.531.181-.13.393-.199.61-.199.291 0 .571.124.776.346.206.222.322.523.322.837Z" fill="#90FFFF"/><path fill-rule="evenodd" clip-rule="evenodd" d="M359.578 269.388c0 .234-.064.462-.185.657-.12.195-.292.346-.492.436a1.028 1.028 0 0 1-.635.067 1.076 1.076 0 0 1-.562-.324 1.213 1.213 0 0 1-.3-.605 1.275 1.275 0 0 1 .062-.684c.083-.216.224-.401.405-.531.18-.129.392-.199.609-.199.291 0 .571.125.776.346.206.222.322.523.322.837Z" fill="#68B7E7"/><path fill-rule="evenodd" clip-rule="evenodd" d="M290.477 220.966c0 .234-.065.463-.185.657a1.121 1.121 0 0 1-.493.436c-.2.089-.421.113-.634.067a1.066 1.066 0 0 1-.562-.324 1.214 1.214 0 0 1-.301-.605c-.042-.23-.02-.468.063-.684.083-.216.224-.401.404-.53.181-.13.393-.2.61-.2.291 0 .57.125.776.347.206.221.322.522.322.836Zm-51.899-26.963c0 .234-.064.463-.185.657a1.121 1.121 0 0 1-.493.436c-.2.089-.421.113-.634.067a1.076 1.076 0 0 1-.562-.324 1.213 1.213 0 0 1-.3-.605 1.274 1.274 0 0 1 .062-.684c.083-.216.224-.4.405-.53.18-.13.392-.2.61-.2.144 0 .286.031.42.09.133.06.254.147.356.257.102.11.183.24.238.384.055.143.083.297.083.452Z" fill="#406FBB"/><path fill-rule="evenodd" clip-rule="evenodd" d="M174.121 139.958c0 .234-.064.463-.185.657-.12.195-.292.347-.492.436-.201.09-.422.113-.635.068a1.087 1.087 0 0 1-.562-.324 1.216 1.216 0 0 1-.3-.606 1.271 1.271 0 0 1 .062-.683c.083-.216.224-.401.405-.531.18-.13.392-.2.609-.2.291 0 .571.125.777.347.205.222.321.522.321.836Zm-66.379-88.463c0 .156-.028.31-.083.453a1.207 1.207 0 0 1-.238.384 1.1 1.1 0 0 1-.356.256 1.034 1.034 0 0 1-1.197-.256 1.207 1.207 0 0 1-.238-.384 1.266 1.266 0 0 1-.083-.453c0-.313.116-.614.321-.836a1.06 1.06 0 0 1 .776-.346c.292 0 .571.124.777.346.205.222.321.523.321.836ZM237.48 11.048c0 .314-.115.615-.321.836a1.06 1.06 0 0 1-.776.347 1.06 1.06 0 0 1-.776-.347 1.23 1.23 0 0 1-.322-.836c0-.313.116-.614.322-.836a1.06 1.06 0 0 1 .776-.347c.291 0 .57.125.776.347.206.222.321.523.321.836ZM126.227 318.263c0 .234-.065.462-.185.657a1.127 1.127 0 0 1-.493.436c-.2.089-.421.113-.634.067a1.072 1.072 0 0 1-.562-.324 1.214 1.214 0 0 1-.301-.605c-.042-.23-.02-.467.063-.684.083-.216.224-.401.404-.531a1.05 1.05 0 0 1 .61-.199c.291 0 .57.125.776.347.206.221.322.522.322.836Zm181.015-98.48c0 .234-.064.462-.185.657-.12.194-.292.346-.492.435-.201.09-.422.113-.635.068a1.087 1.087 0 0 1-.562-.324 1.216 1.216 0 0 1-.3-.606 1.271 1.271 0 0 1 .062-.683c.083-.216.224-.401.405-.531a1.038 1.038 0 0 1 1.386.147c.102.11.183.24.238.384.055.143.083.297.083.453Zm9.086-218.6c0 .155-.028.31-.083.453a1.189 1.189 0 0 1-.238.383c-.102.11-.223.197-.356.257a1.03 1.03 0 0 1-.42.09c-.291 0-.571-.125-.777-.347a1.234 1.234 0 0 1-.321-.836c0-.314.116-.615.321-.836.206-.222.486-.347.777-.347.291 0 .57.125.776.347.206.221.321.522.321.836Z" fill="#365CBB"/><path fill-rule="evenodd" clip-rule="evenodd" d="M65.88 127.2c0 .234-.065.463-.186.657a1.11 1.11 0 0 1-.493.436c-.2.09-.42.113-.634.068a1.082 1.082 0 0 1-.562-.324 1.215 1.215 0 0 1-.3-.606 1.266 1.266 0 0 1 .062-.683 1.17 1.17 0 0 1 .404-.531c.181-.13.393-.199.61-.199.291 0 .57.124.776.346.206.222.322.523.322.836Zm57.964 61.879c0 .234-.065.463-.185.657a1.121 1.121 0 0 1-.493.436 1.025 1.025 0 0 1-.634.067 1.07 1.07 0 0 1-.562-.323 1.262 1.262 0 0 1-.238-1.289c.083-.217.224-.401.404-.531.181-.13.393-.2.61-.2.291.001.57.125.776.347.206.222.321.523.322.836Zm14.375-145.898c0 .314-.116.614-.322.836a1.06 1.06 0 0 1-.776.347 1.06 1.06 0 0 1-.776-.347 1.23 1.23 0 0 1-.322-.836c0-.314.116-.615.322-.837a1.031 1.031 0 0 1 1.196-.256c.133.06.254.147.356.257.102.11.183.24.238.383.055.144.084.298.084.453Zm-6.039 311.478c0 .234-.065.463-.185.658a1.119 1.119 0 0 1-.493.435c-.2.09-.421.113-.634.067a1.07 1.07 0 0 1-.562-.323 1.217 1.217 0 0 1-.301-.606 1.271 1.271 0 0 1 .063-.683c.083-.216.224-.401.404-.531.181-.13.393-.199.61-.199.291 0 .57.124.776.346.206.222.322.523.322.836ZM2.195 181.61c0 .234-.064.463-.185.658-.12.194-.292.346-.492.435-.2.09-.421.113-.634.068a1.081 1.081 0 0 1-.562-.324 1.211 1.211 0 0 1-.3-.606 1.267 1.267 0 0 1 .062-.683 1.17 1.17 0 0 1 .404-.531 1.042 1.042 0 0 1 1.03-.109c.133.059.254.146.356.256.102.11.183.24.238.384.055.143.083.297.083.452ZM27.094 13.411c0 .314-.116.615-.322.837a1.06 1.06 0 0 1-.776.346 1.06 1.06 0 0 1-.776-.346 1.23 1.23 0 0 1-.322-.837c0-.155.029-.309.084-.452.055-.144.136-.274.238-.384.102-.11.223-.197.356-.256.133-.06.276-.09.42-.09.291 0 .57.124.776.346.206.222.322.523.322.836Zm148.125 83.412c0 .234-.065.463-.185.658a1.12 1.12 0 0 1-.493.435c-.2.09-.421.113-.634.068a1.073 1.073 0 0 1-.562-.324 1.206 1.206 0 0 1-.3-.606 1.263 1.263 0 0 1 .062-.683c.083-.216.224-.401.404-.531.181-.13.393-.2.61-.2.291 0 .571.125.776.347.206.222.322.523.322.836Z" fill="#406FBB"/><path fill-rule="evenodd" clip-rule="evenodd" d="M90.266 146.771c0 .233-.065.462-.185.657-.12.194-.292.346-.493.435-.2.09-.421.113-.634.068a1.081 1.081 0 0 1-.562-.324 1.21 1.21 0 0 1-.3-.606 1.266 1.266 0 0 1 .062-.683 1.17 1.17 0 0 1 .404-.531c.18-.13.393-.199.61-.199.291 0 .57.124.776.346.206.222.322.523.322.837Zm91.476-134.539c0 .313-.115.614-.321.836a1.06 1.06 0 0 1-.776.346 1.06 1.06 0 0 1-.777-.346 1.234 1.234 0 0 1-.321-.836c0-.314.116-.615.321-.837a1.06 1.06 0 0 1 .777-.346c.291 0 .57.124.776.346.206.222.321.523.321.837Z" fill="#90FFFF"/><path fill-rule="evenodd" clip-rule="evenodd" d="M258.555 332.829c0 .234-.064.463-.185.657a1.115 1.115 0 0 1-.493.436c-.2.09-.421.113-.634.067a1.075 1.075 0 0 1-.562-.323 1.217 1.217 0 0 1-.301-.606 1.271 1.271 0 0 1 .063-.683c.083-.216.224-.401.404-.531.181-.13.393-.199.61-.2.144 0 .287.031.42.09.133.06.254.147.356.257.102.11.183.24.238.384.055.143.084.297.084.452Z" fill="#B7FFFF"/><path fill-rule="evenodd" clip-rule="evenodd" d="M198.352 336.71c0 .234-.065.463-.185.657a1.121 1.121 0 0 1-.493.436c-.2.089-.421.113-.634.067a1.07 1.07 0 0 1-.562-.323 1.221 1.221 0 0 1-.301-.606 1.271 1.271 0 0 1 .063-.683c.083-.217.224-.401.404-.531.181-.13.393-.2.61-.2.291 0 .57.125.776.347.206.222.322.522.322.836Zm-151.5 10.316c0 .234-.065.463-.185.658-.12.194-.292.346-.493.435-.2.09-.421.113-.634.068a1.082 1.082 0 0 1-.562-.324 1.21 1.21 0 0 1-.3-.606 1.266 1.266 0 0 1 .062-.683c.083-.216.224-.401.404-.531a1.042 1.042 0 0 1 1.03-.109c.133.059.254.146.356.256.102.11.183.24.238.384.055.143.084.297.084.452ZM345.586 78.923c0 .234-.064.463-.185.657a1.12 1.12 0 0 1-.493.436c-.2.09-.421.113-.634.067a1.078 1.078 0 0 1-.562-.323 1.215 1.215 0 0 1-.3-.606 1.263 1.263 0 0 1 .062-.684c.083-.216.224-.4.405-.53a1.04 1.04 0 0 1 1.029-.11 1.1 1.1 0 0 1 .357.257 1.21 1.21 0 0 1 .321.836Zm-37.246 67.848c0 .233-.064.462-.185.657a1.119 1.119 0 0 1-.493.435c-.2.09-.421.113-.634.068a1.083 1.083 0 0 1-.562-.324 1.262 1.262 0 0 1-.238-1.289c.083-.216.224-.401.405-.531a1.038 1.038 0 0 1 1.386.147c.205.222.321.523.321.837Zm-109.863 8.72c0 .234-.065.463-.185.657a1.115 1.115 0 0 1-.493.436c-.2.09-.421.113-.634.068a1.08 1.08 0 0 1-.562-.324 1.217 1.217 0 0 1-.301-.606 1.271 1.271 0 0 1 .063-.683c.083-.216.223-.401.404-.531a1.041 1.041 0 0 1 1.03-.109c.133.059.254.146.356.256.102.11.183.24.238.384.055.143.084.297.084.452Zm31.753 197.985c0 .234-.064.462-.184.657a1.127 1.127 0 0 1-.493.436 1.025 1.025 0 0 1-.634.067 1.072 1.072 0 0 1-.562-.324 1.214 1.214 0 0 1-.301-.605c-.042-.23-.02-.468.063-.684.083-.216.223-.401.404-.531a1.041 1.041 0 0 1 1.03-.109c.133.059.254.146.356.256.102.11.183.241.238.384.055.144.083.297.083.453Zm275.231-5.666c0 .234-.064.462-.185.657a1.127 1.127 0 0 1-.493.436c-.2.089-.421.113-.634.067a1.076 1.076 0 0 1-.562-.324 1.213 1.213 0 0 1-.3-.605 1.264 1.264 0 0 1 .062-.684c.083-.216.224-.401.405-.531a1.038 1.038 0 0 1 1.385.147c.206.222.322.523.322.837Z" fill="#90FFFF"/><path fill-rule="evenodd" clip-rule="evenodd" d="M658.852 198.478c0 .234-.065.462-.185.657a1.119 1.119 0 0 1-.493.435c-.2.09-.421.113-.634.068a1.072 1.072 0 0 1-.562-.324 1.214 1.214 0 0 1-.301-.605c-.042-.23-.02-.468.063-.684.083-.216.224-.401.404-.531.18-.13.393-.199.61-.199.291 0 .57.125.776.346.206.222.322.523.322.837Zm-90.551-52.213c0 .234-.065.462-.185.657a1.119 1.119 0 0 1-.493.435c-.2.09-.421.113-.634.068a1.08 1.08 0 0 1-.562-.324 1.262 1.262 0 0 1-.238-1.289c.083-.216.224-.401.404-.531.181-.13.393-.199.61-.199.291 0 .57.125.776.346.206.222.322.523.322.837ZM87.738 26.337c0 .155-.028.31-.083.453a1.192 1.192 0 0 1-.238.383c-.102.11-.223.197-.356.257-.134.06-.276.09-.42.09a1.06 1.06 0 0 1-.777-.347 1.23 1.23 0 0 1-.321-.836c0-.314.116-.614.321-.836a1.06 1.06 0 0 1 .776-.347c.145 0 .287.03.42.09a1.1 1.1 0 0 1 .357.257c.102.11.183.24.238.383.055.144.083.298.083.453ZM490.93 231.605c0 .233-.064.462-.185.657a1.119 1.119 0 0 1-.493.435c-.2.09-.421.113-.634.068a1.076 1.076 0 0 1-.562-.324 1.214 1.214 0 0 1-.301-.605c-.042-.23-.02-.468.063-.684.083-.216.224-.401.404-.531.181-.13.393-.199.61-.199.291 0 .57.124.776.346.206.222.322.523.322.837Z" fill="#406FBB"/><path fill-rule="evenodd" clip-rule="evenodd" d="M1029.21 97.009c0 .234-.06.463-.18.657-.12.195-.3.346-.5.436-.2.09-.42.113-.63.067a1.068 1.068 0 0 1-.56-.324 1.145 1.145 0 0 1-.3-.605c-.05-.23-.02-.468.06-.684.08-.216.22-.4.4-.53.18-.13.4-.2.61-.2.29 0 .57.125.78.347.21.221.32.522.32.836Zm-21.3 127.236c0 .234-.06.463-.18.657-.13.195-.3.347-.5.436-.2.09-.42.113-.63.068a1.074 1.074 0 0 1-.56-.324 1.147 1.147 0 0 1-.3-.606c-.05-.229-.02-.467.06-.683.08-.217.22-.401.4-.531.18-.13.4-.2.61-.199.15 0 .29.03.42.09.14.059.26.146.36.256.1.11.18.24.24.384.05.143.08.297.08.452Zm157.32 63.198c0 .234-.07.462-.19.657-.12.194-.29.346-.49.435-.2.09-.42.113-.64.067-.21-.045-.4-.158-.56-.323a1.224 1.224 0 0 1-.3-.606c-.04-.229-.02-.467.06-.683.09-.216.23-.401.41-.531a1.035 1.035 0 0 1 1.03-.109c.13.059.25.146.36.256.1.11.18.24.23.384.06.144.09.297.09.453Zm31.06 144.958c0 .234-.07.463-.19.658-.12.194-.29.346-.49.435a1.038 1.038 0 0 1-1.2-.256 1.22 1.22 0 0 1-.3-.606c-.04-.229-.02-.467.06-.683.09-.216.23-.401.41-.531a1.035 1.035 0 0 1 1.38.147c.21.222.33.523.33.836Z" fill="#68B7E7"/><path fill-rule="evenodd" clip-rule="evenodd" d="M1096.12 239.013c0 .234-.06.462-.18.657-.12.194-.3.346-.5.435-.2.09-.42.113-.63.068a1.074 1.074 0 0 1-.56-.324 1.144 1.144 0 0 1-.3-.605c-.05-.23-.02-.468.06-.684.08-.216.22-.401.4-.531.18-.13.4-.199.61-.199.15 0 .29.031.42.09.14.059.26.147.36.256.1.11.18.241.24.384.05.144.08.297.08.453Zm-51.89-26.963c0 .234-.07.462-.19.657s-.29.346-.49.436c-.2.089-.42.113-.63.067a1.095 1.095 0 0 1-.57-.324 1.22 1.22 0 0 1-.3-.605c-.04-.23-.02-.467.06-.684.09-.216.23-.4.41-.53.18-.13.39-.2.61-.2.29 0 .57.125.78.347.2.221.32.522.32.836Z" fill="#406FBB"/><path fill-rule="evenodd" clip-rule="evenodd" d="M979.766 158.009c0 .234-.065.462-.185.657a1.121 1.121 0 0 1-.493.436c-.2.089-.421.113-.634.067a1.072 1.072 0 0 1-.562-.324 1.214 1.214 0 0 1-.301-.605c-.042-.23-.02-.467.063-.684.083-.216.224-.4.404-.53.181-.13.393-.2.61-.2.144 0 .287.031.42.09.133.06.254.147.356.256.102.11.183.241.238.384.055.144.084.298.084.453Z" fill="#365CBB"/><path d="M912.293 70.73c.606 0 1.098-.529 1.098-1.182 0-.653-.492-1.183-1.098-1.183-.606 0-1.098.53-1.098 1.183s.492 1.183 1.098 1.183Z" fill="#365CBB"/><path fill-rule="evenodd" clip-rule="evenodd" d="M1043.13 29.093c0 .314-.12.614-.32.836-.21.222-.49.347-.78.347a1.033 1.033 0 0 1-.77-.347c-.11-.11-.19-.24-.24-.383a1.172 1.172 0 0 1 0-.906c.05-.143.13-.274.24-.384a1.032 1.032 0 0 1 1.19-.256c.13.06.26.147.36.257.1.11.18.24.24.383.05.144.08.297.08.453Zm69.76 208.74c0 .234-.06.463-.18.657-.13.195-.3.346-.5.436-.2.089-.42.113-.63.067a1.067 1.067 0 0 1-.56-.324 1.144 1.144 0 0 1-.3-.605c-.05-.23-.02-.467.06-.684.08-.216.22-.4.4-.53.18-.13.4-.2.61-.2.15 0 .29.031.42.09.14.06.26.147.36.257.1.11.18.24.24.384.05.143.08.297.08.452Z" fill="#365CBB"/><path d="M1120.88 20.416c.6 0 1.09-.53 1.09-1.182 0-.654-.49-1.183-1.09-1.183-.61 0-1.1.53-1.1 1.183s.49 1.182 1.1 1.182Z" fill="#365CBB"/><path fill-rule="evenodd" clip-rule="evenodd" d="M901.047 512.958c0 .234-.064.463-.185.657a1.121 1.121 0 0 1-.493.436c-.2.089-.421.113-.634.067a1.07 1.07 0 0 1-.562-.324 1.213 1.213 0 0 1-.3-.605 1.265 1.265 0 0 1 .062-.684c.083-.216.224-.4.404-.53a1.033 1.033 0 0 1 1.03-.11c.134.06.255.147.356.257.102.11.183.24.238.383.056.144.084.298.084.453Z" fill="#90FFFF"/><path fill-rule="evenodd" clip-rule="evenodd" d="M1161.3 45.114c0 .314-.11.615-.32.837-.21.222-.49.346-.78.346-.29 0-.57-.124-.77-.346a1.21 1.21 0 0 1-.32-.837c0-.313.11-.614.32-.836.2-.222.48-.346.77-.346.29 0 .57.124.78.346.21.222.32.523.32.836Zm-9.46 156.838c0 .234-.06.463-.19.658-.12.194-.29.346-.49.435-.2.09-.42.113-.63.067a1.065 1.065 0 0 1-.56-.323 1.147 1.147 0 0 1-.3-.606c-.05-.229-.02-.467.06-.683.08-.216.22-.401.4-.531a1.035 1.035 0 0 1 1.03-.109c.14.059.26.146.36.256.1.11.18.24.24.384.05.143.08.297.08.452Zm-280.316-56.705c0 .234-.065.463-.185.657a1.115 1.115 0 0 1-.493.436c-.201.09-.421.113-.634.067a1.07 1.07 0 0 1-.562-.323 1.221 1.221 0 0 1-.301-.606 1.271 1.271 0 0 1 .063-.683c.083-.217.224-.401.404-.531.181-.13.393-.2.61-.2.291 0 .57.125.776.347.206.222.322.522.322.836ZM1317.95 34.515c0 .314-.12.614-.32.836-.21.222-.49.347-.78.347a1.032 1.032 0 0 1-.77-.347c-.11-.11-.19-.24-.24-.383a1.22 1.22 0 0 1 .24-1.29c.2-.221.48-.346.77-.346.29 0 .57.125.78.347.2.221.32.522.32.836ZM929.488 207.126c0 .234-.064.463-.185.657a1.121 1.121 0 0 1-.493.436c-.2.089-.421.113-.634.067a1.076 1.076 0 0 1-.562-.324 1.213 1.213 0 0 1-.3-.605 1.275 1.275 0 0 1 .062-.684c.084-.216.224-.4.405-.53.18-.13.392-.2.61-.2.144 0 .286.031.42.09.133.06.254.147.356.257.102.11.183.24.238.384.055.143.083.297.083.452Zm100.982 320.5c0 .234-.07.463-.19.657-.12.195-.29.346-.49.436-.2.089-.42.113-.63.067a1.095 1.095 0 0 1-.57-.324 1.31 1.31 0 0 1-.3-.605 1.23 1.23 0 0 1 .07-.684c.08-.216.22-.4.4-.53.18-.13.39-.2.61-.2.29 0 .57.125.78.347.2.222.32.522.32.836Zm363.41-508.353c0 .314-.12.614-.33.836a1.037 1.037 0 0 1-1.19.256 1.017 1.017 0 0 1-.36-.256c-.1-.11-.18-.24-.24-.384a1.383 1.383 0 0 1-.08-.452c0-.156.03-.31.08-.453.06-.143.14-.274.24-.384.1-.11.22-.197.36-.256a1 1 0 0 1 .42-.09c.14 0 .28.03.42.09.13.06.25.146.35.256.11.11.19.24.24.384.06.144.09.297.09.453ZM943.867 61.228c0 .234-.064.462-.185.657-.12.194-.292.346-.492.436-.201.09-.421.113-.634.067a1.08 1.08 0 0 1-.563-.324 1.214 1.214 0 0 1-.3-.605 1.272 1.272 0 0 1 .062-.684c.083-.216.224-.4.405-.53.18-.13.392-.2.61-.2.291 0 .57.124.776.346.206.222.321.523.321.837Zm213.293 301.521c0 .234-.07.463-.19.657-.12.195-.29.346-.49.436a1.038 1.038 0 0 1-1.2-.257 1.22 1.22 0 0 1-.3-.605 1.32 1.32 0 0 1 .06-.683c.09-.217.23-.401.41-.531.18-.13.39-.2.61-.2.29 0 .57.125.77.347.21.222.33.522.33.836ZM807.84 199.657c0 .234-.065.463-.185.657a1.121 1.121 0 0 1-.493.436c-.2.09-.421.113-.634.067a1.075 1.075 0 0 1-.562-.323 1.262 1.262 0 0 1-.238-1.289c.083-.216.224-.401.404-.531.181-.13.393-.199.61-.199.291 0 .57.124.776.346.206.222.322.523.322.836Zm24.898-168.193c0 .314-.115.614-.321.836a1.06 1.06 0 0 1-.776.347c-.291 0-.571-.125-.776-.347a1.23 1.23 0 0 1-.322-.836 1.245 1.245 0 0 1 .322-.836c.101-.11.223-.197.356-.257a1.028 1.028 0 0 1 .84 0 1.1 1.1 0 0 1 .356.257c.102.11.183.24.238.383.055.144.083.298.083.453ZM1066.6 310.528c0 .234-.06.463-.18.658-.12.194-.3.346-.5.435-.2.09-.42.113-.63.068a1.074 1.074 0 0 1-.56-.324 1.143 1.143 0 0 1-.3-.606c-.05-.229-.02-.467.06-.683.08-.216.22-.401.4-.531.18-.13.4-.199.61-.199.3 0 .57.124.78.346.21.222.32.523.32.836Zm-85.736-195.652c0 .234-.065.463-.185.657a1.127 1.127 0 0 1-.493.436 1.025 1.025 0 0 1-.634.067 1.077 1.077 0 0 1-.563-.323 1.22 1.22 0 0 1-.3-.606 1.265 1.265 0 0 1 .063-.684c.083-.216.223-.4.404-.53.18-.13.393-.2.61-.2.291 0 .57.125.776.347.206.222.321.522.322.836Zm256.606 282.139c0 .234-.07.462-.19.657a1.12 1.12 0 0 1-.49.436c-.2.089-.42.113-.63.067a1.095 1.095 0 0 1-.57-.324 1.31 1.31 0 0 1-.3-.605 1.23 1.23 0 0 1 .07-.684c.08-.216.22-.401.4-.531.18-.13.39-.199.61-.199.29 0 .57.125.78.347.2.221.32.522.32.836Z" fill="#406FBB"/><path fill-rule="evenodd" clip-rule="evenodd" d="M1174.04 119.62c0 .234-.07.463-.19.658-.12.194-.29.346-.49.435a1.029 1.029 0 0 1-1.19-.256 1.24 1.24 0 0 1-.31-.606c-.04-.229-.02-.467.07-.683.08-.216.22-.401.4-.531a1.035 1.035 0 0 1 1.03-.109c.13.059.26.146.36.256.1.11.18.24.24.384.05.143.08.297.08.452Z" fill="#68B7E7"/><path fill-rule="evenodd" clip-rule="evenodd" d="M1227.86 129.449c0 .233-.06.462-.19.657-.12.194-.29.346-.49.435a1.029 1.029 0 0 1-1.19-.256 1.147 1.147 0 0 1-.3-.606 1.14 1.14 0 0 1 .06-.683c.08-.216.22-.401.4-.531a1.035 1.035 0 0 1 1.03-.109c.14.059.26.146.36.256.1.11.18.24.24.384.05.143.08.297.08.453ZM1101.49 436.04c0 .234-.06.463-.18.657-.12.195-.3.346-.5.436-.2.089-.42.113-.63.067a1.067 1.067 0 0 1-.56-.324 1.144 1.144 0 0 1-.3-.605 1.32 1.32 0 0 1 .06-.683c.08-.217.22-.401.4-.531.19-.13.4-.2.61-.2.15 0 .29.031.42.09.14.06.26.147.36.257.1.11.18.24.24.383.05.144.08.298.08.453Z" fill="#406FBB"/><path fill-rule="evenodd" clip-rule="evenodd" d="M895.906 164.827c0 .234-.064.463-.185.657-.12.195-.292.347-.492.436-.201.09-.422.113-.635.067a1.078 1.078 0 0 1-.562-.323 1.216 1.216 0 0 1-.3-.606 1.262 1.262 0 0 1 .063-.683c.083-.216.223-.401.404-.531.18-.13.393-.199.61-.199.291 0 .57.124.776.346.206.222.321.523.321.836Z" fill="#90FFFF"/><path d="M997.297 180.285c.606 0 1.097-.529 1.097-1.182 0-.654-.491-1.183-1.097-1.183s-1.098.529-1.098 1.183c0 .653.492 1.182 1.098 1.182Z" fill="#90FFFF"/><path fill-rule="evenodd" clip-rule="evenodd" d="M987.387 30.277c0 .313-.116.614-.322.836a1.06 1.06 0 0 1-.776.346 1.06 1.06 0 0 1-.776-.346 1.23 1.23 0 0 1-.322-.836c0-.156.029-.31.084-.453.055-.144.136-.274.238-.384.102-.11.223-.197.356-.256.133-.06.276-.09.42-.09.291 0 .57.124.776.346.206.222.322.523.322.837Zm-185.204 89.308c0 .234-.064.463-.185.657-.12.195-.292.346-.492.436a1.026 1.026 0 0 1-.634.067 1.072 1.072 0 0 1-.562-.324 1.214 1.214 0 0 1-.301-.605c-.042-.23-.02-.468.063-.684.083-.216.224-.4.404-.53.181-.13.393-.2.61-.2.144 0 .287.031.42.09.133.06.254.147.356.257.102.11.183.24.238.384.055.143.083.297.083.452Z" fill="#90FFFF"/><path fill-rule="evenodd" clip-rule="evenodd" d="M1064.2 350.876c0 .234-.06.463-.18.657-.12.195-.29.346-.49.436-.21.089-.43.113-.64.067a1.067 1.067 0 0 1-.56-.324 1.22 1.22 0 0 1-.3-.605c-.04-.23-.02-.467.06-.684.08-.216.23-.4.41-.53.18-.13.39-.2.61-.2.29 0 .57.125.77.347.21.222.32.522.32.836Z" fill="#B7FFFF"/><path fill-rule="evenodd" clip-rule="evenodd" d="M1018.78 73.234c0 .234-.06.462-.18.657-.12.194-.3.346-.5.435-.2.09-.42.113-.63.068a1.068 1.068 0 0 1-.56-.324 1.146 1.146 0 0 1-.3-.606c-.05-.229-.02-.467.06-.683.08-.216.22-.4.4-.53.18-.13.4-.2.61-.2a1 1 0 0 1 .42.09c.14.06.26.146.36.256.1.11.18.24.24.384.05.144.08.297.08.453Zm207.98 161.789c0 .233-.06.462-.18.657-.12.194-.3.346-.5.435-.2.09-.42.113-.63.067a1.065 1.065 0 0 1-.56-.323 1.147 1.147 0 0 1-.3-.606c-.04-.229-.02-.467.06-.683.08-.216.22-.401.4-.531.18-.13.4-.199.61-.199.3 0 .57.125.78.346.21.222.32.523.32.837ZM1004 354.761c0 .234-.06.462-.19.657a1.12 1.12 0 0 1-.49.436c-.2.089-.42.112-.63.067a1.067 1.067 0 0 1-.56-.324 1.144 1.144 0 0 1-.3-.605c-.05-.23-.02-.468.06-.684.08-.216.22-.401.4-.531.18-.13.4-.199.61-.199.29 0 .57.125.78.347.2.221.32.522.32.836Zm-151.504 10.316c0 .234-.064.463-.185.658a1.119 1.119 0 0 1-.493.435c-.2.09-.421.113-.634.067a1.075 1.075 0 0 1-.562-.323 1.216 1.216 0 0 1-.3-.606 1.271 1.271 0 0 1 .062-.683c.083-.216.224-.401.405-.531a1.038 1.038 0 0 1 1.386.147c.102.11.182.24.238.384.055.143.083.297.083.452ZM1225.66 12.372c0 .155-.02.31-.08.453-.05.143-.14.274-.24.384-.1.11-.22.197-.35.256-.14.06-.28.09-.42.09a1 1 0 0 1-.42-.09 1.03 1.03 0 0 1-.36-.256c-.1-.11-.18-.24-.24-.384a1.384 1.384 0 0 1-.08-.453c0-.155.03-.309.08-.453.06-.143.14-.273.24-.383.1-.11.22-.197.36-.257.13-.059.27-.09.42-.09.29 0 .57.125.77.347.21.222.32.523.32.836Zm-74.43 84.598c0 .234-.06.463-.18.657-.12.195-.29.346-.49.436a1.037 1.037 0 0 1-1.2-.257 1.223 1.223 0 0 1-.3-.605c-.04-.23-.02-.468.06-.684.09-.216.23-.4.41-.53.18-.13.39-.2.61-.2.29 0 .57.125.77.347.21.221.32.522.32.836Zm-37.24 67.857c0 .234-.07.463-.19.657-.12.195-.29.347-.49.436-.2.09-.42.113-.63.067a1.093 1.093 0 0 1-.57-.323 1.313 1.313 0 0 1-.3-.606c-.04-.229-.02-.467.07-.683.08-.216.22-.401.4-.531a1.035 1.035 0 0 1 1.03-.109c.13.059.25.146.36.256.1.11.18.24.23.384.06.143.09.297.09.452Zm-113.41.377c0 .234-.07.463-.19.657a1.11 1.11 0 0 1-.489.436c-.201.09-.422.113-.635.067a1.075 1.075 0 0 1-.562-.323 1.216 1.216 0 0 1-.3-.606 1.271 1.271 0 0 1 .062-.683c.083-.217.224-.401.405-.531.18-.13.392-.2.61-.2.144 0 .286.031.42.09.129.06.249.147.359.257.1.11.18.24.23.384.06.143.09.297.09.452Zm35.3 206.317c0 .234-.07.462-.19.657-.12.194-.29.346-.49.435a1.038 1.038 0 0 1-1.2-.256 1.22 1.22 0 0 1-.3-.606c-.04-.229-.02-.467.06-.683.09-.216.23-.401.41-.531a1.035 1.035 0 0 1 1.38.147c.21.222.33.523.33.837Z" fill="#90FFFF"/><path fill-rule="evenodd" clip-rule="evenodd" d="M1005.11 269.388c0 .234-.06.462-.19.657-.12.195-.29.346-.49.436a1.03 1.03 0 0 1-1.19-.257 1.144 1.144 0 0 1-.3-.605c-.05-.23-.03-.467.06-.684.08-.216.22-.401.4-.531a1.042 1.042 0 0 1 1.39.147c.2.222.32.523.32.837Z" fill="#68B7E7"/><path fill-rule="evenodd" clip-rule="evenodd" d="M936.008 220.966c0 .234-.064.463-.185.657a1.121 1.121 0 0 1-.493.436c-.2.089-.421.113-.634.067a1.07 1.07 0 0 1-.562-.324 1.204 1.204 0 0 1-.3-.605 1.264 1.264 0 0 1 .062-.684c.083-.216.224-.401.404-.53.181-.13.393-.2.61-.2.291 0 .571.125.776.347.206.221.322.522.322.836Zm-51.899-26.963c0 .234-.064.463-.185.657-.12.195-.292.346-.492.436a1.028 1.028 0 0 1-.635.067 1.08 1.08 0 0 1-.562-.324 1.213 1.213 0 0 1-.3-.605c-.042-.23-.02-.468.063-.684.083-.216.223-.4.404-.53.18-.13.393-.2.61-.2.144 0 .287.031.42.09.133.06.254.147.356.257.102.11.183.24.238.384.055.143.083.297.083.452Z" fill="#406FBB"/><path fill-rule="evenodd" clip-rule="evenodd" d="M819.652 139.958c0 .234-.064.463-.184.657a1.115 1.115 0 0 1-.493.436c-.201.09-.421.113-.634.068a1.08 1.08 0 0 1-.562-.324 1.217 1.217 0 0 1-.301-.606 1.262 1.262 0 0 1 .063-.683c.083-.216.223-.401.404-.531.18-.13.392-.2.61-.2.291 0 .57.125.776.347.206.222.321.522.321.836Zm-66.379-88.463c0 .156-.028.31-.083.453a1.19 1.19 0 0 1-.238.384 1.1 1.1 0 0 1-.356.256 1.03 1.03 0 0 1-.84 0 1.079 1.079 0 0 1-.356-.256 1.246 1.246 0 0 1-.322-.837c0-.313.116-.614.322-.836.205-.222.485-.346.776-.346.291 0 .57.124.776.346.206.222.321.523.321.836Zm129.739-40.447c0 .314-.116.615-.322.836a1.06 1.06 0 0 1-.776.347 1.06 1.06 0 0 1-.776-.347 1.23 1.23 0 0 1-.322-.836c0-.313.116-.614.322-.836a1.06 1.06 0 0 1 .776-.347c.291 0 .57.125.776.347.206.222.322.523.322.836ZM771.758 318.263c0 .234-.064.462-.185.657a1.127 1.127 0 0 1-.493.436c-.2.089-.421.113-.634.067a1.076 1.076 0 0 1-.562-.324 1.213 1.213 0 0 1-.3-.605 1.265 1.265 0 0 1 .062-.684c.083-.216.224-.401.404-.531a1.05 1.05 0 0 1 .61-.199c.291 0 .57.125.776.347.206.221.322.522.322.836Zm181.016-98.48c0 .234-.065.462-.185.657a1.124 1.124 0 0 1-.493.435c-.201.09-.421.113-.634.068a1.08 1.08 0 0 1-.562-.324 1.217 1.217 0 0 1-.301-.606 1.271 1.271 0 0 1 .063-.683c.083-.216.223-.401.404-.531a1.041 1.041 0 0 1 1.03-.109c.133.059.254.146.356.256.102.11.183.24.238.384.055.143.084.297.084.453Zm9.086-218.6c0 .155-.029.31-.084.453a1.189 1.189 0 0 1-.238.383c-.102.11-.223.197-.356.257a1.03 1.03 0 0 1-.42.09 1.06 1.06 0 0 1-.776-.347 1.23 1.23 0 0 1-.322-.836c0-.314.116-.615.322-.836a1.06 1.06 0 0 1 .776-.347c.291 0 .57.125.776.347.206.221.322.522.322.836Z" fill="#365CBB"/><path fill-rule="evenodd" clip-rule="evenodd" d="M711.41 127.2c0 .234-.064.463-.185.657-.12.195-.292.347-.492.436-.201.09-.422.113-.635.068a1.083 1.083 0 0 1-.562-.324 1.216 1.216 0 0 1-.3-.606 1.271 1.271 0 0 1 .062-.683c.084-.216.224-.401.405-.531.18-.13.393-.199.61-.199.291 0 .57.124.776.346.206.222.321.523.321.836Zm57.965 61.879c0 .234-.065.463-.185.657a1.121 1.121 0 0 1-.493.436c-.2.089-.421.113-.634.067a1.075 1.075 0 0 1-.562-.323 1.262 1.262 0 0 1-.238-1.289c.083-.217.224-.401.404-.531.181-.13.393-.2.61-.2.291.001.57.125.776.347.206.222.322.523.322.836ZM783.75 43.181c0 .314-.116.614-.322.836a1.056 1.056 0 0 1-.776.347 1.06 1.06 0 0 1-.776-.347 1.23 1.23 0 0 1-.321-.836c0-.314.115-.615.321-.837a1.06 1.06 0 0 1 .776-.346c.145 0 .287.03.42.09a1.1 1.1 0 0 1 .357.257 1.246 1.246 0 0 1 .321.836Zm-6.039 311.478c0 .234-.064.463-.185.658a1.119 1.119 0 0 1-.493.435c-.2.09-.421.113-.634.067a1.075 1.075 0 0 1-.562-.323 1.262 1.262 0 0 1-.238-1.289c.083-.216.224-.401.404-.531.181-.13.393-.199.61-.199.291 0 .571.124.776.346.206.222.322.523.322.836ZM647.727 181.61c0 .234-.065.463-.185.658a1.119 1.119 0 0 1-.493.435c-.2.09-.421.113-.634.068a1.08 1.08 0 0 1-.562-.324 1.213 1.213 0 0 1-.301-.606 1.271 1.271 0 0 1 .063-.683c.083-.216.223-.401.404-.531a1.041 1.041 0 0 1 1.03-.109c.133.059.254.146.356.256.102.11.183.24.238.384.055.143.084.297.084.452Zm24.898-168.199c0 .314-.115.615-.321.837a1.06 1.06 0 0 1-.776.346 1.06 1.06 0 0 1-.777-.346 1.23 1.23 0 0 1-.321-.837c0-.155.028-.309.083-.452.055-.144.136-.274.238-.384.102-.11.223-.197.356-.256a1.034 1.034 0 0 1 1.197.256c.205.222.321.523.321.836ZM820.75 96.823c0 .234-.064.463-.185.658a1.12 1.12 0 0 1-.493.435c-.2.09-.421.113-.634.068a1.077 1.077 0 0 1-.562-.324 1.215 1.215 0 0 1-.3-.606 1.263 1.263 0 0 1 .062-.683c.083-.216.224-.401.405-.531.18-.13.392-.2.61-.2.291 0 .57.125.776.347.205.222.321.523.321.836Z" fill="#406FBB"/><path fill-rule="evenodd" clip-rule="evenodd" d="M735.797 146.771c0 .233-.064.462-.185.657a1.119 1.119 0 0 1-.493.435c-.2.09-.421.113-.634.068a1.083 1.083 0 0 1-.562-.324 1.262 1.262 0 0 1-.238-1.289c.083-.216.224-.401.404-.531.181-.13.393-.199.61-.199.291 0 .571.124.776.346.206.222.322.523.322.837Zm91.477-134.539c0 .313-.116.614-.322.836a1.06 1.06 0 0 1-.776.346c-.291 0-.571-.124-.776-.346a1.23 1.23 0 0 1-.322-.836c0-.314.116-.615.322-.837.205-.222.485-.346.776-.346.291 0 .57.124.776.346.206.222.322.523.322.837Z" fill="#90FFFF"/><path fill-rule="evenodd" clip-rule="evenodd" d="M904.086 332.829c0 .234-.064.463-.185.657-.12.195-.292.347-.492.436-.201.09-.422.113-.635.067a1.075 1.075 0 0 1-.562-.323 1.262 1.262 0 0 1-.238-1.289c.083-.216.224-.401.404-.531.181-.13.393-.199.61-.2.144 0 .287.031.42.09a1.1 1.1 0 0 1 .357.257 1.222 1.222 0 0 1 .321.836Z" fill="#B7FFFF"/><path fill-rule="evenodd" clip-rule="evenodd" d="M843.883 336.71c0 .234-.064.463-.185.657a1.121 1.121 0 0 1-.493.436c-.2.089-.421.113-.634.067a1.075 1.075 0 0 1-.562-.323 1.262 1.262 0 0 1-.238-1.289c.083-.217.224-.401.404-.531.181-.13.393-.2.61-.2.291 0 .57.125.776.347.206.222.322.522.322.836Zm-151.5 10.316c0 .234-.064.463-.185.658a1.119 1.119 0 0 1-.493.435c-.2.09-.421.113-.634.068a1.083 1.083 0 0 1-.562-.324 1.262 1.262 0 0 1-.238-1.289c.083-.216.224-.401.404-.531.181-.13.393-.199.61-.199.144 0 .287.03.42.09.133.059.254.146.356.256a1.241 1.241 0 0 1 .322.836ZM991.117 78.923c0 .234-.064.463-.185.657-.12.195-.292.346-.492.436-.201.09-.422.113-.635.067a1.082 1.082 0 0 1-.562-.323 1.215 1.215 0 0 1-.3-.606 1.272 1.272 0 0 1 .062-.684c.084-.216.224-.4.405-.53a1.03 1.03 0 0 1 1.03-.11c.133.06.254.147.356.257.102.11.183.24.238.383.055.144.083.298.083.453Zm-37.246 67.848c0 .233-.064.462-.185.657-.12.194-.292.346-.492.435-.201.09-.422.113-.635.068a1.083 1.083 0 0 1-.562-.324 1.212 1.212 0 0 1-.3-.606 1.271 1.271 0 0 1 .062-.683c.083-.216.224-.401.405-.531.18-.13.393-.199.61-.199.291 0 .57.124.776.346.206.222.321.523.321.837Zm-109.863 8.72c0 .234-.064.463-.185.657a1.115 1.115 0 0 1-.493.436c-.2.09-.421.113-.634.068a1.083 1.083 0 0 1-.562-.324 1.262 1.262 0 0 1-.238-1.289c.083-.216.224-.401.404-.531.181-.13.393-.199.61-.199.144 0 .287.03.42.09.133.059.254.146.356.256.102.11.183.24.238.384.055.143.084.297.084.452Zm31.754 197.985c0 .234-.065.462-.185.657a1.127 1.127 0 0 1-.493.436c-.2.089-.421.113-.634.067a1.076 1.076 0 0 1-.562-.324 1.204 1.204 0 0 1-.3-.605 1.264 1.264 0 0 1 .062-.684c.083-.216.224-.401.404-.531a1.036 1.036 0 0 1 1.03-.109c.133.059.254.146.356.256.102.11.183.241.238.384.055.144.084.297.084.453Zm275.228-5.666c0 .234-.06.462-.18.657-.12.194-.29.346-.5.436-.2.089-.42.113-.63.067a1.067 1.067 0 0 1-.56-.324 1.144 1.144 0 0 1-.3-.605c-.04-.23-.02-.468.06-.684.08-.216.22-.401.4-.531.19-.13.4-.199.61-.199.3 0 .57.125.78.346.21.222.32.523.32.837Z" fill="#90FFFF"/><path fill-rule="evenodd" clip-rule="evenodd" d="M1304.38 198.478c0 .234-.06.462-.18.657-.12.194-.29.346-.49.435-.21.09-.43.113-.64.068a1.067 1.067 0 0 1-.56-.324 1.22 1.22 0 0 1-.3-.605c-.04-.23-.02-.468.06-.684a1.1 1.1 0 0 1 .41-.531 1.035 1.035 0 0 1 1.38.147c.21.222.32.523.32.837Zm-90.55-52.213c0 .234-.06.462-.18.657-.12.194-.29.346-.5.435-.2.09-.42.113-.63.068a1.074 1.074 0 0 1-.56-.324 1.143 1.143 0 0 1-.3-.606c-.04-.229-.02-.467.06-.683.08-.216.22-.401.4-.531.19-.13.4-.199.61-.199.3 0 .57.125.78.346.21.222.32.523.32.837ZM733.27 26.337c0 .155-.029.31-.084.453a1.189 1.189 0 0 1-.238.383c-.102.11-.223.197-.356.257a1.02 1.02 0 0 1-.42.09 1.06 1.06 0 0 1-.776-.347 1.23 1.23 0 0 1-.322-.836c0-.314.116-.614.322-.836a1.06 1.06 0 0 1 .776-.347c.144 0 .287.03.42.09s.254.147.356.257c.102.11.183.24.238.383.055.144.084.298.084.453Zm403.19 205.268c0 .233-.06.462-.18.657-.12.194-.3.346-.5.435-.2.09-.42.113-.63.068a1.067 1.067 0 0 1-.56-.324 1.144 1.144 0 0 1-.3-.605c-.05-.23-.02-.468.06-.684.08-.216.22-.401.4-.531.18-.13.4-.199.61-.199.29 0 .57.124.78.346.21.222.32.523.32.837Z" fill="#406FBB"/></g><defs><clipPath id="a"><path fill="#fff" d="M0 0h1393.87v528.81H0z"/></clipPath></defs></svg>